<svg width="48" height="48" viewBox="0 0 48 48" fill="none" xmlns="http://www.w3.org/2000/svg">
<rect width="48" height="48" rx="8" fill="#FFFBF2"/>
<path d="M16.6176 14.0486C16.2614 14.2127 16.2661 14.2314 16.7161 14.447C17.6208 14.8783 18.3145 15.6095 18.6942 16.5283C19.0036 17.2642 18.9848 16.6924 18.9848 26.4142C18.9848 34.9033 18.9895 35.2502 19.0739 35.4283C19.2989 35.9205 19.8755 36.1455 20.3864 35.9392C20.4895 35.897 21.1926 35.3299 22.0364 34.6127L23.5036 33.3564L24.9755 34.622C25.7864 35.3158 26.5223 35.9111 26.6067 35.9486C26.8083 36.033 27.1927 36.033 27.3942 35.9486C27.4786 35.9158 28.2052 35.3205 29.0114 34.6314C29.8177 33.9424 30.4973 33.3892 30.5302 33.4033C30.563 33.4174 31.2192 33.9705 31.9927 34.6314C32.7661 35.297 33.4833 35.8783 33.5864 35.9252C33.8255 36.0377 34.1911 36.0377 34.4302 35.9252C34.6645 35.822 34.9036 35.5549 34.9692 35.3252C35.0067 35.1986 35.0161 32.5783 35.0067 26.2174C34.988 16.1486 35.0255 17.1142 34.6177 16.2517C34.2192 15.4174 33.5817 14.7845 32.752 14.3861C31.8895 13.9736 32.6677 14.0111 24.2348 13.997C18.0005 13.9877 16.7348 13.997 16.6176 14.0486ZM30.4786 18.1689C31.1208 18.5439 31.1208 19.4533 30.4786 19.8283L30.2583 19.9595H27.0005H23.7427L23.5223 19.8283C22.7817 19.397 22.9223 18.3142 23.7567 18.0611C23.827 18.0377 25.3177 18.0236 27.0708 18.0283L30.2583 18.0377L30.4786 18.1689ZM30.1458 22.0455C30.9005 22.1908 31.2192 23.0345 30.7364 23.6158C30.4364 23.9814 30.6052 23.9674 27.0005 23.9674C23.977 23.9674 23.7802 23.958 23.5973 23.8783C23.2223 23.7095 22.9692 23.2455 23.0395 22.847C23.1005 22.4814 23.452 22.1205 23.8177 22.0502C24.1177 21.9892 29.8364 21.9892 30.1458 22.0455ZM30.4036 26.1189C30.7786 26.2877 31.0317 26.7517 30.9614 27.1502C30.8958 27.5345 30.5536 27.872 30.1458 27.9517C29.8083 28.0174 24.1927 28.0174 23.8552 27.9517C23.1005 27.8064 22.7817 26.9627 23.2645 26.3814C23.5645 26.0158 23.3958 26.0299 27.0005 26.0299C30.0239 26.0299 30.2208 26.0392 30.4036 26.1189Z" fill="#F7B103"/>
<path d="M14.5078 15.8266C13.9266 15.9719 13.4297 16.375 13.1625 16.9187L13.0078 17.2375V21.3016V25.3609L13.1484 25.5672C13.2281 25.675 13.3875 25.8203 13.5 25.8859L13.7109 26.0031L15.3656 26.0172L17.0156 26.0312L17.0063 21.6344L16.9922 17.2375L16.8375 16.9187C16.4109 16.0516 15.4406 15.5969 14.5078 15.8266Z" fill="#F7B103"/>
</svg>
