<svg width="145" height="221" viewBox="0 0 145 221" fill="none" xmlns="http://www.w3.org/2000/svg">
<mask id="path-1-outside-1_2314_12293" maskUnits="userSpaceOnUse" x="-27.9953" y="131.575" width="62.3316" height="61.6964" fill="black">
<rect fill="white" x="-27.9953" y="131.575" width="62.3316" height="61.6964"/>
<path d="M-3.88088 135.841C-6.00357 139.278 -7.69745 142.025 -9.39577 144.783C-11.2003 147.715 -13.0115 150.654 -15.3483 154.436C-16.6172 156.49 -17.9301 158.614 -18.2623 161.021C-18.9132 165.709 -15.6396 171.541 -9.50572 176.621C-3.34827 181.72 3.21363 184.003 8.04148 182.722C11.3408 181.847 13.7608 179.433 15.9566 177.037C22.6464 169.736 25.3225 166.607 29.925 157.607C22.7973 153.747 3.1672 141.11 -3.88088 135.841ZM-6.62255 181.067C-8.35171 179.986 -9.77123 178.896 -10.7307 178.1C-13.9246 175.454 -21.2353 168.47 -20.1678 160.757C-19.7777 157.95 -18.2927 155.547 -16.9818 153.426C-14.646 149.645 -12.8349 146.706 -11.0323 143.778C-9.18682 140.781 -7.34834 137.795 -4.95804 133.93C-4.81485 133.697 -4.57967 133.538 -4.31097 133.488C-4.04168 133.441 -3.76959 133.507 -3.55146 133.677C2.80545 138.628 25.1759 153.033 31.6481 156.344C32.1181 156.586 32.3062 157.159 32.0691 157.631C27.0831 167.511 24.3994 170.665 17.3733 178.334C15.0904 180.827 12.3351 183.57 8.53239 184.579C3.06733 186.03 -2.61181 183.575 -6.62255 181.067Z"/>
</mask>
<path d="M-3.88088 135.841C-6.00357 139.278 -7.69745 142.025 -9.39577 144.783C-11.2003 147.715 -13.0115 150.654 -15.3483 154.436C-16.6172 156.49 -17.9301 158.614 -18.2623 161.021C-18.9132 165.709 -15.6396 171.541 -9.50572 176.621C-3.34827 181.72 3.21363 184.003 8.04148 182.722C11.3408 181.847 13.7608 179.433 15.9566 177.037C22.6464 169.736 25.3225 166.607 29.925 157.607C22.7973 153.747 3.1672 141.11 -3.88088 135.841ZM-6.62255 181.067C-8.35171 179.986 -9.77123 178.896 -10.7307 178.1C-13.9246 175.454 -21.2353 168.47 -20.1678 160.757C-19.7777 157.95 -18.2927 155.547 -16.9818 153.426C-14.646 149.645 -12.8349 146.706 -11.0323 143.778C-9.18682 140.781 -7.34834 137.795 -4.95804 133.93C-4.81485 133.697 -4.57967 133.538 -4.31097 133.488C-4.04168 133.441 -3.76959 133.507 -3.55146 133.677C2.80545 138.628 25.1759 153.033 31.6481 156.344C32.1181 156.586 32.3062 157.159 32.0691 157.631C27.0831 167.511 24.3994 170.665 17.3733 178.334C15.0904 180.827 12.3351 183.57 8.53239 184.579C3.06733 186.03 -2.61181 183.575 -6.62255 181.067Z" fill="#BCC7BD"/>
<path d="M-9.39577 144.783L-9.82156 144.521L-9.82153 144.521L-9.39577 144.783ZM-15.3483 154.436L-14.9229 154.699L-14.9229 154.699L-15.3483 154.436ZM-18.2623 161.021L-17.767 161.089L-17.7671 161.089L-18.2623 161.021ZM-9.50572 176.621L-9.82463 177.006L-9.82464 177.006L-9.50572 176.621ZM8.04148 182.722L7.91327 182.238L7.91329 182.238L8.04148 182.722ZM15.9566 177.037L16.3253 177.375L16.3252 177.375L15.9566 177.037ZM29.925 157.607L30.1632 157.167L30.5925 157.4L30.3702 157.835L29.925 157.607ZM-10.7307 178.1L-10.4118 177.715L-10.4116 177.715L-10.7307 178.1ZM-20.1678 160.757L-20.663 160.689L-20.663 160.689L-20.1678 160.757ZM-16.9818 153.426L-16.5564 153.688L-16.5565 153.689L-16.9818 153.426ZM-11.0323 143.778L-11.4581 143.516L-11.4581 143.515L-11.0323 143.778ZM-4.95804 133.93L-4.5323 134.192L-4.53281 134.193L-4.95804 133.93ZM-4.31097 133.488L-4.40179 132.997L-4.39699 132.996L-4.31097 133.488ZM-3.55146 133.677L-3.2444 133.282L-3.24424 133.282L-3.55146 133.677ZM31.6481 156.344L31.8758 155.898L31.8776 155.899L31.6481 156.344ZM32.0691 157.631L32.5158 157.855L32.5155 157.856L32.0691 157.631ZM17.3733 178.334L17.0046 177.996L17.0047 177.996L17.3733 178.334ZM8.53239 184.579L8.4041 184.096L8.40417 184.096L8.53239 184.579ZM-3.45548 136.104C-5.57804 139.54 -7.2718 142.287 -8.97 145.046L-9.82153 144.521C-8.1231 141.763 -6.4291 139.015 -4.30628 135.578L-3.45548 136.104ZM-8.96997 145.045C-10.7746 147.977 -12.586 150.916 -14.9229 154.699L-15.7736 154.173C-13.437 150.391 -11.626 147.453 -9.82156 144.521L-8.96997 145.045ZM-14.9229 154.699C-16.203 156.771 -17.4517 158.805 -17.767 161.089L-18.7576 160.952C-18.4084 158.423 -17.0315 156.209 -15.7736 154.173L-14.9229 154.699ZM-17.7671 161.089C-18.073 163.293 -17.4614 165.812 -15.9923 168.429C-14.5249 171.043 -12.2174 173.726 -9.1868 176.236L-9.82464 177.006C-12.9279 174.436 -15.3242 171.662 -16.8643 168.919C-18.4028 166.178 -19.1026 163.437 -18.7576 160.952L-17.7671 161.089ZM-9.18682 176.236C-3.07766 181.295 3.31737 183.458 7.91327 182.238L8.16969 183.205C3.10989 184.547 -3.61888 182.145 -9.82463 177.006L-9.18682 176.236ZM7.91329 182.238C11.0561 181.405 13.3887 179.099 15.588 176.699L16.3252 177.375C14.1329 179.767 11.6254 182.288 8.16968 183.205L7.91329 182.238ZM15.588 176.699C22.2617 169.415 24.9056 166.324 29.4799 157.379L30.3702 157.835C25.7395 166.89 23.0311 170.056 16.3253 177.375L15.588 176.699ZM29.6869 158.047C22.5362 154.174 2.88571 141.524 -4.18028 136.241L-3.58148 135.44C3.4487 140.697 23.0584 153.32 30.1632 157.167L29.6869 158.047ZM-6.88767 181.491C-8.63971 180.395 -10.0773 179.292 -11.0499 178.485L-10.4116 177.715C-9.46511 178.5 -8.0637 179.576 -6.35743 180.643L-6.88767 181.491ZM-11.0497 178.485C-12.664 177.148 -15.3289 174.707 -17.4591 171.612C-19.5853 168.524 -21.2213 164.722 -20.663 160.689L-19.6725 160.826C-20.1817 164.505 -18.6962 168.052 -16.6354 171.045C-14.5787 174.033 -11.9913 176.407 -10.4118 177.715L-11.0497 178.485ZM-20.663 160.689C-20.2562 157.76 -18.7095 155.27 -17.4071 153.163L-16.5565 153.689C-17.8759 155.823 -19.2992 158.139 -19.6725 160.826L-20.663 160.689ZM-17.4072 153.163C-15.0716 149.382 -13.2606 146.444 -11.4581 143.516L-10.6065 144.04C-12.4092 146.968 -14.2205 149.907 -16.5564 153.688L-17.4072 153.163ZM-11.4581 143.515C-9.61258 140.518 -7.77386 137.532 -5.38328 133.667L-4.53281 134.193C-6.92281 138.057 -8.76106 141.043 -10.6066 144.04L-11.4581 143.515ZM-5.38378 133.668C-5.1654 133.313 -4.80761 133.072 -4.40178 132.997L-4.22016 133.98C-4.35172 134.004 -4.4643 134.082 -4.5323 134.192L-5.38378 133.668ZM-4.39699 132.996C-3.99056 132.925 -3.57534 133.025 -3.2444 133.282L-3.85852 134.071C-3.96384 133.99 -4.09279 133.958 -4.22495 133.981L-4.39699 132.996ZM-3.24424 133.282C-0.0859332 135.742 7.07783 140.57 14.2758 145.205C21.4756 149.841 28.6655 154.257 31.8758 155.898L31.4204 156.789C28.1585 155.12 20.9271 150.678 13.7344 146.046C6.53986 141.413 -0.66007 136.562 -3.85867 134.071L-3.24424 133.282ZM31.8776 155.899C32.589 156.267 32.877 157.137 32.5158 157.855L31.6224 157.406C31.7353 157.182 31.6472 156.906 31.4185 156.788L31.8776 155.899ZM32.5155 157.856C27.5019 167.79 24.7865 170.983 17.742 178.672L17.0047 177.996C24.0122 170.348 26.6642 167.231 31.6227 157.406L32.5155 157.856ZM17.742 178.672C15.459 181.164 12.6177 184.012 8.66062 185.062L8.40417 184.096C12.0525 183.128 14.7218 180.489 17.0046 177.996L17.742 178.672ZM8.66069 185.062C2.98492 186.569 -2.85089 184.016 -6.88767 181.491L-6.35743 180.643C-2.37274 183.135 3.14973 185.491 8.4041 184.096L8.66069 185.062Z" fill="#BCC7BD" mask="url(#path-1-outside-1_2314_12293)"/>
<mask id="path-3-outside-2_2314_12293" maskUnits="userSpaceOnUse" x="-29.3039" y="34.091" width="141.943" height="141.943" fill="black">
<rect fill="white" x="-29.3039" y="34.091" width="141.943" height="141.943"/>
<path d="M28.4553 156.362L28.3142 156.254C27.9228 155.896 27.8973 155.287 28.2569 154.897C34.9608 147.597 45.5455 145.088 55.7824 142.659C65.2851 140.406 75.1116 138.076 81.5652 131.919C85.0354 128.608 90.9356 118.9 92.5746 108.58C93.7896 100.926 92.9566 94.0859 90.0992 88.2453C84.7293 77.2664 72.0287 63.8706 58.1463 59.5065C44.9374 55.3547 32.1891 55.0869 22.2514 58.7492C13.1528 62.1033 5.8973 68.8534 1.81862 77.7547C-1.9996 86.0903 -2.95498 96.0031 -0.93966 106.426C-0.661609 107.863 -0.321503 109.333 0.00725561 110.754C0.696668 113.739 1.4084 116.827 1.6253 119.897C2.01816 125.438 0.796195 130.773 -1.90909 135.322C-2.18109 135.779 -2.76983 135.928 -3.22548 135.658C-3.68312 135.41 -3.83106 134.798 -3.56065 134.34C-1.05767 130.129 0.0731825 125.181 -0.291037 120.031C-0.496203 117.113 -1.19218 114.099 -1.86485 111.186C-2.19779 109.748 -2.54055 108.261 -2.82478 106.79C-4.91744 95.973 -3.9158 85.656 0.0735933 76.9543C4.3654 67.5844 12.0051 60.4793 21.586 56.9471C31.9202 53.1374 45.1077 53.3955 58.7215 57.6739C73.1207 62.1991 86.2741 76.0536 91.8245 87.4009C94.8597 93.6036 95.7505 100.831 94.4723 108.88C92.7635 119.639 86.5509 129.818 82.89 133.31C76.0613 139.825 65.9769 142.216 56.2257 144.529C46.271 146.89 35.9764 149.33 29.67 156.196C29.3535 156.542 28.8385 156.602 28.4553 156.362Z"/>
</mask>
<path d="M28.4553 156.362L28.3142 156.254C27.9228 155.896 27.8973 155.287 28.2569 154.897C34.9608 147.597 45.5455 145.088 55.7824 142.659C65.2851 140.406 75.1116 138.076 81.5652 131.919C85.0354 128.608 90.9356 118.9 92.5746 108.58C93.7896 100.926 92.9566 94.0859 90.0992 88.2453C84.7293 77.2664 72.0287 63.8706 58.1463 59.5065C44.9374 55.3547 32.1891 55.0869 22.2514 58.7492C13.1528 62.1033 5.8973 68.8534 1.81862 77.7547C-1.9996 86.0903 -2.95498 96.0031 -0.93966 106.426C-0.661609 107.863 -0.321503 109.333 0.00725561 110.754C0.696668 113.739 1.4084 116.827 1.6253 119.897C2.01816 125.438 0.796195 130.773 -1.90909 135.322C-2.18109 135.779 -2.76983 135.928 -3.22548 135.658C-3.68312 135.41 -3.83106 134.798 -3.56065 134.34C-1.05767 130.129 0.0731825 125.181 -0.291037 120.031C-0.496203 117.113 -1.19218 114.099 -1.86485 111.186C-2.19779 109.748 -2.54055 108.261 -2.82478 106.79C-4.91744 95.973 -3.9158 85.656 0.0735933 76.9543C4.3654 67.5844 12.0051 60.4793 21.586 56.9471C31.9202 53.1374 45.1077 53.3955 58.7215 57.6739C73.1207 62.1991 86.2741 76.0536 91.8245 87.4009C94.8597 93.6036 95.7505 100.831 94.4723 108.88C92.7635 119.639 86.5509 129.818 82.89 133.31C76.0613 139.825 65.9769 142.216 56.2257 144.529C46.271 146.89 35.9764 149.33 29.67 156.196C29.3535 156.542 28.8385 156.602 28.4553 156.362Z" fill="#BCC7BD"/>
<path d="M28.3142 156.254L28.0099 156.651L27.9927 156.638L27.9767 156.623L28.3142 156.254ZM28.2569 154.897L28.6251 155.235L28.6246 155.235L28.2569 154.897ZM55.7824 142.659L55.667 142.173L55.6671 142.173L55.7824 142.659ZM81.5652 131.919L81.9103 132.281L81.9103 132.281L81.5652 131.919ZM92.5746 108.58L93.0684 108.658L93.0684 108.658L92.5746 108.58ZM90.0992 88.2453L89.6501 88.4651L89.6501 88.465L90.0992 88.2453ZM58.1463 59.5065L58.2963 59.0295L58.2963 59.0295L58.1463 59.5065ZM22.2514 58.7492L22.0785 58.2801L22.0785 58.28L22.2514 58.7492ZM1.81862 77.7547L1.36404 77.5464L1.36407 77.5464L1.81862 77.7547ZM-0.93966 106.426L-1.43056 106.52L-1.43057 106.52L-0.93966 106.426ZM0.00725561 110.754L0.494382 110.641L0.494434 110.641L0.00725561 110.754ZM1.6253 119.897L1.12656 119.932L1.12655 119.932L1.6253 119.897ZM-1.90909 135.322L-1.47933 135.578L-1.47962 135.578L-1.90909 135.322ZM-3.22548 135.658L-2.98692 135.219L-2.97888 135.223L-2.971 135.228L-3.22548 135.658ZM-3.56065 134.34L-3.99102 134.086L-3.99047 134.085L-3.56065 134.34ZM-0.291037 120.031L-0.78979 120.067L-0.789805 120.066L-0.291037 120.031ZM-1.86485 111.186L-1.37772 111.074L-1.37767 111.074L-1.86485 111.186ZM-2.82478 106.79L-2.33388 106.695L-2.33387 106.695L-2.82478 106.79ZM0.0735933 76.9543L0.528176 77.1625L0.528104 77.1627L0.0735933 76.9543ZM21.586 56.9471L21.4131 56.4779L21.4131 56.4779L21.586 56.9471ZM58.7215 57.6739L58.5716 58.1509L58.7215 57.6739ZM91.8245 87.4009L91.3754 87.6206L91.3754 87.6206L91.8245 87.4009ZM94.4723 108.88L94.9661 108.959L94.9661 108.959L94.4723 108.88ZM82.89 133.31L82.5449 132.948L82.5449 132.948L82.89 133.31ZM56.2257 144.529L56.341 145.015L56.2257 144.529ZM29.67 156.196L29.3009 155.858L29.3017 155.857L29.67 156.196ZM28.151 156.759L28.0099 156.651L28.6184 155.857L28.7595 155.965L28.151 156.759ZM27.9767 156.623C27.3807 156.078 27.3423 155.151 27.8891 154.558L28.6246 155.235C28.4522 155.422 28.465 155.714 28.6517 155.885L27.9767 156.623ZM27.8886 154.558C34.7159 147.125 45.4705 144.592 55.667 142.173L55.8979 143.146C45.6205 145.584 35.2057 148.07 28.6251 155.235L27.8886 154.558ZM55.6671 142.173C65.2072 139.911 74.8837 137.602 81.22 131.557L81.9103 132.281C75.3396 138.549 65.3631 140.902 55.8978 143.146L55.6671 142.173ZM81.22 131.557C82.8995 129.955 85.2118 126.754 87.3115 122.65C89.4074 118.554 91.2714 113.597 92.0808 108.501L93.0684 108.658C92.2388 113.882 90.3332 118.94 88.2017 123.106C86.074 127.264 83.7011 130.572 81.9103 132.281L81.22 131.557ZM92.0808 108.501C93.2829 100.929 92.4542 94.1966 89.6501 88.4651L90.5484 88.0256C93.4591 93.9752 94.2964 100.923 93.0684 108.658L92.0808 108.501ZM89.6501 88.465C86.9948 83.0363 82.5156 76.9901 76.9718 71.759C71.4272 66.5272 64.8451 62.1365 57.9964 59.9834L58.2963 59.0295C65.3299 61.2406 72.0393 65.7298 77.6581 71.0317C83.2777 76.3343 87.8337 82.4755 90.5484 88.0257L89.6501 88.465ZM57.9964 59.9834C44.8605 55.8546 32.2303 55.6046 22.4243 59.2184L22.0785 58.28C32.148 54.5692 45.0143 54.8547 58.2963 59.0295L57.9964 59.9834ZM22.4244 59.2183C13.452 62.5259 6.29706 69.1813 2.27317 77.9629L1.36407 77.5464C5.49754 68.5256 12.8536 61.6807 22.0785 58.2801L22.4244 59.2183ZM2.2732 77.9629C-1.49505 86.1894 -2.44749 95.9939 -0.448753 106.331L-1.43057 106.52C-3.46247 96.0122 -2.50415 85.9911 1.36404 77.5464L2.2732 77.9629ZM-0.448756 106.331C-0.172728 107.758 0.165257 109.219 0.494382 110.641L-0.479869 110.866C-0.808262 109.447 -1.15049 107.969 -1.43056 106.52L-0.448756 106.331ZM0.494434 110.641C1.18228 113.62 1.90393 116.746 2.12406 119.862L1.12655 119.932C0.912876 116.908 0.211056 113.858 -0.479923 110.866L0.494434 110.641ZM2.12405 119.862C2.52373 125.499 1.28077 130.936 -1.47933 135.578L-2.33885 135.067C0.31162 130.609 1.51257 125.377 1.12656 119.932L2.12405 119.862ZM-1.47962 135.578C-1.89272 136.271 -2.7873 136.498 -3.47996 136.089L-2.971 135.228C-2.75237 135.357 -2.46947 135.286 -2.33855 135.066L-1.47962 135.578ZM-3.46404 136.098C-4.19107 135.703 -4.39357 134.767 -3.99102 134.086L-3.13028 134.595C-3.26854 134.829 -3.17518 135.117 -2.98692 135.219L-3.46404 136.098ZM-3.99047 134.085C-1.54243 129.966 -0.432356 125.12 -0.78979 120.067L0.207717 119.996C0.57872 125.242 -0.572908 130.292 -3.13082 134.596L-3.99047 134.085ZM-0.789805 120.066C-0.991729 117.194 -1.67757 114.219 -2.35202 111.299L-1.37767 111.074C-0.706792 113.979 -0.000677737 117.032 0.207732 119.996L-0.789805 120.066ZM-2.35197 111.299C-2.68466 109.862 -3.02947 108.366 -3.31569 106.885L-2.33387 106.695C-2.05163 108.156 -1.71092 109.634 -1.37772 111.074L-2.35197 111.299ZM-3.31568 106.885C-5.42505 95.9816 -4.42015 85.5563 -0.380916 76.7459L0.528104 77.1627C-3.41146 85.7557 -4.40983 95.9644 -2.33388 106.695L-3.31568 106.885ZM-0.38099 76.7461C3.96565 67.2565 11.706 60.0567 21.4131 56.4779L21.759 57.4162C12.3042 60.9019 4.76514 67.9124 0.528176 77.1625L-0.38099 76.7461ZM21.4131 56.4779C31.8782 52.62 45.1834 52.8952 58.8715 57.1969L58.5716 58.1509C45.0319 53.8958 31.9622 53.6548 21.759 57.4162L21.4131 56.4779ZM58.8715 57.1969C66.1632 59.4885 73.1149 64.1325 78.9342 69.6152C84.7541 75.0986 89.4686 81.4466 92.2737 87.1812L91.3754 87.6206C88.63 82.0079 83.9926 75.755 78.2484 70.343C72.5036 64.9304 65.679 60.3846 58.5716 58.1509L58.8715 57.1969ZM92.2736 87.1811C95.3617 93.492 96.2575 100.826 94.9661 108.959L93.9784 108.802C95.2435 100.835 94.3576 93.7152 91.3754 87.6206L92.2736 87.1811ZM94.9661 108.959C94.1014 114.403 92.1001 119.688 89.8579 124.049C87.6194 128.402 85.1207 131.873 83.2351 133.671L82.5449 132.948C84.3202 131.254 86.7583 127.89 88.9685 123.591C91.175 119.3 93.1343 114.117 93.9784 108.802L94.9661 108.959ZM83.2351 133.671C76.29 140.298 66.0578 142.711 56.341 145.015L56.1103 144.042C65.896 141.721 75.8327 139.352 82.5449 132.948L83.2351 133.671ZM56.341 145.015C51.3571 146.197 46.3282 147.391 41.7585 149.14C37.1917 150.888 33.1196 153.179 30.0382 156.534L29.3017 155.857C32.5267 152.346 36.7551 149.984 41.401 148.206C46.0438 146.429 51.1396 145.221 56.1103 144.042L56.341 145.015ZM30.039 156.533C29.5565 157.061 28.7739 157.151 28.1901 156.786L28.7204 155.938C28.9031 156.052 29.1504 156.023 29.3009 155.858L30.039 156.533Z" fill="#BCC7BD" mask="url(#path-3-outside-2_2314_12293)"/>
<mask id="path-5-outside-3_2314_12293" maskUnits="userSpaceOnUse" x="-13.4211" y="67.151" width="88.9432" height="94.3425" fill="black">
<rect fill="white" x="-13.4211" y="67.151" width="88.9432" height="94.3425"/>
<path d="M52.5265 87.172C52.2343 86.9893 51.6716 87.0794 51.2473 87.2249C48.2834 88.2387 45.8865 90.6223 43.7007 94.7281C42.1163 97.7019 41.1836 100.461 40.89 103.065C43.7799 101.268 46.3921 99.1366 48.6949 96.7009C51.6739 93.5465 52.9786 90.7642 52.8004 87.9452C52.7769 87.5707 52.7157 87.3525 52.6057 87.2371L52.5265 87.172ZM46.621 116.18C47.6729 116.92 48.8487 117.498 50.1329 117.835C53.0964 118.615 56.3989 118.086 59.9476 116.265C60.9325 115.76 61.7643 114.792 61.8382 114.063C61.8588 113.856 61.8355 113.577 61.4647 113.278C61.0181 112.924 60.3233 112.855 59.632 112.839C54.9054 112.714 50.2921 113.901 46.621 116.18ZM20.0904 86.6589C19.4406 86.2525 18.7129 86.0772 18.186 86.2519C17.11 86.6051 17.0538 88.2647 17.0778 88.9616C17.2406 93.5634 20.0829 98.2417 22.6352 101.875C23.1652 98.257 23.2004 94.4787 22.341 90.6429C22.0937 89.5465 21.7324 88.2988 20.9161 87.3596C20.676 87.0829 20.3906 86.8466 20.0904 86.6589ZM19.2062 149.965L19.1966 149.959C18.7494 149.673 18.6208 149.079 18.9071 148.632L18.9916 148.5C23.9752 140.709 29.5047 132.766 35.4271 124.898C37.8935 121.619 40.3851 118.473 43.5058 116.022C41.1882 113.662 39.6568 110.616 39.1444 107.859C39.0549 107.37 38.9868 106.879 38.9394 106.383C38.2085 106.763 37.4618 107.123 36.7016 107.465C32.4513 109.377 28.9811 109.57 26.0961 108.057C25.2042 107.59 24.4254 106.975 23.7314 106.287C23.0821 108.966 22.2405 111.523 21.3735 113.921C17.9045 123.517 13.2964 132.665 7.67718 141.113C7.38542 141.555 6.77018 141.672 6.34628 141.381C5.90562 141.087 5.78479 140.492 6.07915 140.05C11.6107 131.73 16.1491 122.719 19.567 113.269C20.5569 110.532 21.5129 107.583 22.1669 104.491C21.8666 104.102 21.5825 103.711 21.3133 103.331C18.3738 99.1918 15.3436 94.2561 15.1585 89.0295C15.0738 86.6399 15.9581 84.963 17.5863 84.4265C19.3637 83.8433 21.309 84.8845 22.3638 86.0994C23.4623 87.3617 23.916 88.8915 24.2145 90.222C25.285 94.9917 25.0623 99.6345 24.2279 103.995C25.0221 104.944 25.9163 105.795 26.9871 106.355C29.317 107.577 32.2365 107.366 35.9154 105.713C36.9294 105.257 37.9162 104.766 38.8775 104.241C38.9895 100.979 40.0242 97.5418 42.0045 93.825C43.5324 90.9557 46.0902 86.9582 50.6265 85.4085C52.0057 84.9362 53.2311 85.1184 53.9892 85.9057C54.5711 86.5095 54.6827 87.29 54.7171 87.8246C54.9993 92.2745 52.2122 95.7755 50.0909 98.0204C47.3841 100.885 44.2694 103.344 40.7991 105.363C40.8244 106.089 40.9043 106.803 41.034 107.509C41.5006 110.019 42.9219 112.801 45.0723 114.892L45.4898 114.622C49.4946 112.1 54.534 110.783 59.6827 110.918C60.66 110.943 61.7802 111.066 62.6695 111.782C63.463 112.42 63.8459 113.299 63.7484 114.258C63.5841 115.863 62.1177 117.309 60.825 117.974C56.8429 120.019 53.0804 120.597 49.6425 119.691C47.9012 119.233 46.3287 118.398 44.9608 117.325C41.9083 119.638 39.5098 122.667 36.9614 126.053C31.0697 133.883 25.5663 141.784 20.6082 149.538L20.5227 149.671C20.2394 150.114 19.6516 150.244 19.2062 149.965Z"/>
</mask>
<path d="M52.5265 87.172C52.2343 86.9893 51.6716 87.0794 51.2473 87.2249C48.2834 88.2387 45.8865 90.6223 43.7007 94.7281C42.1163 97.7019 41.1836 100.461 40.89 103.065C43.7799 101.268 46.3921 99.1366 48.6949 96.7009C51.6739 93.5465 52.9786 90.7642 52.8004 87.9452C52.7769 87.5707 52.7157 87.3525 52.6057 87.2371L52.5265 87.172ZM46.621 116.18C47.6729 116.92 48.8487 117.498 50.1329 117.835C53.0964 118.615 56.3989 118.086 59.9476 116.265C60.9325 115.76 61.7643 114.792 61.8382 114.063C61.8588 113.856 61.8355 113.577 61.4647 113.278C61.0181 112.924 60.3233 112.855 59.632 112.839C54.9054 112.714 50.2921 113.901 46.621 116.18ZM20.0904 86.6589C19.4406 86.2525 18.7129 86.0772 18.186 86.2519C17.11 86.6051 17.0538 88.2647 17.0778 88.9616C17.2406 93.5634 20.0829 98.2417 22.6352 101.875C23.1652 98.257 23.2004 94.4787 22.341 90.6429C22.0937 89.5465 21.7324 88.2988 20.9161 87.3596C20.676 87.0829 20.3906 86.8466 20.0904 86.6589ZM19.2062 149.965L19.1966 149.959C18.7494 149.673 18.6208 149.079 18.9071 148.632L18.9916 148.5C23.9752 140.709 29.5047 132.766 35.4271 124.898C37.8935 121.619 40.3851 118.473 43.5058 116.022C41.1882 113.662 39.6568 110.616 39.1444 107.859C39.0549 107.37 38.9868 106.879 38.9394 106.383C38.2085 106.763 37.4618 107.123 36.7016 107.465C32.4513 109.377 28.9811 109.57 26.0961 108.057C25.2042 107.59 24.4254 106.975 23.7314 106.287C23.0821 108.966 22.2405 111.523 21.3735 113.921C17.9045 123.517 13.2964 132.665 7.67718 141.113C7.38542 141.555 6.77018 141.672 6.34628 141.381C5.90562 141.087 5.78479 140.492 6.07915 140.05C11.6107 131.73 16.1491 122.719 19.567 113.269C20.5569 110.532 21.5129 107.583 22.1669 104.491C21.8666 104.102 21.5825 103.711 21.3133 103.331C18.3738 99.1918 15.3436 94.2561 15.1585 89.0295C15.0738 86.6399 15.9581 84.963 17.5863 84.4265C19.3637 83.8433 21.309 84.8845 22.3638 86.0994C23.4623 87.3617 23.916 88.8915 24.2145 90.222C25.285 94.9917 25.0623 99.6345 24.2279 103.995C25.0221 104.944 25.9163 105.795 26.9871 106.355C29.317 107.577 32.2365 107.366 35.9154 105.713C36.9294 105.257 37.9162 104.766 38.8775 104.241C38.9895 100.979 40.0242 97.5418 42.0045 93.825C43.5324 90.9557 46.0902 86.9582 50.6265 85.4085C52.0057 84.9362 53.2311 85.1184 53.9892 85.9057C54.5711 86.5095 54.6827 87.29 54.7171 87.8246C54.9993 92.2745 52.2122 95.7755 50.0909 98.0204C47.3841 100.885 44.2694 103.344 40.7991 105.363C40.8244 106.089 40.9043 106.803 41.034 107.509C41.5006 110.019 42.9219 112.801 45.0723 114.892L45.4898 114.622C49.4946 112.1 54.534 110.783 59.6827 110.918C60.66 110.943 61.7802 111.066 62.6695 111.782C63.463 112.42 63.8459 113.299 63.7484 114.258C63.5841 115.863 62.1177 117.309 60.825 117.974C56.8429 120.019 53.0804 120.597 49.6425 119.691C47.9012 119.233 46.3287 118.398 44.9608 117.325C41.9083 119.638 39.5098 122.667 36.9614 126.053C31.0697 133.883 25.5663 141.784 20.6082 149.538L20.5227 149.671C20.2394 150.114 19.6516 150.244 19.2062 149.965Z" fill="#BCC7BD"/>
<path d="M52.5265 87.172L52.7916 86.7481L52.819 86.7652L52.8439 86.7857L52.5265 87.172ZM51.2473 87.2249L51.4097 87.6979L51.4092 87.698L51.2473 87.2249ZM43.7007 94.7281L44.1421 94.9631L44.142 94.9632L43.7007 94.7281ZM40.89 103.065L41.1541 103.49L40.2775 104.035L40.3931 103.009L40.89 103.065ZM48.6949 96.7009L49.0585 97.0442L49.0582 97.0444L48.6949 96.7009ZM52.8004 87.9452L52.3013 87.9767L52.3013 87.9764L52.8004 87.9452ZM52.6057 87.2371L52.9232 86.8508L52.9467 86.8702L52.9677 86.8922L52.6057 87.2371ZM46.621 116.18L46.3333 116.589L45.715 116.154L46.3572 115.755L46.621 116.18ZM50.1329 117.835L50.2597 117.351L50.2603 117.351L50.1329 117.835ZM59.9476 116.265L60.176 116.71L60.1759 116.71L59.9476 116.265ZM61.8382 114.063L62.3357 114.112L62.3357 114.113L61.8382 114.063ZM61.4647 113.278L61.7758 112.887L61.7783 112.889L61.4647 113.278ZM59.632 112.839L59.6197 113.338L59.6189 113.338L59.632 112.839ZM18.186 86.2519L18.3434 86.7265L18.342 86.727L18.186 86.2519ZM17.0778 88.9616L16.5781 88.9793L16.5781 88.9788L17.0778 88.9616ZM22.6352 101.875L23.1299 101.947L22.9478 103.19L22.226 102.162L22.6352 101.875ZM22.341 90.6429L22.8287 90.5329L22.8289 90.5335L22.341 90.6429ZM20.9161 87.3596L20.5387 87.6876L20.5384 87.6872L20.9161 87.3596ZM19.1966 149.959L18.9315 150.383L18.927 150.38L19.1966 149.959ZM18.9071 148.632L18.4861 148.362L18.4865 148.362L18.9071 148.632ZM18.9916 148.5L19.4128 148.77L19.4123 148.771L18.9916 148.5ZM35.4271 124.898L35.8267 125.199L35.8266 125.199L35.4271 124.898ZM43.5058 116.022L43.8626 115.672L44.254 116.07L43.8146 116.415L43.5058 116.022ZM39.1444 107.859L38.6528 107.951L38.6525 107.949L39.1444 107.859ZM38.9394 106.383L38.7087 105.939L39.3666 105.597L39.4372 106.336L38.9394 106.383ZM36.7016 107.465L36.4964 107.009L36.4965 107.009L36.7016 107.465ZM26.0961 108.057L26.3279 107.614L26.3284 107.614L26.0961 108.057ZM23.7314 106.287L23.2455 106.169L23.454 105.309L24.0832 105.932L23.7314 106.287ZM21.3735 113.921L21.8437 114.091L21.8437 114.091L21.3735 113.921ZM7.67718 141.113L7.25999 140.838L7.26086 140.837L7.67718 141.113ZM6.34628 141.381L6.62339 140.964L6.62976 140.969L6.34628 141.381ZM6.07915 140.05L6.49551 140.326L6.49538 140.327L6.07915 140.05ZM19.567 113.269L20.0372 113.439L20.0372 113.439L19.567 113.269ZM22.1669 104.491L22.5631 104.186L22.7039 104.369L22.6561 104.595L22.1669 104.491ZM21.3133 103.331L21.721 103.042L21.7211 103.042L21.3133 103.331ZM15.1585 89.0295L15.6582 89.0118L15.6582 89.0118L15.1585 89.0295ZM17.5863 84.4265L17.4299 83.9516L17.4305 83.9514L17.5863 84.4265ZM22.3638 86.0994L21.9867 86.4277L21.9863 86.4272L22.3638 86.0994ZM24.2145 90.222L23.7266 90.3315L23.7266 90.3314L24.2145 90.222ZM24.2279 103.995L23.8443 104.315L23.6922 104.134L23.7368 103.901L24.2279 103.995ZM26.9871 106.355L27.2191 105.913L27.2193 105.913L26.9871 106.355ZM35.9154 105.713L36.1207 106.169L36.1203 106.17L35.9154 105.713ZM38.8775 104.241L39.3772 104.258L39.3675 104.543L39.1172 104.68L38.8775 104.241ZM42.0045 93.825L42.4458 94.06L42.4458 94.0601L42.0045 93.825ZM50.6265 85.4085L50.7885 85.8815L50.7881 85.8816L50.6265 85.4085ZM53.9892 85.9057L53.6292 86.2526L53.629 86.2525L53.9892 85.9057ZM54.7171 87.8246L55.2161 87.7925L55.2161 87.7929L54.7171 87.8246ZM50.0909 98.0204L49.7274 97.677L49.7275 97.6769L50.0909 98.0204ZM40.7991 105.363L40.2994 105.38L40.289 105.081L40.5477 104.931L40.7991 105.363ZM41.034 107.509L40.5424 107.6L40.5423 107.599L41.034 107.509ZM45.0723 114.892L45.3437 115.312L45.0093 115.528L44.7238 115.25L45.0723 114.892ZM45.4898 114.622L45.2184 114.202L45.2234 114.199L45.4898 114.622ZM59.6827 110.918L59.67 111.418L59.6696 111.418L59.6827 110.918ZM62.6695 111.782L62.356 112.171L62.3559 112.171L62.6695 111.782ZM63.7484 114.258L64.2459 114.309L64.2458 114.309L63.7484 114.258ZM60.825 117.974L61.0535 118.418L61.0535 118.418L60.825 117.974ZM49.6425 119.691L49.7698 119.208L49.77 119.208L49.6425 119.691ZM44.9608 117.325L44.6588 116.927L44.9661 116.694L45.2695 116.932L44.9608 117.325ZM36.9614 126.053L36.5619 125.753L36.5619 125.753L36.9614 126.053ZM20.6082 149.538L21.0294 149.807L21.0289 149.808L20.6082 149.538ZM20.5227 149.671L20.1017 149.402L20.102 149.401L20.5227 149.671ZM52.2614 87.5959C52.2633 87.5972 52.2445 87.5855 52.1893 87.5772C52.1356 87.5692 52.0638 87.567 51.9751 87.5738C51.7966 87.5877 51.592 87.6353 51.4097 87.6979L51.085 86.752C51.3269 86.669 51.6158 86.5987 51.8977 86.5768C52.1607 86.5564 52.5075 86.5704 52.7916 86.7481L52.2614 87.5959ZM51.4092 87.698C48.6123 88.6547 46.2967 90.9158 44.1421 94.9631L43.2594 94.4931C45.4763 90.3287 47.9545 87.8228 51.0855 86.7519L51.4092 87.698ZM44.142 94.9632C42.579 97.8969 41.6716 100.595 41.3868 103.121L40.3931 103.009C40.6955 100.327 41.6537 97.5069 43.2595 94.493L44.142 94.9632ZM40.6259 102.641C43.4799 100.865 46.0586 98.7615 48.3316 96.3574L49.0582 97.0444C46.7256 99.5116 44.08 101.67 41.1541 103.49L40.6259 102.641ZM48.3314 96.3576C51.2657 93.2505 52.4671 90.598 52.3013 87.9767L53.2994 87.9136C53.4901 90.9304 52.0821 93.8425 49.0585 97.0442L48.3314 96.3576ZM52.3013 87.9764C52.2907 87.8062 52.2726 87.6962 52.2535 87.6271C52.2343 87.5574 52.222 87.5593 52.2437 87.582L52.9677 86.8922C53.0993 87.0303 53.1727 87.199 53.2174 87.3609C53.2623 87.5233 53.2866 87.7097 53.2994 87.9139L52.3013 87.9764ZM52.2882 87.6234L52.209 87.5583L52.8439 86.7857L52.9232 86.8508L52.2882 87.6234ZM46.9087 115.771C47.9174 116.481 49.0393 117.031 50.2597 117.351L50.0061 118.318C48.6581 117.965 47.4285 117.36 46.3333 116.589L46.9087 115.771ZM50.2603 117.351C53.072 118.092 56.2463 117.603 59.7193 115.821L60.1759 116.71C56.5515 118.57 53.1207 119.139 50.0056 118.318L50.2603 117.351ZM59.7192 115.821C60.1514 115.599 60.555 115.272 60.8552 114.922C61.1648 114.561 61.3185 114.231 61.3407 114.012L62.3357 114.113C62.284 114.623 61.9848 115.142 61.6139 115.574C61.2334 116.017 60.7286 116.426 60.176 116.71L59.7192 115.821ZM61.3407 114.013C61.3467 113.953 61.3431 113.915 61.3298 113.88C61.3169 113.845 61.2794 113.771 61.1512 113.668L61.7783 112.889C62.0209 113.084 62.1804 113.299 62.2667 113.53C62.3526 113.76 62.3503 113.966 62.3357 114.112L61.3407 114.013ZM61.1537 113.67C61.0155 113.56 60.8152 113.477 60.5416 113.422C60.2691 113.367 59.9573 113.347 59.6197 113.338L59.6443 112.339C59.9979 112.347 60.3792 112.369 60.7386 112.442C61.0969 112.514 61.4673 112.642 61.7757 112.887L61.1537 113.67ZM59.6189 113.338C54.9805 113.217 50.4653 114.382 46.8847 116.605L46.3572 115.755C50.119 113.42 54.8303 112.212 59.6451 112.339L59.6189 113.338ZM19.8253 87.0828C19.234 86.713 18.6674 86.6191 18.3434 86.7265L18.0286 85.7773C18.7583 85.5354 19.6472 85.792 20.3556 86.235L19.8253 87.0828ZM18.342 86.727C18.0474 86.8237 17.8332 87.1163 17.7026 87.6066C17.5758 88.0823 17.5661 88.6138 17.5775 88.9444L16.5781 88.9788C16.5655 88.6125 16.5719 87.9659 16.7363 87.3491C16.8967 86.7472 17.2486 86.0334 18.0301 85.7769L18.342 86.727ZM17.5775 88.9439C17.7345 93.3819 20.4893 97.9504 23.0443 101.587L22.226 102.162C19.6765 98.5331 16.7467 93.7448 16.5781 88.9793L17.5775 88.9439ZM22.1404 101.802C22.6637 98.2307 22.6963 94.5157 21.853 90.7522L22.8289 90.5335C23.7045 94.4417 23.6667 98.2833 23.1299 101.947L22.1404 101.802ZM21.8532 90.7528C21.6075 89.6633 21.2666 88.5251 20.5387 87.6876L21.2934 87.0316C22.1982 88.0726 22.58 89.4297 22.8287 90.5329L21.8532 90.7528ZM20.5384 87.6872C20.3338 87.4515 20.0874 87.2467 19.8253 87.0828L20.3556 86.235C20.6937 86.4465 21.0182 86.7143 21.2938 87.032L20.5384 87.6872ZM18.9411 150.389L18.9315 150.383L19.4617 149.535L19.4713 149.541L18.9411 150.389ZM18.927 150.38C18.246 149.944 18.0516 149.041 18.4861 148.362L19.3282 148.902C19.19 149.117 19.2528 149.401 19.4662 149.538L18.927 150.38ZM18.4865 148.362L18.5709 148.23L19.4123 148.771L19.3278 148.902L18.4865 148.362ZM18.5704 148.231C23.5613 140.429 29.098 132.475 35.0276 124.598L35.8266 125.199C29.9113 133.058 24.3892 140.99 19.4128 148.77L18.5704 148.231ZM35.0275 124.598C37.4938 121.318 40.0196 118.124 43.197 115.629L43.8146 116.415C40.7507 118.821 38.2931 121.919 35.8267 125.199L35.0275 124.598ZM43.1491 116.372C40.7637 113.943 39.1839 110.808 38.6528 107.951L39.6359 107.768C40.1297 110.425 41.6127 113.381 43.8626 115.672L43.1491 116.372ZM38.6525 107.949C38.5604 107.446 38.4904 106.941 38.4417 106.431L39.4372 106.336C39.4832 106.817 39.5493 107.295 39.6362 107.769L38.6525 107.949ZM39.1702 106.827C38.43 107.212 37.6747 107.575 36.9067 107.921L36.4965 107.009C37.249 106.67 37.987 106.315 38.7087 105.939L39.1702 106.827ZM36.9068 107.92C32.5795 109.868 28.9362 110.111 25.8639 108.5L26.3284 107.614C29.026 109.029 32.3231 108.887 36.4964 107.009L36.9068 107.92ZM25.8643 108.5C24.9182 108.005 24.1 107.356 23.3796 106.643L24.0832 105.932C24.7509 106.593 25.4902 107.176 26.3279 107.614L25.8643 108.5ZM24.2173 106.405C23.5621 109.109 22.714 111.684 21.8437 114.091L20.9033 113.751C21.7671 111.362 22.6021 108.824 23.2455 106.169L24.2173 106.405ZM21.8437 114.091C18.3611 123.725 13.735 132.908 8.09351 141.39L7.26086 140.837C12.8577 132.421 17.4478 123.31 20.9033 113.751L21.8437 114.091ZM8.09437 141.389C7.64985 142.062 6.71947 142.244 6.0628 141.792L6.62976 140.969C6.82089 141.1 7.12099 141.048 7.25999 140.838L8.09437 141.389ZM6.0692 141.797C5.3992 141.351 5.21522 140.445 5.66291 139.773L6.49538 140.327C6.35436 140.539 6.41203 140.824 6.62336 140.964L6.0692 141.797ZM5.66279 139.773C11.172 131.487 15.6924 122.512 19.0968 113.099L20.0372 113.439C16.6058 122.927 12.0493 131.974 6.49551 140.326L5.66279 139.773ZM19.0968 113.099C20.0831 110.372 21.0305 107.447 21.6778 104.388L22.6561 104.595C21.9953 107.719 21.0307 110.692 20.0372 113.439L19.0968 113.099ZM21.7708 104.797C21.4651 104.4 21.1769 104.003 20.9055 103.621L21.7211 103.042C21.9881 103.418 22.2681 103.803 22.5631 104.186L21.7708 104.797ZM20.9056 103.621C17.9669 99.4824 14.8498 94.4376 14.6588 89.0472L15.6582 89.0118C15.8375 94.0746 18.7807 98.9012 21.721 103.042L20.9056 103.621ZM14.6588 89.0472C14.5701 86.5461 15.5011 84.5871 17.4299 83.9516L17.7428 84.9014C16.4151 85.3389 15.5774 86.7337 15.6582 89.0118L14.6588 89.0472ZM17.4305 83.9514C18.4589 83.614 19.5138 83.7539 20.4332 84.125C21.351 84.4955 22.1651 85.1079 22.7414 85.7716L21.9863 86.4272C21.5077 85.876 20.8218 85.3603 20.0588 85.0523C19.2975 84.745 18.4911 84.6558 17.7422 84.9016L17.4305 83.9514ZM22.741 85.7712C23.9248 87.1314 24.3999 88.7643 24.7024 90.1126L23.7266 90.3314C23.4321 89.0187 22.9999 87.592 21.9867 86.4277L22.741 85.7712ZM24.7023 90.1125C25.7917 94.966 25.5626 99.6805 24.719 104.089L23.7368 103.901C24.5621 99.5885 24.7784 95.0174 23.7266 90.3315L24.7023 90.1125ZM24.6115 103.674C25.3842 104.598 26.2292 105.394 27.2191 105.913L26.7551 106.798C25.6034 106.195 24.66 105.291 23.8443 104.315L24.6115 103.674ZM27.2193 105.913C29.3533 107.032 32.0953 106.881 35.7106 105.257L36.1203 106.17C32.3776 107.851 29.2807 108.123 26.7549 106.798L27.2193 105.913ZM35.7102 105.258C36.7125 104.806 37.6878 104.321 38.6379 103.802L39.1172 104.68C38.1447 105.211 37.1464 105.708 36.1207 106.169L35.7102 105.258ZM38.3778 104.224C38.493 100.867 39.5574 97.3547 41.5632 93.5899L42.4458 94.0601C40.4911 97.7289 39.4859 101.092 39.3772 104.258L38.3778 104.224ZM41.5632 93.5899C43.0988 90.7062 45.734 86.5515 50.4648 84.9354L50.7881 85.8816C46.4464 87.3649 43.966 91.2053 42.4458 94.06L41.5632 93.5899ZM50.4645 84.9355C51.9554 84.4249 53.4106 84.584 54.3494 85.5589L53.629 86.2525C53.0516 85.6528 52.056 85.4475 50.7885 85.8815L50.4645 84.9355ZM54.3492 85.5587C55.0606 86.2969 55.1801 87.233 55.2161 87.7925L54.2181 87.8567C54.1853 87.347 54.0816 86.7221 53.6292 86.2526L54.3492 85.5587ZM55.2161 87.7929C55.5127 92.4706 52.5839 96.1101 50.4543 98.3638L49.7275 97.6769C51.8405 95.4408 54.4858 92.0784 54.2181 87.8562L55.2161 87.7929ZM50.4543 98.3637C47.7138 101.264 44.5612 103.753 41.0505 105.795L40.5477 104.931C43.9776 102.935 47.0543 100.506 49.7274 97.677L50.4543 98.3637ZM41.2988 105.345C41.3233 106.047 41.4003 106.736 41.5258 107.418L40.5423 107.599C40.4082 106.871 40.3256 106.132 40.2994 105.38L41.2988 105.345ZM41.5256 107.417C41.9731 109.825 43.3439 112.514 45.4209 114.533L44.7238 115.25C42.4999 113.088 41.0281 110.213 40.5424 107.6L41.5256 107.417ZM44.801 114.472L45.2184 114.202L45.7612 115.042L45.3437 115.312L44.801 114.472ZM45.2234 114.199C49.3189 111.62 54.4573 110.281 59.6957 110.418L59.6696 111.418C54.6108 111.285 49.6702 112.581 45.7562 115.045L45.2234 114.199ZM59.6954 110.418C60.6871 110.443 61.9558 110.565 62.9831 111.392L62.3559 112.171C61.6046 111.566 60.6328 111.442 59.67 111.418L59.6954 110.418ZM62.9829 111.392C63.8993 112.13 64.3616 113.17 64.2459 114.309L63.251 114.207C63.3302 113.428 63.0266 112.711 62.356 112.171L62.9829 111.392ZM64.2458 114.309C64.1501 115.244 63.681 116.099 63.0908 116.793C62.4987 117.489 61.7568 118.057 61.0535 118.418L60.5965 117.529C61.1859 117.226 61.8236 116.739 62.329 116.145C62.8362 115.548 63.1824 114.877 63.251 114.207L64.2458 114.309ZM61.0535 118.418C56.9912 120.505 53.101 121.12 49.5151 120.175L49.77 119.208C53.0598 120.075 56.6947 119.533 60.5966 117.529L61.0535 118.418ZM49.5153 120.175C47.7005 119.697 46.0673 118.829 44.6522 117.719L45.2695 116.932C46.5901 117.968 48.1019 118.769 49.7698 119.208L49.5153 120.175ZM45.2628 117.724C42.2723 119.99 39.9108 122.966 37.3609 126.354L36.5619 125.753C39.1089 122.369 41.5443 119.287 44.6588 116.927L45.2628 117.724ZM37.3609 126.354C31.4763 134.174 25.9802 142.065 21.0294 149.807L20.187 149.269C25.1523 141.504 30.6631 133.592 36.5619 125.753L37.3609 126.354ZM21.0289 149.808L20.9435 149.941L20.102 149.401L20.1875 149.268L21.0289 149.808ZM20.9438 149.941C20.5115 150.616 19.6172 150.812 18.9411 150.389L19.4713 149.541C19.6861 149.675 19.9672 149.612 20.1017 149.402L20.9438 149.941Z" fill="#BCC7BD" mask="url(#path-5-outside-3_2314_12293)"/>
<mask id="path-7-outside-4_2314_12293" maskUnits="userSpaceOnUse" x="107.399" y="93.1554" width="20.246" height="18.3404" fill="black">
<rect fill="white" x="107.399" y="93.1554" width="20.246" height="18.3404"/>
<path d="M109.592 102.673C109.296 102.489 109.113 102.15 109.145 101.779C109.187 101.261 109.634 100.872 110.154 100.901L123.82 101.648C125.074 101.717 125.545 102.291 125.721 102.763C125.852 103.121 125.796 103.506 125.569 103.794C125.019 104.496 124.985 104.54 109.99 102.814L109.592 102.673Z"/>
</mask>
<path d="M109.592 102.673C109.296 102.489 109.113 102.15 109.145 101.779C109.187 101.261 109.634 100.872 110.154 100.901L123.82 101.648C125.074 101.717 125.545 102.291 125.721 102.763C125.852 103.121 125.796 103.506 125.569 103.794C125.019 104.496 124.985 104.54 109.99 102.814L109.592 102.673Z" fill="#BCC7BD"/>
<path d="M109.145 101.779L109.643 101.819L109.643 101.822L109.145 101.779ZM110.154 100.901L110.126 101.401L110.125 101.401L110.154 100.901ZM123.82 101.648L123.847 101.148L123.847 101.148L123.82 101.648ZM125.721 102.763L126.189 102.589L126.19 102.591L125.721 102.763ZM125.569 103.794L125.175 103.486L125.176 103.485L125.569 103.794ZM109.99 102.814L109.933 103.311L109.877 103.304L109.824 103.285L109.99 102.814ZM109.327 103.097C108.878 102.817 108.598 102.301 108.647 101.736L109.643 101.822C109.628 101.998 109.714 102.16 109.857 102.249L109.327 103.097ZM108.647 101.738C108.71 100.949 109.393 100.358 110.182 100.402L110.125 101.401C109.876 101.386 109.663 101.573 109.643 101.819L108.647 101.738ZM110.181 100.402L123.847 101.148L123.792 102.147L110.126 101.401L110.181 100.402ZM123.847 101.148C124.547 101.187 125.075 101.37 125.465 101.647C125.856 101.926 126.073 102.275 126.189 102.589L125.252 102.938C125.193 102.779 125.087 102.606 124.884 102.462C124.681 102.316 124.346 102.177 123.792 102.147L123.847 101.148ZM126.19 102.591C126.379 103.103 126.302 103.672 125.962 104.104L125.176 103.485C125.291 103.34 125.326 103.139 125.252 102.936L126.19 102.591ZM125.963 104.103C125.9 104.183 125.803 104.31 125.665 104.418C125.517 104.535 125.343 104.614 125.128 104.666C124.732 104.762 124.137 104.772 123.166 104.714C121.197 104.596 117.422 104.173 109.933 103.311L110.047 102.317C117.554 103.181 121.292 103.599 123.226 103.716C124.207 103.774 124.661 103.75 124.894 103.694C124.994 103.67 125.031 103.645 125.048 103.631C125.076 103.61 125.101 103.581 125.175 103.486L125.963 104.103ZM109.824 103.285L109.426 103.145L109.758 102.202L110.156 102.342L109.824 103.285Z" fill="#BCC7BD" mask="url(#path-7-outside-4_2314_12293)"/>
<mask id="path-9-outside-5_2314_12293" maskUnits="userSpaceOnUse" x="49.4657" y="25.8886" width="17.4926" height="19.7158" fill="black">
<rect fill="white" x="49.4657" y="25.8886" width="17.4926" height="19.7158"/>
<path d="M56.6188 43.5961C56.3106 43.4033 56.125 43.043 56.1745 42.6585L57.9514 28.7862C58.0186 28.2596 58.5 27.8877 59.0256 27.9565C59.5505 28.0227 59.9251 28.5035 59.8578 29.0301L58.0809 42.9024C58.0137 43.429 57.5323 43.8009 57.0057 43.7337L56.6188 43.5961Z"/>
</mask>
<path d="M56.6188 43.5961C56.3106 43.4033 56.125 43.043 56.1745 42.6585L57.9514 28.7862C58.0186 28.2596 58.5 27.8877 59.0256 27.9565C59.5505 28.0227 59.9251 28.5035 59.8578 29.0301L58.0809 42.9024C58.0137 43.429 57.5323 43.8009 57.0057 43.7337L56.6188 43.5961Z" fill="#BCC7BD"/>
<path d="M56.1745 42.6585L56.6704 42.7221L56.6704 42.7223L56.1745 42.6585ZM57.9514 28.7862L58.4474 28.8495L58.4473 28.8497L57.9514 28.7862ZM59.0256 27.9565L58.963 28.4526L58.9606 28.4523L59.0256 27.9565ZM59.8578 29.0301L60.3538 29.0934L60.3538 29.0936L59.8578 29.0301ZM58.0809 42.9024L57.5849 42.8391L57.585 42.8389L58.0809 42.9024ZM57.0057 43.7337L56.9424 44.2297L56.889 44.2228L56.8382 44.2048L57.0057 43.7337ZM56.3536 44.02C55.8865 43.7279 55.6032 43.1805 55.6785 42.5948L56.6704 42.7223C56.6468 42.9054 56.7347 43.0788 56.8839 43.1721L56.3536 44.02ZM55.6785 42.595L57.4554 28.7227L58.4473 28.8497L56.6704 42.7221L55.6785 42.595ZM57.4554 28.7229C57.5576 27.9227 58.2896 27.3559 59.0905 27.4608L58.9606 28.4523C58.7104 28.4195 58.4797 28.5966 58.4474 28.8495L57.4554 28.7229ZM59.0881 27.4605C59.8864 27.5611 60.4562 28.2917 60.3538 29.0934L59.3619 28.9668C59.394 28.7154 59.2147 28.4843 58.963 28.4526L59.0881 27.4605ZM60.3538 29.0936L58.5769 42.9659L57.585 42.8389L59.3619 28.9666L60.3538 29.0936ZM58.5769 42.9657C58.4747 43.7665 57.7426 44.3318 56.9424 44.2297L57.0691 43.2377C57.322 43.27 57.5527 43.0914 57.5849 42.8391L58.5769 42.9657ZM56.8382 44.2048L56.4512 44.0671L56.7863 43.125L57.1733 43.2626L56.8382 44.2048Z" fill="#BCC7BD" mask="url(#path-9-outside-5_2314_12293)"/>
<mask id="path-11-outside-6_2314_12293" maskUnits="userSpaceOnUse" x="-5.90543" y="33.1717" width="18.9729" height="15.4793" fill="black">
<rect fill="white" x="-5.90543" y="33.1717" width="18.9729" height="15.4793"/>
<path d="M8.2247 46.7642L8.07503 46.6483L-1.68867 37.4459C-1.94491 37.2057 -2.71862 36.4753 -2.44987 35.5484C-2.34018 35.1705 -2.05207 34.8909 -1.67737 34.8032C-0.895821 34.619 -0.460811 34.5201 9.44079 45.2992C9.791 45.6803 9.77627 46.2686 9.40907 46.632C9.08601 46.9497 8.59511 46.9958 8.2247 46.7642Z"/>
</mask>
<path d="M8.2247 46.7642L8.07503 46.6483L-1.68867 37.4459C-1.94491 37.2057 -2.71862 36.4753 -2.44987 35.5484C-2.34018 35.1705 -2.05207 34.8909 -1.67737 34.8032C-0.895821 34.619 -0.460811 34.5201 9.44079 45.2992C9.791 45.6803 9.77627 46.2686 9.40907 46.632C9.08601 46.9497 8.59511 46.9958 8.2247 46.7642Z" fill="#BCC7BD"/>
<path d="M8.07503 46.6483L7.769 47.0437L7.74978 47.0289L7.73209 47.0122L8.07503 46.6483ZM-1.68867 37.4459L-1.34671 37.0811L-1.34573 37.0821L-1.68867 37.4459ZM-2.44987 35.5484L-2.9301 35.4091L-2.93005 35.409L-2.44987 35.5484ZM-1.67737 34.8032L-1.56265 35.2899L-1.56339 35.2901L-1.67737 34.8032ZM9.44079 45.2992L9.0726 45.6374L9.07256 45.6374L9.44079 45.2992ZM9.40907 46.632L9.76078 46.9874L9.75965 46.9885L9.40907 46.632ZM7.91867 47.1596L7.769 47.0437L8.38105 46.2529L8.53072 46.3688L7.91867 47.1596ZM7.73209 47.0122L-2.03161 37.8098L-1.34573 37.0821L8.41797 46.2845L7.73209 47.0122ZM-2.03063 37.8107C-2.1609 37.6886 -2.46625 37.4034 -2.69789 37.0068C-2.93297 36.6044 -3.11488 36.0465 -2.9301 35.4091L-1.96965 35.6876C-2.05361 35.9772 -1.98304 36.248 -1.83439 36.5025C-1.6823 36.7629 -1.47268 36.963 -1.34671 37.0811L-2.03063 37.8107ZM-2.93005 35.409C-2.77197 34.8645 -2.34869 34.4469 -1.79134 34.3164L-1.56339 35.2901C-1.75545 35.335 -1.90839 35.4766 -1.9697 35.6878L-2.93005 35.409ZM-1.79208 34.3166C-1.70011 34.2949 -1.55228 34.258 -1.37798 34.2592C-1.1944 34.2605 -1.00788 34.302 -0.802904 34.3914C-0.417414 34.5596 0.0710166 34.9157 0.796159 35.5683C2.26119 36.8867 4.86165 39.5751 9.80901 44.9609L9.07256 45.6374C4.11832 40.2441 1.55049 37.5925 0.127222 36.3116C-0.591781 35.6646 -0.977492 35.4063 -1.2028 35.308C-1.30322 35.2642 -1.35626 35.2594 -1.38475 35.2592C-1.42251 35.2589 -1.45923 35.2655 -1.56265 35.2899L-1.79208 34.3166ZM9.80897 44.9609C10.3414 45.5403 10.3188 46.4351 9.76078 46.9874L9.05736 46.2766C9.23369 46.1021 9.2406 45.8203 9.0726 45.6374L9.80897 44.9609ZM9.75965 46.9885C9.26982 47.4702 8.52393 47.541 7.95957 47.1881L8.48982 46.3402C8.6663 46.4506 8.90219 46.4292 9.0585 46.2755L9.75965 46.9885Z" fill="#BCC7BD" mask="url(#path-11-outside-6_2314_12293)"/>
<path d="M90.6861 64.909L90.6657 64.8962L90.6481 64.8798L90.3816 64.631L90.3645 64.615L90.3507 64.5961C89.9558 64.0576 90.0745 63.3003 90.612 62.9061L90.6123 62.9059L101.074 55.2557L101.074 55.2554C101.614 54.8624 102.369 54.9795 102.765 55.518L102.765 55.5186C103.16 56.0591 103.043 56.8168 102.502 57.2103L92.0428 64.858C92.0427 64.8581 92.0425 64.8582 92.0424 64.8584C91.6306 65.1619 91.0918 65.1627 90.6861 64.909Z" fill="#BCC7BD" stroke="#BCC7BD" stroke-width="0.5"/>
<path d="M99.3838 151.301L99.3642 151.288L99.3473 151.273L99.0891 151.036L99.0722 151.02L99.0585 151.002L90.5104 139.662C90.5103 139.662 90.5103 139.662 90.5102 139.662C90.1067 139.129 90.2126 138.369 90.7469 137.967C91.2813 137.565 92.0394 137.673 92.4423 138.204L92.4427 138.205L100.991 149.546L100.991 149.546C101.393 150.08 101.288 150.839 100.753 151.242L100.753 151.242C100.34 151.552 99.7957 151.558 99.3838 151.301Z" fill="#BCC7BD" stroke="#BCC7BD" stroke-width="0.5"/>
<mask id="path-15-outside-7_2314_12293" maskUnits="userSpaceOnUse" x="-2.55244" y="144.809" width="11.2825" height="11.2825" fill="black">
<rect fill="white" x="-2.55244" y="144.809" width="11.2825" height="11.2825"/>
<path d="M6.73371 147.926L6.53744 147.937C3.83366 149.093 1.22721 150.615 -1.21218 152.465L-1.33091 152.972L-0.895553 153.059C1.49804 151.245 4.05604 149.749 6.71004 148.616L6.92884 148.146L6.73371 147.926Z"/>
</mask>
<path d="M6.73371 147.926L6.53744 147.937C3.83366 149.093 1.22721 150.615 -1.21218 152.465L-1.33091 152.972L-0.895553 153.059C1.49804 151.245 4.05604 149.749 6.71004 148.616L6.92884 148.146L6.73371 147.926Z" fill="#BCC7BD"/>
<path d="M6.53744 147.937L6.50938 147.438L6.42163 147.443L6.34082 147.477L6.53744 147.937ZM-1.21218 152.465L-1.51428 152.067L-1.65792 152.176L-1.69902 152.351L-1.21218 152.465ZM-1.33091 152.972L-1.81775 152.858L-1.93547 153.361L-1.42909 153.463L-1.33091 152.972ZM-0.895553 153.059L-0.993729 153.55L-0.772954 153.594L-0.593519 153.458L-0.895553 153.059ZM6.71004 148.616L6.90635 149.075L7.08242 149L7.16327 148.827L6.71004 148.616ZM6.92884 148.146L7.38206 148.357L7.52065 148.06L7.30287 147.814L6.92884 148.146ZM6.70566 147.427L6.50938 147.438L6.5655 148.436L6.76177 148.425L6.70566 147.427ZM6.34082 147.477C3.59812 148.65 0.956411 150.193 -1.51428 152.067L-0.910081 152.864C1.49802 151.038 4.0692 149.536 6.73406 148.397L6.34082 147.477ZM-1.69902 152.351L-1.81775 152.858L-0.844078 153.086L-0.725343 152.579L-1.69902 152.351ZM-1.42909 153.463L-0.993729 153.55L-0.797376 152.569L-1.23274 152.482L-1.42909 153.463ZM-0.593519 153.458C1.76905 151.667 4.29174 150.192 6.90635 149.075L6.51374 148.156C3.82034 149.305 1.22703 150.823 -1.19759 152.661L-0.593519 153.458ZM7.16327 148.827L7.38206 148.357L6.47561 147.935L6.25682 148.404L7.16327 148.827ZM7.30287 147.814L7.10775 147.594L6.35968 148.258L6.5548 148.478L7.30287 147.814Z" fill="#BCC7BD" mask="url(#path-15-outside-7_2314_12293)"/>
<mask id="path-17-outside-8_2314_12293" maskUnits="userSpaceOnUse" x="-5.20869" y="141.746" width="11.2825" height="11.2825" fill="black">
<rect fill="white" x="-5.20869" y="141.746" width="11.2825" height="11.2825"/>
<path d="M4.07746 144.863L3.88119 144.875C1.17741 146.031 -1.42904 147.553 -3.86843 149.403L-3.98716 149.91L-3.5518 149.997C-1.15821 148.183 1.39979 146.686 4.05379 145.553L4.27259 145.083L4.07746 144.863Z"/>
</mask>
<path d="M4.07746 144.863L3.88119 144.875C1.17741 146.031 -1.42904 147.553 -3.86843 149.403L-3.98716 149.91L-3.5518 149.997C-1.15821 148.183 1.39979 146.686 4.05379 145.553L4.27259 145.083L4.07746 144.863Z" fill="#BCC7BD"/>
<path d="M3.88119 144.875L3.85313 144.375L3.76538 144.38L3.68457 144.415L3.88119 144.875ZM-3.86843 149.403L-4.17053 149.004L-4.31417 149.113L-4.35527 149.289L-3.86843 149.403ZM-3.98716 149.91L-4.474 149.796L-4.59172 150.299L-4.08534 150.4L-3.98716 149.91ZM-3.5518 149.997L-3.64998 150.487L-3.4292 150.531L-3.24977 150.395L-3.5518 149.997ZM4.05379 145.553L4.2501 146.013L4.42617 145.938L4.50702 145.764L4.05379 145.553ZM4.27259 145.083L4.72581 145.295L4.8644 144.997L4.64662 144.752L4.27259 145.083ZM4.04941 144.364L3.85313 144.375L3.90925 145.374L4.10552 145.363L4.04941 144.364ZM3.68457 144.415C0.941869 145.588 -1.69984 147.131 -4.17053 149.004L-3.56633 149.801C-1.15823 147.975 1.41295 146.474 4.07781 145.334L3.68457 144.415ZM-4.35527 149.289L-4.474 149.796L-3.50033 150.024L-3.38159 149.517L-4.35527 149.289ZM-4.08534 150.4L-3.64998 150.487L-3.45363 149.507L-3.88899 149.42L-4.08534 150.4ZM-3.24977 150.395C-0.887202 148.605 1.63549 147.129 4.2501 146.013L3.85749 145.093C1.16409 146.243 -1.42922 147.761 -3.85384 149.599L-3.24977 150.395ZM4.50702 145.764L4.72581 145.295L3.81936 144.872L3.60057 145.342L4.50702 145.764ZM4.64662 144.752L4.4515 144.532L3.70343 145.195L3.89855 145.415L4.64662 144.752Z" fill="#BCC7BD" mask="url(#path-17-outside-8_2314_12293)"/>
<mask id="path-19-outside-9_2314_12293" maskUnits="userSpaceOnUse" x="-4.97724" y="145.137" width="18.1496" height="19.4588" fill="black">
<rect fill="white" x="-4.97724" y="145.137" width="18.1496" height="19.4588"/>
<path d="M11.7864 149.943L11.6087 149.964C6.44772 152.745 1.33363 155.897 -3.59243 159.33L-3.71171 159.75L-3.36489 159.845C1.54317 156.425 6.63971 153.284 11.7801 150.514L11.939 150.108L11.7864 149.943Z"/>
</mask>
<path d="M11.7864 149.943L11.6087 149.964C6.44772 152.745 1.33363 155.897 -3.59243 159.33L-3.71171 159.75L-3.36489 159.845C1.54317 156.425 6.63971 153.284 11.7801 150.514L11.939 150.108L11.7864 149.943Z" fill="#BCC7BD"/>
<path d="M11.6087 149.964L11.5498 149.468L11.4553 149.479L11.3715 149.524L11.6087 149.964ZM-3.59243 159.33L-3.87831 158.92L-4.02467 159.022L-4.07341 159.193L-3.59243 159.33ZM-3.71171 159.75L-4.19269 159.613L-4.33038 160.098L-3.84449 160.232L-3.71171 159.75ZM-3.36489 159.845L-3.49767 160.328L-3.27148 160.39L-3.079 160.256L-3.36489 159.845ZM11.7801 150.514L12.0173 150.954L12.1788 150.867L12.2457 150.696L11.7801 150.514ZM11.939 150.108L12.4046 150.29L12.519 149.997L12.3054 149.767L11.939 150.108ZM11.7276 149.447L11.5498 149.468L11.6675 150.461L11.8453 150.44L11.7276 149.447ZM11.3715 149.524C6.1933 152.314 1.06297 155.476 -3.87831 158.92L-3.30655 159.74C1.60428 156.318 6.70214 153.176 11.8458 150.405L11.3715 149.524ZM-4.07341 159.193L-4.19269 159.613L-3.23074 159.887L-3.11145 159.467L-4.07341 159.193ZM-3.84449 160.232L-3.49767 160.328L-3.23212 159.363L-3.57894 159.268L-3.84449 160.232ZM-3.079 160.256C1.81383 156.846 6.89414 153.715 12.0173 150.954L11.5429 150.074C6.38528 152.853 1.27251 156.004 -3.65079 159.435L-3.079 160.256ZM12.2457 150.696L12.4046 150.29L11.4733 149.925L11.3145 150.332L12.2457 150.696ZM12.3054 149.767L12.1528 149.603L11.42 150.284L11.5726 150.448L12.3054 149.767Z" fill="#BCC7BD" mask="url(#path-19-outside-9_2314_12293)"/>
<mask id="path-21-outside-10_2314_12293" maskUnits="userSpaceOnUse" x="-4.85112" y="146.91" width="24.1182" height="24.7727" fill="black">
<rect fill="white" x="-4.85112" y="146.91" width="24.1182" height="24.7727"/>
<path d="M17.6589 153.145L17.4651 153.165C10.4696 156.93 3.42824 160.881 -3.46391 164.912L-3.57907 165.289L-3.2269 165.396C3.66117 161.368 10.6968 157.419 17.6861 153.66L17.812 153.284L17.6589 153.145Z"/>
</mask>
<path d="M17.6589 153.145L17.4651 153.165C10.4696 156.93 3.42824 160.881 -3.46391 164.912L-3.57907 165.289L-3.2269 165.396C3.66117 161.368 10.6968 157.419 17.6861 153.66L17.812 153.284L17.6589 153.145Z" fill="#BCC7BD"/>
<path d="M17.4651 153.165L17.4122 152.668L17.3146 152.679L17.2282 152.725L17.4651 153.165ZM-3.46391 164.912L-3.71637 164.481L-3.88503 164.579L-3.94211 164.766L-3.46391 164.912ZM-3.57907 165.289L-4.05726 165.143L-4.20349 165.622L-3.72457 165.767L-3.57907 165.289ZM-3.2269 165.396L-3.3724 165.875L-3.16321 165.938L-2.97446 165.828L-3.2269 165.396ZM17.6861 153.66L17.9229 154.1L18.0972 154.006L18.1601 153.819L17.6861 153.66ZM17.812 153.284L18.286 153.443L18.3896 153.134L18.1487 152.915L17.812 153.284ZM17.6059 152.647L17.4122 152.668L17.5181 153.662L17.7118 153.642L17.6059 152.647ZM17.2282 152.725C10.2275 156.492 3.18094 160.446 -3.71637 164.481L-3.21146 165.344C3.67555 161.315 10.7117 157.367 17.702 153.606L17.2282 152.725ZM-3.94211 164.766L-4.05726 165.143L-3.10087 165.435L-2.98572 165.058L-3.94211 164.766ZM-3.72457 165.767L-3.3724 165.875L-3.0814 164.918L-3.43357 164.811L-3.72457 165.767ZM-2.97446 165.828C3.90848 161.802 10.9389 157.857 17.9229 154.1L17.4492 153.219C10.4547 156.982 3.41385 160.933 -3.47933 164.965L-2.97446 165.828ZM18.1601 153.819L18.286 153.443L17.3379 153.125L17.212 153.501L18.1601 153.819ZM18.1487 152.915L17.9957 152.775L17.3221 153.514L17.4752 153.654L18.1487 152.915Z" fill="#BCC7BD" mask="url(#path-21-outside-10_2314_12293)"/>
<mask id="path-23-outside-11_2314_12293" maskUnits="userSpaceOnUse" x="-1.05689" y="148.668" width="26.3259" height="26.3259" fill="black">
<rect fill="white" x="-1.05689" y="148.668" width="26.3259" height="26.3259"/>
<path d="M23.5186 155.457L23.3245 155.479L0.208408 168.038L0.0827001 168.413L0.431768 168.53L23.5464 155.97L23.6717 155.596L23.5186 155.457Z"/>
</mask>
<path d="M23.5186 155.457L23.3245 155.479L0.208408 168.038L0.0827001 168.413L0.431768 168.53L23.5464 155.97L23.6717 155.596L23.5186 155.457Z" fill="#BCC7BD"/>
<path d="M23.3245 155.479L23.2684 154.982L23.1715 154.993L23.0858 155.039L23.3245 155.479ZM0.208408 168.038L-0.0302903 167.598L-0.203122 167.692L-0.265653 167.879L0.208408 168.038ZM0.0827001 168.413L-0.39136 168.254L-0.550338 168.728L-0.0761896 168.887L0.0827001 168.413ZM0.431768 168.53L0.272878 169.004L0.479243 169.073L0.670484 168.969L0.431768 168.53ZM23.5464 155.97L23.7851 156.41L23.9579 156.316L24.0204 156.129L23.5464 155.97ZM23.6717 155.596L24.1458 155.755L24.2493 155.446L24.0085 155.227L23.6717 155.596ZM23.4626 154.96L23.2684 154.982L23.3805 155.976L23.5746 155.954L23.4626 154.96ZM23.0858 155.039L-0.0302903 167.598L0.447105 168.477L23.5632 155.918L23.0858 155.039ZM-0.265653 167.879L-0.39136 168.254L0.55676 168.572L0.682467 168.197L-0.265653 167.879ZM-0.0761896 168.887L0.272878 169.004L0.590658 168.056L0.24159 167.939L-0.0761896 168.887ZM0.670484 168.969L23.7851 156.41L23.3076 155.531L0.193052 168.09L0.670484 168.969ZM24.0204 156.129L24.1458 155.755L23.1976 155.437L23.0723 155.811L24.0204 156.129ZM24.0085 155.227L23.8554 155.087L23.1818 155.826L23.3349 155.966L24.0085 155.227Z" fill="#BCC7BD" mask="url(#path-23-outside-11_2314_12293)"/>
<mask id="path-25-outside-12_2314_12293" maskUnits="userSpaceOnUse" x="-1.25737" y="154.504" width="26.0264" height="25.3718" fill="black">
<rect fill="white" x="-1.25737" y="154.504" width="26.0264" height="25.3718"/>
<path d="M22.8833 161.25L22.604 161.279C15.3012 165.298 7.75293 169.069 0.168306 172.489L-0.0147354 172.966L0.459806 173.149C8.0625 169.721 15.6294 165.941 22.9481 161.913L23.0913 161.421L22.8833 161.25Z"/>
</mask>
<path d="M22.8833 161.25L22.604 161.279C15.3012 165.298 7.75293 169.069 0.168306 172.489L-0.0147354 172.966L0.459806 173.149C8.0625 169.721 15.6294 165.941 22.9481 161.913L23.0913 161.421L22.8833 161.25Z" fill="#BCC7BD"/>
<path d="M22.604 161.279L22.5537 160.781L22.4522 160.791L22.3629 160.841L22.604 161.279ZM0.168306 172.489L-0.0372385 172.033L-0.224831 172.118L-0.298529 172.31L0.168306 172.489ZM-0.0147354 172.966L-0.48157 172.787L-0.660288 173.253L-0.194713 173.433L-0.0147354 172.966ZM0.459806 173.149L0.279828 173.616L0.474823 173.691L0.66535 173.605L0.459806 173.149ZM22.9481 161.913L23.1892 162.351L23.3703 162.251L23.4281 162.052L22.9481 161.913ZM23.0913 161.421L23.5713 161.561L23.6637 161.244L23.4086 161.035L23.0913 161.421ZM22.833 160.753L22.5537 160.781L22.6543 161.776L22.9336 161.748L22.833 160.753ZM22.3629 160.841C15.0717 164.854 7.53533 168.618 -0.0372385 172.033L0.373851 172.945C7.97052 169.519 15.5306 165.743 22.8451 161.717L22.3629 160.841ZM-0.298529 172.31L-0.48157 172.787L0.4521 173.145L0.635141 172.668L-0.298529 172.31ZM-0.194713 173.433L0.279828 173.616L0.639784 172.683L0.165243 172.5L-0.194713 173.433ZM0.66535 173.605C8.28012 170.171 15.8588 166.385 23.1892 162.351L22.707 161.475C15.3999 165.496 7.84489 169.271 0.254261 172.694L0.66535 173.605ZM23.4281 162.052L23.5713 161.561L22.6113 161.281L22.4681 161.773L23.4281 162.052ZM23.4086 161.035L23.2006 160.864L22.5661 161.637L22.774 161.808L23.4086 161.035Z" fill="#BCC7BD" mask="url(#path-25-outside-12_2314_12293)"/>
<mask id="path-27-outside-13_2314_12293" maskUnits="userSpaceOnUse" x="1.83526" y="163.028" width="20.0578" height="20.0578" fill="black">
<rect fill="white" x="1.83526" y="163.028" width="20.0578" height="20.0578"/>
<path d="M20.0797 168.299L19.6114 168.356C14.3088 171.521 8.81269 174.487 3.27813 177.162L2.98692 177.963L3.76253 178.247C9.32747 175.555 14.8532 172.575 20.1908 169.391L20.4126 168.57L20.0797 168.299Z"/>
</mask>
<path d="M20.0797 168.299L19.6114 168.356C14.3088 171.521 8.81269 174.487 3.27813 177.162L2.98692 177.963L3.76253 178.247C9.32747 175.555 14.8532 172.575 20.1908 169.391L20.4126 168.57L20.0797 168.299Z" fill="#BCC7BD"/>
<path d="M19.6114 168.356L19.5507 167.86L19.4458 167.873L19.3552 167.927L19.6114 168.356ZM3.27813 177.162L3.06053 176.712L2.87761 176.8L2.80821 176.991L3.27813 177.162ZM2.98692 177.963L2.517 177.792L2.34661 178.261L2.81501 178.433L2.98692 177.963ZM3.76253 178.247L3.59062 178.717L3.78955 178.79L3.98025 178.697L3.76253 178.247ZM20.1908 169.391L20.4469 169.821L20.6207 169.717L20.6735 169.522L20.1908 169.391ZM20.4126 168.57L20.8953 168.701L20.9798 168.387L20.7285 168.183L20.4126 168.57ZM20.019 167.803L19.5507 167.86L19.6721 168.852L20.1404 168.795L20.019 167.803ZM19.3552 167.927C14.0649 171.084 8.58167 174.043 3.06053 176.712L3.49573 177.612C9.04371 174.93 14.5527 171.957 19.8676 168.786L19.3552 167.927ZM2.80821 176.991L2.517 177.792L3.45685 178.134L3.74806 177.333L2.80821 176.991ZM2.81501 178.433L3.59062 178.717L3.93445 177.778L3.15883 177.494L2.81501 178.433ZM3.98025 178.697C9.55846 175.999 15.097 173.012 20.4469 169.821L19.9346 168.962C14.6094 172.139 9.09649 175.112 3.54481 177.797L3.98025 178.697ZM20.6735 169.522L20.8953 168.701L19.9299 168.44L19.7081 169.261L20.6735 169.522ZM20.7285 168.183L20.3956 167.911L19.7638 168.686L20.0967 168.958L20.7285 168.183Z" fill="#BCC7BD" mask="url(#path-27-outside-13_2314_12293)"/>
</svg>
