<svg width="24" height="24" viewBox="0 0 24 24" fill="none" xmlns="http://www.w3.org/2000/svg">
<path d="M11.9998 2C11.6758 2 11.4138 2.26215 11.4138 2.58594C11.4138 2.90973 11.6758 3.17187 11.9998 3.17187C16.8461 3.17187 20.8276 7.11428 20.8276 11.9606C20.8276 12.2846 21.0897 12.5465 21.4135 12.5465C21.7373 12.5465 21.9994 12.2846 21.9994 11.9606C21.9994 6.46822 17.4921 2 11.9998 2Z" fill="white"/>
<path d="M12.9998 5.68726C12.6758 5.68726 12.4138 5.9494 12.4138 6.27319C12.4138 6.59714 12.6758 6.85913 12.9998 6.85913C15.261 6.85913 17.1402 8.69933 17.1402 10.9605C17.1402 11.2845 17.4022 11.5465 17.7262 11.5465C18.0499 11.5465 18.3121 11.2845 18.3121 10.9605C18.3121 8.05267 15.9076 5.68726 12.9998 5.68726Z" fill="white"/>
<path d="M9.02662 7.3923C9.1995 7.22064 9.24803 6.96033 9.14961 6.73831L7.21434 2.34836C7.09822 2.08576 6.80983 1.94614 6.52953 2.01939L3.078 3.04706C2.70034 3.14213 2.38906 3.37955 2.20092 3.71433C1.98287 4.10282 1.94 4.59201 2.08358 5.05603C4.34295 12.3937 11.2405 19.5455 18.9422 21.9153C19.8126 22.1861 20.7309 21.7949 20.9523 20.9219L21.9795 17.4814C22.0538 17.2034 21.9148 16.9121 21.6516 16.7954L17.2635 14.8906C17.042 14.791 16.7782 14.8409 16.6066 15.0159C15.7545 15.8862 15.1178 16.5207 14.9032 16.713V16.7124C12.6275 15.2222 8.8188 11.4237 7.28651 9.09625C7.55888 8.80847 8.5449 7.86899 9.02662 7.3923Z" fill="white"/>
</svg>
