<svg width="180" height="188" viewBox="0 0 180 188" fill="none" xmlns="http://www.w3.org/2000/svg">
<path d="M103.107 143.654C82.2128 149.158 67.0937 137.236 59.4877 128.924C55.0402 134.554 50.9118 139.441 46.893 143.836C45.5697 145.284 44.1476 146.799 42.565 148.449C66.7416 173.187 99.7712 169.308 109.484 167.489L110.97 167.045C126.074 162.555 136.988 159.309 152.62 143.738C156.363 140.013 161.927 131.552 165.552 119.771C163.154 118.996 160.757 118.218 158.364 117.432L154.708 116.234C149.649 114.576 144.587 112.92 139.536 111.238C135.244 126.888 122.035 138.667 103.107 143.654ZM59.1638 126.246L59.4044 126.211C59.7212 126.203 60.0252 126.334 60.2344 126.572C67.2013 134.512 81.9675 147.025 102.566 141.598C121.163 136.699 133.992 125.041 137.76 109.617C137.831 109.329 138.019 109.084 138.278 108.94C138.537 108.794 138.847 108.768 139.128 108.862C144.537 110.666 149.954 112.439 155.37 114.213L159.026 115.413C161.746 116.304 164.47 117.188 167.196 118.069C167.745 118.246 168.051 118.827 167.888 119.38C164.167 132.048 158.338 141.047 154.121 145.246C138.107 161.193 126.979 164.502 111.576 169.084L110.037 169.541L109.93 169.567C99.9267 171.452 65.3389 175.552 40.3202 149.18C39.9273 148.768 39.9313 148.121 40.3255 147.711C42.1841 145.784 43.8177 144.05 45.3235 142.403C49.5412 137.79 53.8835 132.626 58.5977 126.617C58.743 126.432 58.9421 126.304 59.1638 126.246Z" fill="#BCC7BD"/>
<path d="M87.9035 27.375L87.8975 27.3766L87.9035 27.375ZM169.162 95.7917C169.216 78.8489 164.136 62.1852 154.059 46.2412C138.018 20.8661 109.932 17.6837 88.8111 19.6209C88.906 22.0916 88.9567 24.6234 88.966 27.3257C89.4838 33.144 89.8997 39.1076 90.2344 45.5151C95.6162 44.7395 99.97 44.6183 103.86 45.1323C108.046 45.6846 112.402 47.3149 116.808 49.9753C125.186 55.0352 131.856 62.7478 135.586 71.696C137.399 76.0482 138.357 80.6512 139.284 85.103C139.454 85.9183 139.624 86.7376 139.801 87.5552C140.386 90.2826 140.771 93.0519 140.95 95.8041C145.225 95.7274 149.55 95.78 153.742 95.8307C158.8 95.8902 164.024 95.9536 169.162 95.7917ZM87.4359 17.6319L87.6002 17.6016C109.425 15.4144 138.981 18.4099 155.857 45.1059C166.359 61.7204 171.547 79.1248 171.279 96.8332C171.271 97.3979 170.819 97.8575 170.255 97.8788C164.739 98.0864 159.135 98.0196 153.716 97.9561C149.205 97.9008 144.542 97.8449 139.968 97.9507C139.392 97.9625 138.909 97.5121 138.882 96.9352C138.747 93.962 138.356 90.9552 137.722 88.0015C137.547 87.1793 137.375 86.356 137.204 85.5367C136.254 80.9811 135.36 76.68 133.623 72.5149C130.066 63.98 123.703 56.622 115.71 51.7948C111.614 49.322 107.419 47.7463 103.578 47.2387C99.6219 46.7164 95.1166 46.8926 89.3967 47.7918C89.1011 47.8395 88.7972 47.7579 88.5618 47.5678C88.3284 47.3771 88.1858 47.0978 88.1709 46.7958C87.8262 39.9491 87.3936 33.6278 86.8442 27.4687L86.84 27.3793C86.8312 24.3192 86.7672 21.4826 86.6452 18.7045C86.6221 18.1998 86.9603 17.7572 87.4359 17.6319Z" fill="#BCC7BD"/>
<path d="M72.3908 50.2095L71.9923 49.1551C71.0748 46.7438 70.1597 44.334 69.2387 41.9258C67.0818 36.2829 64.8993 30.6489 62.7132 25.018L62.1963 25.1995C40.3791 33.0011 29.9509 50.55 25.0426 63.8969C18.4288 81.887 19.0148 99.4005 21.525 108.929C23.2017 115.293 25.327 121.274 27.8509 126.723C35.1804 123.385 42.8865 119.807 50.2646 115.868C48.9665 113.428 47.9177 111.042 47.1399 108.769C46.3868 106.573 45.6721 102.968 45.4334 100.197C45.0207 95.3337 45.1716 90.0246 45.8874 84.4222C47.3476 72.9903 51.2576 64.387 57.5074 58.8482C61.2496 55.5305 65.6433 52.9182 71.334 50.6237C71.6851 50.4838 72.0387 50.3454 72.3908 50.2095ZM63.067 22.6554C63.587 22.5185 64.1314 22.7931 64.3293 23.2992C66.6367 29.2516 68.9441 35.204 71.2238 41.1658C72.1474 43.5755 73.063 45.9873 73.9785 48.399L74.7561 50.4506C74.858 50.7147 74.8496 51.01 74.7321 51.2673C74.615 51.5266 74.4001 51.7254 74.1334 51.8259C73.4617 52.0739 72.7917 52.3281 72.1293 52.5952C66.6705 54.7963 62.4735 57.2878 58.9161 60.4404C53.0648 65.6264 49.3892 73.7864 47.9967 84.6898C47.3002 90.1448 47.1504 95.3028 47.5516 100.016C47.7762 102.636 48.4479 106.028 49.1501 108.08C49.9899 110.531 51.162 113.123 52.6368 115.784C52.7754 116.032 52.8073 116.325 52.7284 116.598C52.6489 116.869 52.4617 117.099 52.2127 117.234C44.1726 121.581 35.731 125.475 27.7752 129.094C27.2429 129.332 26.6253 129.106 26.3756 128.584C23.6008 122.763 21.2772 116.332 19.4694 109.47C16.0598 96.5282 17.4631 78.3526 23.0477 63.1638C28.1108 49.3904 38.8904 31.2769 61.4791 23.1966C61.9541 23.0284 62.466 22.8526 63.0031 22.6744L63.067 22.6554Z" fill="#BCC7BD"/>
<mask id="path-4-outside-1_2314_12234" maskUnits="userSpaceOnUse" x="54.1598" y="28.9814" width="9.77411" height="9.77411" fill="black">
<rect fill="white" x="54.1598" y="28.9814" width="9.77411" height="9.77411"/>
<path d="M55.7585 31.6324L56.0218 31.6665L62.5357 35.3598L62.6697 35.8439L62.1871 35.9753L55.6732 32.282L55.5398 31.7999L55.7585 31.6324Z"/>
</mask>
<path d="M55.7585 31.6324L56.0218 31.6665L62.5357 35.3598L62.6697 35.8439L62.1871 35.9753L55.6732 32.282L55.5398 31.7999L55.7585 31.6324Z" fill="#BCC7BD"/>
<path d="M56.0218 31.6665L56.086 31.1706L56.1832 31.1832L56.2684 31.2315L56.0218 31.6665ZM62.5357 35.3598L62.7823 34.9248L62.9624 35.0269L63.0176 35.2264L62.5357 35.3598ZM62.6697 35.8439L63.1516 35.7105L63.2854 36.1944L62.8011 36.3263L62.6697 35.8439ZM62.1871 35.9753L62.3185 36.4578L62.1197 36.5119L61.9405 36.4103L62.1871 35.9753ZM55.6732 32.282L55.4266 32.717L55.2465 32.6149L55.1913 32.4154L55.6732 32.282ZM55.5398 31.7999L55.0579 31.9333L54.9679 31.6081L55.2357 31.403L55.5398 31.7999ZM55.8226 31.1365L56.086 31.1706L55.9576 32.1623L55.6943 32.1282L55.8226 31.1365ZM56.2684 31.2315L62.7823 34.9248L62.2891 35.7947L55.7752 32.1014L56.2684 31.2315ZM63.0176 35.2264L63.1516 35.7105L62.1878 35.9772L62.0538 35.4931L63.0176 35.2264ZM62.8011 36.3263L62.3185 36.4578L62.0557 35.4929L62.5383 35.3615L62.8011 36.3263ZM61.9405 36.4103L55.4266 32.717L55.9198 31.8471L62.4337 35.5404L61.9405 36.4103ZM55.1913 32.4154L55.0579 31.9333L56.0216 31.6666L56.1551 32.1486L55.1913 32.4154ZM55.2357 31.403L55.4544 31.2354L56.0625 32.0293L55.8438 32.1969L55.2357 31.403Z" fill="#BCC7BD" mask="url(#path-4-outside-1_2314_12234)"/>
<mask id="path-6-outside-2_2314_12234" maskUnits="userSpaceOnUse" x="47.4294" y="29.9345" width="20.2605" height="18.836" fill="black">
<rect fill="white" x="47.4294" y="29.9345" width="20.2605" height="18.836"/>
<path d="M49.2367 34.8234L49.4796 34.8456C55.2161 37.5843 60.9263 40.5583 66.4504 43.6848L66.5839 44.1669L66.1019 44.3004C60.5911 41.1833 54.8956 38.2161 49.1763 35.4858L49.0086 35.0128L49.2367 34.8234Z"/>
</mask>
<path d="M49.2367 34.8234L49.4796 34.8456C55.2161 37.5843 60.9263 40.5583 66.4504 43.6848L66.5839 44.1669L66.1019 44.3004C60.5911 41.1833 54.8956 38.2161 49.1763 35.4858L49.0086 35.0128L49.2367 34.8234Z" fill="#BCC7BD"/>
<path d="M49.4796 34.8456L49.5251 34.3477L49.6143 34.3558L49.695 34.3944L49.4796 34.8456ZM66.4504 43.6848L66.6967 43.2497L66.877 43.3517L66.9323 43.5514L66.4504 43.6848ZM66.5839 44.1669L67.0658 44.0334L67.1993 44.5153L66.7173 44.6488L66.5839 44.1669ZM66.1019 44.3004L66.2353 44.7822L66.0358 44.8375L65.8557 44.7356L66.1019 44.3004ZM49.1763 35.4858L48.9609 35.9371L48.7742 35.8479L48.7051 35.653L49.1763 35.4858ZM49.0086 35.0128L48.5373 35.1799L48.4207 34.8511L48.6891 34.6282L49.0086 35.0128ZM49.2822 34.3255L49.5251 34.3477L49.4341 35.3435L49.1912 35.3213L49.2822 34.3255ZM49.695 34.3944C55.442 37.138 61.1625 40.1174 66.6967 43.2497L66.2041 44.12C60.6902 40.9992 54.9903 38.0305 49.2642 35.2968L49.695 34.3944ZM66.9323 43.5514L67.0658 44.0334L66.1021 44.3004L65.9685 43.8183L66.9323 43.5514ZM66.7173 44.6488L66.2353 44.7822L65.9685 43.8185L66.4505 43.685L66.7173 44.6488ZM65.8557 44.7356C60.3549 41.6241 54.6697 38.6623 48.9609 35.9371L49.3917 35.0346C55.1215 37.7699 60.8272 40.7424 66.348 43.8652L65.8557 44.7356ZM48.7051 35.653L48.5373 35.1799L49.4798 34.8457L49.6476 35.3187L48.7051 35.653ZM48.6891 34.6282L48.9172 34.4387L49.5561 35.2081L49.328 35.3975L48.6891 34.6282Z" fill="#BCC7BD" mask="url(#path-6-outside-2_2314_12234)"/>
<mask id="path-8-outside-3_2314_12234" maskUnits="userSpaceOnUse" x="42.4698" y="33.2782" width="24.1805" height="23.4683" fill="black">
<rect fill="white" x="42.4698" y="33.2782" width="24.1805" height="23.4683"/>
<path d="M43.6998 39.0835L43.9529 39.1117L65.1591 50.0225L65.3127 50.4993L64.836 50.6529L43.6277 39.7426L43.4761 39.2653L43.6998 39.0835Z"/>
</mask>
<path d="M43.6998 39.0835L43.9529 39.1117L65.1591 50.0225L65.3127 50.4993L64.836 50.6529L43.6277 39.7426L43.4761 39.2653L43.6998 39.0835Z" fill="#BCC7BD"/>
<path d="M43.9529 39.1117L44.0082 38.6147L44.0997 38.6249L44.1816 38.6671L43.9529 39.1117ZM65.1591 50.0225L65.3879 49.5779L65.5716 49.6725L65.635 49.8692L65.1591 50.0225ZM65.3127 50.4993L65.7886 50.346L65.9419 50.8219L65.466 50.9752L65.3127 50.4993ZM64.836 50.6529L64.9893 51.1288L64.7918 51.1925L64.6072 51.0975L64.836 50.6529ZM43.6277 39.7426L43.3989 40.1872L43.214 40.0921L43.1511 39.8939L43.6277 39.7426ZM43.4761 39.2653L42.9996 39.4166L42.8966 39.0921L43.1608 38.8773L43.4761 39.2653ZM43.755 38.5866L44.0082 38.6147L43.8976 39.6086L43.6445 39.5804L43.755 38.5866ZM44.1816 38.6671L65.3879 49.5779L64.9303 50.4671L43.7241 39.5563L44.1816 38.6671ZM65.635 49.8692L65.7886 50.346L64.8368 50.6526L64.6832 50.1758L65.635 49.8692ZM65.466 50.9752L64.9893 51.1288L64.6826 50.177L65.1594 50.0234L65.466 50.9752ZM64.6072 51.0975L43.3989 40.1872L43.8564 39.298L65.0647 50.2083L64.6072 51.0975ZM43.1511 39.8939L42.9996 39.4166L43.9527 39.114L44.1042 39.5913L43.1511 39.8939ZM43.1608 38.8773L43.3844 38.6955L44.0151 39.4715L43.7915 39.6533L43.1608 38.8773Z" fill="#BCC7BD" mask="url(#path-8-outside-3_2314_12234)"/>
<mask id="path-10-outside-4_2314_12234" maskUnits="userSpaceOnUse" x="36.4329" y="39.8173" width="22.4492" height="20.3125" fill="black">
<rect fill="white" x="36.4329" y="39.8173" width="22.4492" height="20.3125"/>
<path d="M38.0964 45.2536L38.3251 45.2709C44.8497 48.0477 51.3388 51.1398 57.6105 54.4616L57.7561 54.9404L57.2777 55.0881C51.0253 51.7741 44.556 48.6918 38.0482 45.9215L37.8609 45.4557L38.0964 45.2536Z"/>
</mask>
<path d="M38.0964 45.2536L38.3251 45.2709C44.8497 48.0477 51.3388 51.1398 57.6105 54.4616L57.7561 54.9404L57.2777 55.0881C51.0253 51.7741 44.556 48.6918 38.0482 45.9215L37.8609 45.4557L38.0964 45.2536Z" fill="#BCC7BD"/>
<path d="M38.3251 45.2709L38.3629 44.7723L38.4451 44.7786L38.5209 44.8109L38.3251 45.2709ZM57.6105 54.4616L57.8445 54.0197L58.0283 54.1171L58.0888 54.3161L57.6105 54.4616ZM57.7561 54.9404L58.2345 54.795L58.3793 55.2714L57.9035 55.4182L57.7561 54.9404ZM57.2777 55.0881L57.4251 55.5658L57.2268 55.627L57.0435 55.5298L57.2777 55.0881ZM38.0482 45.9215L37.8524 46.3815L37.6617 46.3003L37.5843 46.108L38.0482 45.9215ZM37.8609 45.4557L37.397 45.6423L37.2633 45.3098L37.5353 45.0763L37.8609 45.4557ZM38.1342 44.755L38.3629 44.7723L38.2873 45.7695L38.0586 45.7522L38.1342 44.755ZM38.5209 44.8109C45.0585 47.5931 51.5604 50.6913 57.8445 54.0197L57.3764 54.9034C51.1173 51.5882 44.6409 48.5022 38.1293 45.731L38.5209 44.8109ZM58.0888 54.3161L58.2345 54.795L57.2777 55.0859L57.1321 54.6071L58.0888 54.3161ZM57.9035 55.4182L57.4251 55.5658L57.1302 54.6103L57.6087 54.4627L57.9035 55.4182ZM57.0435 55.5298C50.8038 52.2225 44.3473 49.1464 37.8524 46.3815L38.2441 45.4614C44.7648 48.2373 51.2469 51.3256 57.5118 54.6463L57.0435 55.5298ZM37.5843 46.108L37.397 45.6423L38.3248 45.2692L38.5121 45.7349L37.5843 46.108ZM37.5353 45.0763L37.7708 44.8742L38.4221 45.633L38.1866 45.8351L37.5353 45.0763Z" fill="#BCC7BD" mask="url(#path-10-outside-4_2314_12234)"/>
<path d="M33.7457 51.6573L33.8217 51.587L33.9251 51.591L34.1319 51.599L34.1693 51.6004L34.2047 51.6128C40.7423 53.8972 47.2442 56.5298 53.5276 59.438L53.6219 59.4816L53.6575 59.5792L53.8287 60.0492L53.914 60.2831L53.6804 60.3693L53.211 60.5426L53.1136 60.5785L53.0194 60.5349C46.7706 57.6434 40.307 55.0238 33.8067 52.754L33.709 52.7199L33.664 52.6267L33.446 52.1756L33.3655 52.0089L33.5013 51.8833L33.7457 51.6573Z" fill="#BCC7BD" stroke="#BCC7BD" stroke-width="0.5"/>
<path d="M30.105 58.0072L30.1821 57.9371L30.2862 57.9425L30.4982 57.9534L30.5357 57.9554L30.5711 57.9683C36.7041 60.2106 42.862 62.6382 48.8739 65.1819L48.969 65.2221L49.008 65.3177L49.1968 65.7809L49.2912 66.0125L49.0596 66.1069L48.5945 66.2962L48.4983 66.3354L48.4027 66.2949C42.4102 63.7578 36.27 61.3392 30.1564 59.1032L30.0595 59.0677L30.0158 58.9742L29.8034 58.5194L29.7255 58.3526L29.8616 58.2287L30.105 58.0072Z" fill="#BCC7BD" stroke="#BCC7BD" stroke-width="0.5"/>
<mask id="path-14-outside-5_2314_12234" maskUnits="userSpaceOnUse" x="25.8899" y="59.6689" width="21.685" height="17.4115" fill="black">
<rect fill="white" x="25.8899" y="59.6689" width="21.685" height="17.4115"/>
<path d="M27.614 65.0892L27.8091 65.0938C33.9083 67.0085 40.0725 69.0224 46.131 71.0771L46.353 71.5272L45.9029 71.7493C39.849 69.6955 33.6899 67.6846 27.5972 65.7703L27.3657 65.3249L27.614 65.0892Z"/>
</mask>
<path d="M27.614 65.0892L27.8091 65.0938C33.9083 67.0085 40.0725 69.0224 46.131 71.0771L46.353 71.5272L45.9029 71.7493C39.849 69.6955 33.6899 67.6846 27.5972 65.7703L27.3657 65.3249L27.614 65.0892Z" fill="#BCC7BD"/>
<path d="M27.8091 65.0938L27.8209 64.5939L27.8915 64.5956L27.9589 64.6168L27.8091 65.0938ZM46.131 71.0771L46.2916 70.6036L46.4878 70.6701L46.5794 70.8559L46.131 71.0771ZM46.353 71.5272L46.8014 71.3061L47.0226 71.7545L46.5742 71.9757L46.353 71.5272ZM45.9029 71.7493L46.1241 72.1977L45.9384 72.2893L45.7423 72.2228L45.9029 71.7493ZM27.5972 65.7703L27.4474 66.2473L27.2493 66.1851L27.1536 66.0009L27.5972 65.7703ZM27.3657 65.3249L26.9221 65.5554L26.7484 65.2214L27.0215 64.9622L27.3657 65.3249ZM27.6257 64.5893L27.8209 64.5939L27.7973 65.5937L27.6022 65.5891L27.6257 64.5893ZM27.9589 64.6168C34.0618 66.5326 40.2295 68.5477 46.2916 70.6036L45.9704 71.5506C39.9154 69.4971 33.7549 67.4844 27.6594 65.5709L27.9589 64.6168ZM46.5794 70.8559L46.8014 71.3061L45.9046 71.7484L45.6826 71.2983L46.5794 70.8559ZM46.5742 71.9757L46.1241 72.1977L45.6817 71.3008L46.1318 71.0788L46.5742 71.9757ZM45.7423 72.2228C39.692 70.1702 33.5364 68.1605 27.4474 66.2473L27.7471 65.2933C33.8433 67.2087 40.006 69.2208 46.0636 71.2758L45.7423 72.2228ZM27.1536 66.0009L26.9221 65.5554L27.8094 65.0943L28.0409 65.5397L27.1536 66.0009ZM27.0215 64.9622L27.2697 64.7266L27.9582 65.4519L27.7099 65.6875L27.0215 64.9622Z" fill="#BCC7BD" mask="url(#path-14-outside-5_2314_12234)"/>
<mask id="path-16-outside-6_2314_12234" maskUnits="userSpaceOnUse" x="23.2376" y="66.7548" width="21.685" height="17.4115" fill="black">
<rect fill="white" x="23.2376" y="66.7548" width="21.685" height="17.4115"/>
<path d="M24.9616 72.1751L25.1568 72.1797C31.256 74.0944 37.4201 76.1084 43.4786 78.1631L43.7007 78.6132L43.2506 78.8352C37.1966 76.7814 31.0375 74.7705 24.9449 72.8562L24.7134 72.4108L24.9616 72.1751Z"/>
</mask>
<path d="M24.9616 72.1751L25.1568 72.1797C31.256 74.0944 37.4201 76.1084 43.4786 78.1631L43.7007 78.6132L43.2506 78.8352C37.1966 76.7814 31.0375 74.7705 24.9449 72.8562L24.7134 72.4108L24.9616 72.1751Z" fill="#BCC7BD"/>
<path d="M25.1568 72.1797L25.1685 71.6799L25.2391 71.6815L25.3065 71.7027L25.1568 72.1797ZM43.4786 78.1631L43.6392 77.6895L43.8354 77.7561L43.9271 77.9419L43.4786 78.1631ZM43.7007 78.6132L44.1491 78.392L44.3703 78.8404L43.9219 79.0616L43.7007 78.6132ZM43.2506 78.8352L43.4718 79.2836L43.2861 79.3752L43.0899 79.3087L43.2506 78.8352ZM24.9449 72.8562L24.795 73.3333L24.597 73.271L24.5012 73.0868L24.9449 72.8562ZM24.7134 72.4108L24.2697 72.6414L24.0961 72.3073L24.3691 72.0481L24.7134 72.4108ZM24.9734 71.6753L25.1685 71.6799L25.145 72.6796L24.9498 72.675L24.9734 71.6753ZM25.3065 71.7027C31.4094 73.6185 37.5772 75.6336 43.6392 77.6895L43.3181 78.6366C37.2631 76.5831 31.1025 74.5703 25.007 72.6568L25.3065 71.7027ZM43.9271 77.9419L44.1491 78.392L43.2523 78.8344L43.0302 78.3842L43.9271 77.9419ZM43.9219 79.0616L43.4718 79.2836L43.0294 78.3868L43.4795 78.1648L43.9219 79.0616ZM43.0899 79.3087C37.0396 77.2562 30.8841 75.2464 24.795 73.3333L25.0948 72.3792C31.1909 74.2946 37.3536 76.3067 43.4112 78.3617L43.0899 79.3087ZM24.5012 73.0868L24.2697 72.6414L25.157 72.1802L25.3885 72.6257L24.5012 73.0868ZM24.3691 72.0481L24.6174 71.8125L25.3058 72.5378L25.0576 72.7734L24.3691 72.0481Z" fill="#BCC7BD" mask="url(#path-16-outside-6_2314_12234)"/>
<mask id="path-18-outside-7_2314_12234" maskUnits="userSpaceOnUse" x="21.8079" y="73.5985" width="21.685" height="17.4115" fill="black">
<rect fill="white" x="21.8079" y="73.5985" width="21.685" height="17.4115"/>
<path d="M23.5319 79.0189L23.7271 79.0235C29.8263 80.9382 35.9905 82.9521 42.049 85.0068L42.271 85.4569L41.8209 85.6789C35.767 83.6252 29.6078 81.6142 23.5152 79.7L23.2837 79.2545L23.5319 79.0189Z"/>
</mask>
<path d="M23.5319 79.0189L23.7271 79.0235C29.8263 80.9382 35.9905 82.9521 42.049 85.0068L42.271 85.4569L41.8209 85.6789C35.767 83.6252 29.6078 81.6142 23.5152 79.7L23.2837 79.2545L23.5319 79.0189Z" fill="#BCC7BD"/>
<path d="M23.7271 79.0235L23.7389 78.5236L23.8095 78.5253L23.8768 78.5464L23.7271 79.0235ZM42.049 85.0068L42.2095 84.5333L42.4057 84.5998L42.4974 84.7856L42.049 85.0068ZM42.271 85.4569L42.7194 85.2357L42.9406 85.6841L42.4922 85.9053L42.271 85.4569ZM41.8209 85.6789L42.0421 86.1274L41.8564 86.219L41.6603 86.1524L41.8209 85.6789ZM23.5152 79.7L23.3653 80.177L23.1673 80.1148L23.0716 79.9306L23.5152 79.7ZM23.2837 79.2545L22.84 79.4851L22.6664 79.1511L22.9395 78.8919L23.2837 79.2545ZM23.5437 78.519L23.7389 78.5236L23.7153 79.5234L23.5202 79.5188L23.5437 78.519ZM23.8768 78.5464C29.9797 80.4623 36.1475 82.4774 42.2095 84.5333L41.8884 85.4803C35.8334 83.4268 29.6728 81.4141 23.5773 79.5005L23.8768 78.5464ZM42.4974 84.7856L42.7194 85.2357L41.8226 85.6781L41.6005 85.228L42.4974 84.7856ZM42.4922 85.9053L42.0421 86.1274L41.5997 85.2305L42.0498 85.0085L42.4922 85.9053ZM41.6603 86.1524C35.6099 84.0999 29.4544 82.0901 23.3653 80.177L23.6651 79.223C29.7613 81.1384 35.924 83.1505 41.9815 85.2055L41.6603 86.1524ZM23.0716 79.9306L22.84 79.4851L23.7273 79.0239L23.9589 79.4694L23.0716 79.9306ZM22.9395 78.8919L23.1877 78.6563L23.8762 79.3815L23.6279 79.6172L22.9395 78.8919Z" fill="#BCC7BD" mask="url(#path-18-outside-7_2314_12234)"/>
<mask id="path-20-outside-8_2314_12234" maskUnits="userSpaceOnUse" x="20.3782" y="80.4423" width="21.685" height="17.4115" fill="black">
<rect fill="white" x="20.3782" y="80.4423" width="21.685" height="17.4115"/>
<path d="M22.1022 85.8626L22.2974 85.8672C28.3966 87.7819 34.5608 89.7959 40.6193 91.8506L40.8413 92.3007L40.3912 92.5227C34.3373 90.4689 28.1781 88.458 22.0855 86.5437L21.854 86.0983L22.1022 85.8626Z"/>
</mask>
<path d="M22.1022 85.8626L22.2974 85.8672C28.3966 87.7819 34.5608 89.7959 40.6193 91.8506L40.8413 92.3007L40.3912 92.5227C34.3373 90.4689 28.1781 88.458 22.0855 86.5437L21.854 86.0983L22.1022 85.8626Z" fill="#BCC7BD"/>
<path d="M22.2974 85.8672L22.3092 85.3674L22.3798 85.369L22.4471 85.3902L22.2974 85.8672ZM40.6193 91.8506L40.7799 91.377L40.976 91.4436L41.0677 91.6294L40.6193 91.8506ZM40.8413 92.3007L41.2897 92.0795L41.5109 92.5279L41.0625 92.7491L40.8413 92.3007ZM40.3912 92.5227L40.6124 92.9711L40.4267 93.0627L40.2306 92.9962L40.3912 92.5227ZM22.0855 86.5437L21.9357 87.0208L21.7376 86.9585L21.6419 86.7743L22.0855 86.5437ZM21.854 86.0983L21.4103 86.3289L21.2367 85.9948L21.5098 85.7356L21.854 86.0983ZM22.114 85.3628L22.3092 85.3674L22.2856 86.3671L22.0905 86.3625L22.114 85.3628ZM22.4471 85.3902C28.55 87.306 34.7178 89.3211 40.7799 91.377L40.4587 92.3241C34.4037 90.2706 28.2431 88.2578 22.1476 86.3443L22.4471 85.3902ZM41.0677 91.6294L41.2897 92.0795L40.3929 92.5219L40.1709 92.0717L41.0677 91.6294ZM41.0625 92.7491L40.6124 92.9711L40.17 92.0743L40.6201 91.8523L41.0625 92.7491ZM40.2306 92.9962C34.1803 90.9437 28.0247 88.9339 21.9357 87.0208L22.2354 86.0667C28.3316 87.9821 34.4943 89.9942 40.5518 92.0492L40.2306 92.9962ZM21.6419 86.7743L21.4103 86.3289L22.2976 85.8677L22.5292 86.3132L21.6419 86.7743ZM21.5098 85.7356L21.758 85.5L22.4465 86.2253L22.1982 86.4609L21.5098 85.7356Z" fill="#BCC7BD" mask="url(#path-20-outside-8_2314_12234)"/>
<mask id="path-22-outside-9_2314_12234" maskUnits="userSpaceOnUse" x="20.8587" y="88.3954" width="21.685" height="17.4115" fill="black">
<rect fill="white" x="20.8587" y="88.3954" width="21.685" height="17.4115"/>
<path d="M22.5827 93.8158L22.7779 93.8204C28.8771 95.735 35.0412 97.749 41.0997 99.8037L41.3218 100.254L40.8717 100.476C34.8177 98.4221 28.6586 96.4111 22.566 94.4969L22.3345 94.0514L22.5827 93.8158Z"/>
</mask>
<path d="M22.5827 93.8158L22.7779 93.8204C28.8771 95.735 35.0412 97.749 41.0997 99.8037L41.3218 100.254L40.8717 100.476C34.8177 98.4221 28.6586 96.4111 22.566 94.4969L22.3345 94.0514L22.5827 93.8158Z" fill="#BCC7BD"/>
<path d="M22.7779 93.8204L22.7896 93.3205L22.8602 93.3222L22.9276 93.3433L22.7779 93.8204ZM41.0997 99.8037L41.2603 99.3302L41.4565 99.3967L41.5482 99.5825L41.0997 99.8037ZM41.3218 100.254L41.7702 100.033L41.9914 100.481L41.543 100.702L41.3218 100.254ZM40.8717 100.476L41.0929 100.924L40.9071 101.016L40.711 100.949L40.8717 100.476ZM22.566 94.4969L22.4161 94.9739L22.2181 94.9117L22.1223 94.7275L22.566 94.4969ZM22.3345 94.0514L21.8908 94.282L21.7172 93.948L21.9902 93.6888L22.3345 94.0514ZM22.5945 93.3159L22.7896 93.3205L22.7661 94.3202L22.5709 94.3156L22.5945 93.3159ZM22.9276 93.3433C29.0305 95.2592 35.1983 97.2743 41.2603 99.3302L40.9392 100.277C34.8842 98.2237 28.7236 96.2109 22.6281 94.2974L22.9276 93.3433ZM41.5482 99.5825L41.7702 100.033L40.8734 100.475L40.6513 100.025L41.5482 99.5825ZM41.543 100.702L41.0929 100.924L40.6505 100.027L41.1006 99.8054L41.543 100.702ZM40.711 100.949C34.6607 98.8968 28.5052 96.887 22.4161 94.9739L22.7159 94.0199C28.812 95.9352 34.9747 97.9473 41.0323 100.002L40.711 100.949ZM22.1223 94.7275L21.8908 94.282L22.7781 93.8208L23.0096 94.2663L22.1223 94.7275ZM21.9902 93.6888L22.2385 93.4531L22.9269 94.1784L22.6787 94.4141L21.9902 93.6888Z" fill="#BCC7BD" mask="url(#path-22-outside-9_2314_12234)"/>
<mask id="path-24-outside-10_2314_12234" maskUnits="userSpaceOnUse" x="21.3392" y="96.3564" width="21.685" height="17.4115" fill="black">
<rect fill="white" x="21.3392" y="96.3564" width="21.685" height="17.4115"/>
<path d="M23.0632 101.777L23.2583 101.781C29.3575 103.696 35.5217 105.71 41.5802 107.765L41.8022 108.215L41.3521 108.437C35.2982 106.383 29.1391 104.372 23.0465 102.458L22.8149 102.012L23.0632 101.777Z"/>
</mask>
<path d="M23.0632 101.777L23.2583 101.781C29.3575 103.696 35.5217 105.71 41.5802 107.765L41.8022 108.215L41.3521 108.437C35.2982 106.383 29.1391 104.372 23.0465 102.458L22.8149 102.012L23.0632 101.777Z" fill="#BCC7BD"/>
<path d="M23.2583 101.781L23.2701 101.281L23.3407 101.283L23.4081 101.304L23.2583 101.781ZM41.5802 107.765L41.7408 107.291L41.937 107.358L42.0286 107.543L41.5802 107.765ZM41.8022 108.215L42.2507 107.994L42.4718 108.442L42.0234 108.663L41.8022 108.215ZM41.3521 108.437L41.5733 108.885L41.3876 108.977L41.1915 108.91L41.3521 108.437ZM23.0465 102.458L22.8966 102.935L22.6985 102.873L22.6028 102.688L23.0465 102.458ZM22.8149 102.012L22.3713 102.243L22.1976 101.909L22.4707 101.65L22.8149 102.012ZM23.0749 101.277L23.2701 101.281L23.2466 102.281L23.0514 102.277L23.0749 101.277ZM23.4081 101.304C29.511 103.22 35.6788 105.235 41.7408 107.291L41.4196 108.238C35.3646 106.185 29.2041 104.172 23.1086 102.258L23.4081 101.304ZM42.0286 107.543L42.2507 107.994L41.3538 108.436L41.1318 107.986L42.0286 107.543ZM42.0234 108.663L41.5733 108.885L41.1309 107.988L41.581 107.766L42.0234 108.663ZM41.1915 108.91C35.1412 106.858 28.9857 104.848 22.8966 102.935L23.1963 101.981C29.2925 103.896 35.4552 105.908 41.5128 107.963L41.1915 108.91ZM22.6028 102.688L22.3713 102.243L23.2586 101.782L23.4901 102.227L22.6028 102.688ZM22.4707 101.65L22.719 101.414L23.4074 102.139L23.1592 102.375L22.4707 101.65Z" fill="#BCC7BD" mask="url(#path-24-outside-10_2314_12234)"/>
<mask id="path-26-outside-11_2314_12234" maskUnits="userSpaceOnUse" x="21.8157" y="104.309" width="21.685" height="17.4115" fill="black">
<rect fill="white" x="21.8157" y="104.309" width="21.685" height="17.4115"/>
<path d="M23.5397 109.73L23.7349 109.734C29.8341 111.649 35.9983 113.663 42.0568 115.718L42.2788 116.168L41.8287 116.39C35.7748 114.336 29.6156 112.325 23.523 110.411L23.2915 109.965L23.5397 109.73Z"/>
</mask>
<path d="M23.5397 109.73L23.7349 109.734C29.8341 111.649 35.9983 113.663 42.0568 115.718L42.2788 116.168L41.8287 116.39C35.7748 114.336 29.6156 112.325 23.523 110.411L23.2915 109.965L23.5397 109.73Z" fill="#BCC7BD"/>
<path d="M23.7349 109.734L23.7467 109.235L23.8173 109.236L23.8846 109.257L23.7349 109.734ZM42.0568 115.718L42.2174 115.244L42.4135 115.311L42.5052 115.497L42.0568 115.718ZM42.2788 116.168L42.7272 115.947L42.9484 116.395L42.5 116.616L42.2788 116.168ZM41.8287 116.39L42.0499 116.838L41.8642 116.93L41.6681 116.863L41.8287 116.39ZM23.523 110.411L23.3732 110.888L23.1751 110.826L23.0794 110.642L23.523 110.411ZM23.2915 109.965L22.8478 110.196L22.6742 109.862L22.9473 109.603L23.2915 109.965ZM23.5515 109.23L23.7467 109.235L23.7231 110.234L23.528 110.23L23.5515 109.23ZM23.8846 109.257C29.9875 111.173 36.1553 113.188 42.2174 115.244L41.8962 116.191C35.8412 114.138 29.6806 112.125 23.5851 110.211L23.8846 109.257ZM42.5052 115.497L42.7272 115.947L41.8304 116.389L41.6084 115.939L42.5052 115.497ZM42.5 116.616L42.0499 116.838L41.6075 115.941L42.0576 115.719L42.5 116.616ZM41.6681 116.863C35.6178 114.811 29.4622 112.801 23.3732 110.888L23.6729 109.934C29.7691 111.849 35.9318 113.861 41.9893 115.916L41.6681 116.863ZM23.0794 110.642L22.8478 110.196L23.7351 109.735L23.9667 110.18L23.0794 110.642ZM22.9473 109.603L23.1955 109.367L23.884 110.092L23.6357 110.328L22.9473 109.603Z" fill="#BCC7BD" mask="url(#path-26-outside-11_2314_12234)"/>
<path d="M61.7259 24.1422C63.6767 23.6283 65.8046 25.5289 65.2914 27.5973C65.6773 28.0969 65.8806 28.7459 65.7509 29.3577C65.7048 29.9517 65.3976 30.4464 64.9588 30.8098C64.2111 28.8797 63.4634 26.9495 62.7137 25.0199L62.1968 25.2014C59.4688 26.1765 56.9207 27.3026 54.5374 28.5554C55.1771 28.1369 55.8036 27.7003 56.4599 27.3119C57.4682 26.7381 58.5637 26.3158 59.524 25.6577C60.2338 25.1043 59.8896 25.1971 60.9935 24.4623C61.2297 24.3118 61.476 24.2081 61.7259 24.1422ZM52.2364 29.834C37.067 38.7205 29.1352 52.7712 25.0431 63.8988C24.875 64.3568 24.7123 64.8113 24.5543 65.2668C24.8335 64.2406 25.1401 63.2202 25.4908 62.2118C27.1342 57.5289 29.4898 53.1196 32.0059 48.8533C35.8295 42.0077 42.1497 35.0754 46.9065 32.083C48.5562 31.0558 50.4208 30.4848 52.2364 29.834ZM17.6733 96.3702C17.7604 96.4227 17.8451 96.4823 17.9308 96.5459C18.9448 97.2206 19.3005 98.5299 19.0264 99.6818C18.9892 99.9006 18.9388 100.119 18.8626 100.328C18.8758 102.178 20.1477 107.218 21.2111 110.772C21.8496 112.778 22.4132 114.427 23.0265 115.953L23.066 115.441C21.5815 111.123 20.5721 106.645 20.1937 102.101C20.1197 101.32 20.0654 100.542 20.0282 99.7627C20.324 103.29 20.8571 106.393 21.5255 108.931C23.2022 115.295 25.3275 121.276 27.8514 126.725C29.3371 126.049 30.8373 125.363 32.3495 124.665C32.0056 125.413 31.3714 126.024 30.5632 126.237C30.5189 126.249 30.4741 126.258 30.4292 126.268C30.6276 127.323 29.8515 128.28 28.8943 128.532C28.4247 128.656 27.91 128.608 27.4473 128.316L27.2187 128.144C26.9674 128.344 26.6848 128.498 26.3796 128.591C26.3791 128.589 26.3766 128.588 26.3761 128.586C23.6013 122.765 21.2777 116.334 19.4699 109.472C18.4707 105.679 17.8848 101.435 17.6963 96.9482C17.6883 96.7542 17.6808 96.5622 17.6733 96.3702Z" fill="#BCC7BD"/>
<mask id="path-29-outside-12_2314_12234" maskUnits="userSpaceOnUse" x="53.9983" y="29.5391" width="6.82106" height="5.39657" fill="black">
<rect fill="white" x="53.9983" y="29.5391" width="6.82106" height="5.39657"/>
<path d="M55.7591 31.6379L56.0225 31.672L58.6929 33.1861C58.4548 33.3048 58.2016 33.4319 57.9339 33.5692L55.6738 32.2875L55.5404 31.8054L55.7591 31.6379Z"/>
</mask>
<path d="M55.7591 31.6379L56.0225 31.672L58.6929 33.1861C58.4548 33.3048 58.2016 33.4319 57.9339 33.5692L55.6738 32.2875L55.5404 31.8054L55.7591 31.6379Z" fill="#BCC7BD"/>
<path d="M56.0225 31.672L56.0866 31.1761L56.1838 31.1887L56.2691 31.237L56.0225 31.672ZM58.6929 33.1861L58.9395 32.7511L59.7565 33.2143L58.9161 33.6335L58.6929 33.1861ZM57.9339 33.5692L58.1621 34.0141L57.922 34.1373L57.6872 34.0042L57.9339 33.5692ZM55.6738 32.2875L55.4272 32.7224L55.2472 32.6203L55.192 32.4209L55.6738 32.2875ZM55.5404 31.8054L55.0585 31.9388L54.9685 31.6136L55.2364 31.4085L55.5404 31.8054ZM55.8233 31.142L56.0866 31.1761L55.9583 32.1678L55.695 32.1338L55.8233 31.142ZM56.2691 31.237L58.9395 32.7511L58.4463 33.621L55.7759 32.1069L56.2691 31.237ZM58.9161 33.6335C58.6787 33.7519 58.4274 33.878 58.1621 34.0141L57.7057 33.1244C57.9758 32.9858 58.2309 32.8578 58.4697 32.7387L58.9161 33.6335ZM57.6872 34.0042L55.4272 32.7224L55.9205 31.8526L58.1805 33.1343L57.6872 34.0042ZM55.192 32.4209L55.0585 31.9388L56.0223 31.6721L56.1557 32.1541L55.192 32.4209ZM55.2364 31.4085L55.4551 31.2409L56.0632 32.0348L55.8445 32.2024L55.2364 31.4085Z" fill="#BCC7BD" mask="url(#path-29-outside-12_2314_12234)"/>
<path d="M49.2362 34.8255L49.4792 34.8477C50.6601 35.4116 51.8371 35.9851 53.0136 36.5652C52.7942 36.7222 52.5767 36.8786 52.3613 37.0345C51.3013 36.512 50.2388 35.9967 49.1759 35.4879L49.0081 35.0149L49.2362 34.8255Z" fill="#BCC7BD"/>
<path d="M43.6985 39.0899L43.9516 39.1181L47.612 41.0029C47.4301 41.1715 47.2487 41.3421 47.0644 41.5178L43.6264 39.749L43.4749 39.2717L43.6985 39.0899Z" fill="#BCC7BD"/>
<path d="M38.0968 45.2542L38.3255 45.2716C39.5025 45.7718 40.6782 46.2832 41.852 46.8037C41.6835 46.9903 41.5185 47.1739 41.356 47.3589C40.2555 46.8708 39.153 46.3919 38.0486 45.9221L37.8613 45.4564L38.0968 45.2542Z" fill="#BCC7BD"/>
<path d="M33.9158 51.8361L34.1226 51.8441C35.1224 52.1949 36.1212 52.5503 37.1186 52.9168C36.9882 53.1171 36.8563 53.32 36.7254 53.5269C35.7808 53.1809 34.8344 52.8441 33.8895 52.5133L33.6715 52.0621L33.9158 51.8361Z" fill="#BCC7BD"/>
<path d="M30.2723 58.1956L30.4843 58.2066C31.4975 58.5754 32.5101 58.9509 33.5218 59.3309C33.4209 59.545 33.3206 59.761 33.2217 59.9746C32.2272 59.603 31.2337 59.2354 30.2414 58.8718L30.029 58.417L30.2723 58.1956Z" fill="#BCC7BD"/>
<path d="M27.6109 65.0907L27.8061 65.0953C28.8723 65.4286 29.9377 65.7665 31.0061 66.1079C30.9422 66.3316 30.8819 66.5608 30.8195 66.7906C29.7426 66.4493 28.6676 66.1076 27.5942 65.7718L27.3627 65.3263L27.6109 65.0907Z" fill="#BCC7BD"/>
<path d="M86.7305 20.9297C86.7609 21.8958 86.7858 22.8741 86.8045 23.8692C86.2688 22.9974 86.1505 21.8777 86.7305 20.9297Z" fill="#DEDEDE"/>
<path d="M91.1088 18.6024C91.5602 18.4834 92.0184 18.3821 92.4779 18.302C96.9879 17.5061 101.577 17.5513 106.112 18.0915C108.19 18.2746 110.296 18.1939 112.362 18.5181C114.845 18.8856 117.256 19.619 119.692 20.2034C120.657 20.4405 121.156 21.2273 121.223 22.0545C110.196 18.9337 98.737 18.7134 88.813 19.6231C88.8838 21.4708 88.9308 23.3507 88.9536 25.3102C88.0488 25.1972 87.2712 24.6263 86.8062 23.8673C86.7875 22.8722 86.7626 21.8939 86.7322 20.9278C86.8039 20.8076 86.8894 20.6902 86.9845 20.5768C87.3245 19.9937 87.9616 19.7289 88.5658 19.4943C89.3896 19.1285 90.2402 18.8312 91.1088 18.6024Z" fill="#BCC7BD"/>
</svg>
