<svg width="48" height="48" viewBox="0 0 48 48" fill="none" xmlns="http://www.w3.org/2000/svg">
<rect width="48" height="48" rx="8" fill="#FFFBF2"/>
<path d="M22.9446 18.0856C22.3399 18.1175 22.1102 18.2088 21.8899 18.5098C21.3883 19.1848 21.7493 20.1517 22.5696 20.3295L22.8274 20.3843L22.8227 20.7765C22.8227 20.9908 22.8086 21.2508 22.7899 21.3512L22.7571 21.5336L22.1946 21.6704C20.4602 22.0991 19.2368 22.7604 18.1352 23.8642C16.7055 25.3008 15.8899 27.0932 15.8102 28.9996C15.7774 29.7658 15.8196 29.9574 16.1102 30.2675C16.4758 30.6598 15.8477 30.6324 23.9758 30.6324C31.8508 30.6324 31.4336 30.6461 31.7899 30.3588C32.1555 30.0669 32.268 29.5424 32.1602 28.6256C31.9305 26.6782 31.0961 25.0591 29.6289 23.6908C28.5743 22.7057 27.2805 22.0262 25.8602 21.7069C25.5508 21.6385 25.3118 21.5609 25.2743 21.5199C25.2321 21.4652 25.218 21.2919 25.2274 20.9224L25.2414 20.4025L25.4899 20.3341C25.7993 20.252 26.1602 19.9464 26.268 19.6819C26.493 19.1392 26.2399 18.4322 25.7336 18.1814C25.5836 18.1084 25.4243 18.0947 24.5102 18.0765C23.9336 18.0628 23.2305 18.0674 22.9446 18.0856ZM26.5774 24.1789C27.768 24.8995 28.7196 26.0169 29.1743 27.2483C29.2914 27.5767 29.4836 28.3885 29.4836 28.58C29.4836 28.7169 29.2352 28.9449 29.0852 28.9449C28.9024 28.9449 28.7055 28.7305 28.6633 28.4843C28.5368 27.6952 28.1571 26.7876 27.7071 26.2084C27.3789 25.7843 26.7602 25.2187 26.3196 24.9451C25.7289 24.5756 25.6868 24.5346 25.6868 24.3567C25.6868 24.2473 25.7243 24.1606 25.8039 24.0876C25.9774 23.9143 26.1696 23.9371 26.5774 24.1789Z" fill="#F7B103"/>
<path d="M16.1716 31.4481C15.2857 31.4755 15.1919 31.5029 14.9482 31.7583C14.7607 31.9498 14.6623 32.1687 14.6388 32.4515C14.5919 32.9578 14.8216 33.3819 15.2482 33.578L15.4919 33.6875H24.0373C32.4045 33.6875 32.5873 33.6875 32.7607 33.6008C33.1732 33.3956 33.3982 32.976 33.3654 32.4652C33.3466 32.1003 33.2107 31.8632 32.906 31.6579C32.517 31.398 33.0045 31.4117 24.6795 31.4162C20.4513 31.4208 16.6216 31.4345 16.1716 31.4481Z" fill="#F7B103"/>
</svg>
