<svg width="40" height="40" viewBox="0 0 40 40" fill="none" xmlns="http://www.w3.org/2000/svg">
<rect width="40" height="40" rx="4" fill="#FFFBF2"/>
<path d="M24.1353 12.6412H15.2659C15.2368 12.8382 15.145 13.0204 15.0043 13.1611C14.8636 13.3019 14.6812 13.3936 14.4844 13.4227V25.6694C14.6815 25.698 14.8641 25.7895 15.005 25.9303C15.1458 26.0712 15.2373 26.2538 15.2659 26.4509H24.1353C24.1642 26.2537 24.2562 26.0711 24.3973 25.9302C24.5385 25.7894 24.7213 25.698 24.9186 25.6694V13.4227C24.7214 13.3937 24.539 13.3021 24.398 13.1614C24.2568 13.0205 24.1648 12.8383 24.1353 12.6412L24.1353 12.6412ZM15.5009 14.409V14.4091C15.5011 14.175 15.5943 13.9505 15.7599 13.785C15.9254 13.6194 16.1499 13.5262 16.384 13.526H23.0174H23.0173C23.2516 13.526 23.4761 13.619 23.6418 13.7845C23.8074 13.9502 23.9004 14.1748 23.9004 14.4091V16.6398C23.9001 16.8737 23.807 17.0982 23.6414 17.2638C23.4759 17.4293 23.2514 17.5225 23.0173 17.5227H16.3842C16.1501 17.5222 15.9259 17.4289 15.7603 17.2635C15.5949 17.0981 15.5016 16.8737 15.5011 16.6398L15.5009 14.409ZM24.0122 24.197L15.3904 24.1971C15.3166 24.1971 15.2569 24.1373 15.2569 24.0635C15.2569 23.9898 15.3166 23.9301 15.3904 23.9301H15.8123C15.8462 22.9448 16.2526 22.0092 16.9494 21.312C17.6463 20.6148 18.5818 20.208 19.567 20.1737V19.7482H19.2163C19.1425 19.7482 19.0827 19.6883 19.0827 19.6146C19.0827 19.5408 19.1425 19.4811 19.2163 19.4811H20.1866H20.1865C20.2602 19.4811 20.32 19.5408 20.32 19.6146C20.32 19.6883 20.2602 19.7482 20.1865 19.7482H19.834V20.1737C20.8195 20.2076 21.7553 20.6142 22.4527 21.3114C23.1499 22.0087 23.5565 22.9445 23.5904 23.9301H24.0124C24.0861 23.9301 24.1458 23.9898 24.1458 24.0635C24.1458 24.1373 24.0861 24.1971 24.0124 24.1971L24.0122 24.197ZM24.135 12.6412H15.2659C15.2368 12.8382 15.145 13.0204 15.0043 13.1611C14.8636 13.302 14.6813 13.3936 14.4844 13.4227V25.6695C14.6816 25.698 14.8642 25.7895 15.005 25.9304C15.1459 26.0712 15.2374 26.2539 15.266 26.451H24.1353C24.1643 26.2537 24.2562 26.0711 24.3974 25.9302C24.5386 25.7894 24.7214 25.698 24.9186 25.6695V13.4227C24.7215 13.3938 24.539 13.3021 24.398 13.1614C24.2569 13.0206 24.1648 12.8383 24.1353 12.6412L24.135 12.6412ZM15.5006 14.409L15.5007 14.4091C15.501 14.175 15.5942 13.9506 15.7597 13.785C15.9253 13.6194 16.1497 13.5263 16.3839 13.526H23.0173H23.0171C23.2514 13.526 23.476 13.619 23.6417 13.7846C23.8072 13.9503 23.9003 14.1748 23.9003 14.4091V16.6398C23.9 16.8738 23.8068 17.0982 23.6413 17.2638C23.4757 17.4293 23.2513 17.5225 23.0171 17.5228H16.384C16.1499 17.5222 15.9258 17.4289 15.7602 17.2635C15.5948 17.0981 15.5015 16.8738 15.5009 16.6398L15.5006 14.409ZM24.0119 24.197L15.3901 24.1972C15.3163 24.1972 15.2566 24.1373 15.2566 24.0636C15.2566 23.9898 15.3163 23.9301 15.3901 23.9301H15.812C15.8459 22.9448 16.2523 22.0092 16.9491 21.312C17.6461 20.6148 18.5815 20.208 19.5667 20.1737V19.7482H19.216C19.1423 19.7482 19.0824 19.6884 19.0824 19.6146C19.0824 19.5409 19.1423 19.4812 19.216 19.4812H20.1863H20.1862C20.2599 19.4812 20.3198 19.5409 20.3198 19.6146C20.3198 19.6884 20.2599 19.7482 20.1862 19.7482H19.8337V20.1737C20.8192 20.2076 21.755 20.6143 22.4524 21.3115C23.1496 22.0087 23.5562 22.9445 23.5901 23.9301H24.0121C24.0858 23.9301 24.1455 23.9898 24.1455 24.0636C24.1455 24.1373 24.0858 24.1972 24.0121 24.1972L24.0119 24.197ZM24.1347 12.6413H15.2656C15.2366 12.8382 15.1448 13.0205 15.0041 13.1612C14.8634 13.302 14.681 13.3937 14.4842 13.4228V25.6695C14.6813 25.6981 14.8639 25.7896 15.0048 25.9304C15.1456 26.0712 15.2371 26.2539 15.2657 26.451H24.1351C24.164 26.2538 24.2559 26.0711 24.3971 25.9303C24.5383 25.7894 24.7211 25.6981 24.9183 25.6695V13.4228C24.7212 13.3938 24.5387 13.3021 24.3977 13.1614C24.2566 13.0206 24.1645 12.8384 24.135 12.6413L24.1347 12.6413ZM15.5003 14.409L15.5006 14.4092C15.5008 14.175 15.594 13.9506 15.7596 13.785C15.9251 13.6194 16.1495 13.5263 16.3837 13.526H23.0171H23.017C23.2513 13.526 23.4758 13.6191 23.6415 13.7846C23.8071 13.9503 23.9001 14.1749 23.9001 14.4091V16.6398C23.8998 16.8738 23.8067 17.0982 23.6411 17.2638C23.4755 17.4294 23.2511 17.5225 23.017 17.5228H16.3839C16.1498 17.5223 15.9256 17.429 15.76 17.2635C15.5946 17.0981 15.5013 16.8738 15.5008 16.6398L15.5003 14.409ZM24.0116 24.1971L15.3901 24.1972C15.3164 24.1972 15.2567 24.1374 15.2567 24.0636C15.2567 23.9898 15.3164 23.9301 15.3901 23.9301H15.8121C15.846 22.9448 16.2524 22.0093 16.9492 21.3121C17.6461 20.6148 18.5816 20.2081 19.5667 20.1738V19.7482H19.2161C19.1423 19.7482 19.0825 19.6884 19.0825 19.6147C19.0825 19.5409 19.1423 19.4812 19.2161 19.4812H20.1864H20.1862C20.26 19.4812 20.3198 19.5409 20.3198 19.6147C20.3198 19.6884 20.26 19.7482 20.1862 19.7482H19.8338V20.1738C20.8192 20.2076 21.7551 20.6143 22.4524 21.3115C23.1497 22.0087 23.5563 22.9446 23.5902 23.9301H24.0121C24.0859 23.9301 24.1456 23.9898 24.1456 24.0636C24.1456 24.1374 24.0859 24.1972 24.0121 24.1972L24.0116 24.1971ZM24.1344 12.6413H15.2654C15.2363 12.8383 15.1445 13.0205 15.0038 13.1612C14.8631 13.302 14.6807 13.3937 14.4839 13.4228V25.6695C14.681 25.6981 14.8636 25.7896 15.0045 25.9305C15.1453 26.0713 15.2368 26.2539 15.2654 26.451H24.1348C24.1637 26.2538 24.2557 26.0712 24.3968 25.9303C24.538 25.7895 24.7208 25.6981 24.918 25.6695V13.4228C24.7209 13.3938 24.5384 13.3022 24.3974 13.1615C24.2563 13.0206 24.1643 12.8384 24.1348 12.6413L24.1344 12.6413ZM15.5 14.4091L15.5004 14.4092C15.5007 14.1751 15.5938 13.9506 15.7594 13.7851C15.925 13.6195 16.1494 13.5263 16.3835 13.5261H23.017H23.0168C23.2511 13.5261 23.4757 13.6191 23.6414 13.7846C23.8069 13.9503 23.9 14.1749 23.9 14.4092V16.6399C23.8997 16.8739 23.8065 17.0983 23.641 17.2639C23.4754 17.4294 23.251 17.5226 23.0168 17.5229H16.3837C16.1496 17.5223 15.9255 17.429 15.7599 17.2636C15.5945 17.0982 15.5012 16.8738 15.5006 16.6399L15.5 14.4091ZM24.0113 24.1971L15.3898 24.1972C15.3161 24.1972 15.2564 24.1374 15.2564 24.0636C15.2564 23.9899 15.3161 23.9302 15.3898 23.9302H15.8118C15.8457 22.9449 16.2521 22.0093 16.9489 21.3121C17.6458 20.6149 18.5813 20.2081 19.5664 20.1738V19.7483H19.2158C19.142 19.7483 19.0822 19.6885 19.0822 19.6147C19.0822 19.5409 19.142 19.4812 19.2158 19.4812H20.1861H20.1859C20.2597 19.4812 20.3195 19.5409 20.3195 19.6147C20.3195 19.6885 20.2597 19.7483 20.1859 19.7483H19.8335V20.1738C20.819 20.2077 21.7548 20.6143 22.4521 21.3115C23.1494 22.0088 23.556 22.9446 23.5899 23.9302H24.0118C24.0856 23.9302 24.1453 23.9899 24.1453 24.0636C24.1453 24.1374 24.0856 24.1972 24.0118 24.1972L24.0113 24.1971ZM24.1341 12.6413H15.2654C15.2363 12.8383 15.1445 13.0206 15.0038 13.1612C14.8631 13.3021 14.6808 13.3937 14.4839 13.4228V25.6696C14.681 25.6981 14.8637 25.7897 15.0045 25.9305C15.1454 26.0713 15.2369 26.254 15.2654 26.4511H24.1348C24.1638 26.2538 24.2557 26.0712 24.3968 25.9303C24.5381 25.7895 24.7208 25.6981 24.9181 25.6696V13.4228C24.721 13.3939 24.5385 13.3022 24.3975 13.1615C24.2564 13.0207 24.1643 12.8384 24.1348 12.6413L24.1341 12.6413ZM15.4997 14.4091L15.5003 14.4092C15.5005 14.1751 15.5937 13.9507 15.7593 13.7851C15.9248 13.6195 16.1492 13.5264 16.3834 13.5261H23.0168H23.0167C23.251 13.5261 23.4755 13.6191 23.6412 13.7847C23.8068 13.9504 23.8998 14.1749 23.8998 14.4092V16.6399C23.8995 16.8739 23.8064 17.0983 23.6408 17.2639C23.4752 17.4295 23.2508 17.5226 23.0167 17.5229H16.3836C16.1495 17.5223 15.9253 17.429 15.7597 17.2636C15.5943 17.0982 15.501 16.8739 15.5005 16.6399L15.4997 14.4091ZM24.011 24.1971L15.3896 24.1973C15.3158 24.1973 15.2561 24.1374 15.2561 24.0637C15.2561 23.9899 15.3158 23.9302 15.3896 23.9302H15.8115C15.8454 22.9449 16.2518 22.0093 16.9486 21.3121C17.6455 20.6149 18.581 20.2081 19.5661 20.1738V19.7483H19.2155C19.1417 19.7483 19.0819 19.6885 19.0819 19.6147C19.0819 19.541 19.1417 19.4813 19.2155 19.4813H20.1858H20.1856C20.2594 19.4813 20.3192 19.541 20.3192 19.6147C20.3192 19.6885 20.2594 19.7483 20.1856 19.7483H19.8332V20.1738C20.8187 20.2077 21.7545 20.6144 22.4519 21.3116C23.1491 22.0088 23.5557 22.9446 23.5896 23.9302H24.0115C24.0853 23.9302 24.145 23.9899 24.145 24.0637C24.145 24.1374 24.0853 24.1973 24.0115 24.1973L24.011 24.1971ZM24.1338 12.6414H15.2651C15.236 12.8384 15.1442 13.0206 15.0035 13.1613C14.8628 13.3021 14.6805 13.3938 14.4836 13.4229V25.6696C14.6808 25.6982 14.8634 25.7897 15.0042 25.9305C15.1451 26.0714 15.2366 26.254 15.2651 26.4511H24.1345C24.1635 26.2539 24.2554 26.0712 24.3965 25.9304C24.5378 25.7895 24.7206 25.6982 24.9178 25.6696V13.4229C24.7207 13.3939 24.5382 13.3022 24.3972 13.1615C24.2561 13.0207 24.164 12.8385 24.1345 12.6414L24.1338 12.6414ZM15.4994 14.4091L15.5001 14.4093C15.5004 14.1751 15.5935 13.9507 15.7591 13.7851C15.9247 13.6195 16.1491 13.5264 16.3832 13.5261H23.0167H23.0165C23.2508 13.5261 23.4754 13.6192 23.6411 13.7847C23.8066 13.9504 23.8996 14.175 23.8996 14.4092V16.6399C23.8994 16.8739 23.8062 17.0983 23.6406 17.2639C23.4751 17.4295 23.2507 17.5226 23.0165 17.5229H16.3834C16.1493 17.5224 15.9251 17.4291 15.7596 17.2637C15.5941 17.0982 15.5008 16.8739 15.5003 16.6399L15.4994 14.4091ZM24.0107 24.1972L15.3896 24.1973C15.3159 24.1973 15.2562 24.1375 15.2562 24.0637C15.2562 23.9899 15.3159 23.9302 15.3896 23.9302H15.8116C15.8454 22.9449 16.2518 22.0094 16.9486 21.3122C17.6456 20.6149 18.581 20.2082 19.5662 20.1739V19.7484H19.2156C19.1418 19.7484 19.082 19.6885 19.082 19.6148C19.082 19.541 19.1418 19.4813 19.2156 19.4813H20.1858H20.1857C20.2595 19.4813 20.3193 19.541 20.3193 19.6148C20.3193 19.6885 20.2595 19.7484 20.1857 19.7484H19.8333V20.1739C20.8187 20.2077 21.7545 20.6144 22.4519 21.3116C23.1491 22.0088 23.5558 22.9447 23.5897 23.9302H24.0116C24.0854 23.9302 24.1451 23.9899 24.1451 24.0637C24.1451 24.1375 24.0854 24.1973 24.0116 24.1973L24.0107 24.1972ZM24.1335 12.6414H15.2648C15.2357 12.8384 15.1439 13.0206 15.0032 13.1613C14.8625 13.3021 14.6802 13.3938 14.4833 13.4229V25.6697C14.6805 25.6982 14.8631 25.7897 15.0039 25.9306C15.1448 26.0714 15.2363 26.254 15.2648 26.4512H24.1342C24.1632 26.2539 24.2551 26.0713 24.3962 25.9304C24.5375 25.7896 24.7203 25.6982 24.9175 25.6696V13.4229C24.7204 13.3939 24.5379 13.3023 24.3969 13.1616C24.2558 13.0207 24.1637 12.8385 24.1342 12.6414L24.1335 12.6414ZM15.4991 14.4092L15.5 14.4093C15.5002 14.1752 15.5934 13.9507 15.7589 13.7852C15.9245 13.6196 16.1489 13.5264 16.3831 13.5262H23.0165H23.0164C23.2506 13.5262 23.4752 13.6192 23.6409 13.7848C23.8065 13.9504 23.8995 14.175 23.8995 14.4093V16.64C23.8992 16.874 23.8061 17.0984 23.6405 17.264C23.4749 17.4295 23.2505 17.5227 23.0164 17.523H16.3833C16.1491 17.5224 15.925 17.4291 15.7594 17.2637C15.594 17.0983 15.5007 16.8739 15.5001 16.64L15.4991 14.4092ZM24.0104 24.1972L15.3893 24.1973C15.3156 24.1973 15.2559 24.1375 15.2559 24.0637C15.2559 23.99 15.3156 23.9303 15.3893 23.9303H15.8113C15.8452 22.945 16.2515 22.0094 16.9484 21.3122C17.6453 20.615 18.5807 20.2082 19.5659 20.1739V19.7484H19.2153C19.1415 19.7484 19.0817 19.6886 19.0817 19.6148C19.0817 19.541 19.1415 19.4813 19.2153 19.4813H20.1855H20.1854C20.2592 19.4813 20.319 19.541 20.319 19.6148C20.319 19.6886 20.2592 19.7484 20.1854 19.7484H19.833V20.1739C20.8184 20.2078 21.7543 20.6144 22.4516 21.3116C23.1489 22.0089 23.5555 22.9447 23.5894 23.9303H24.0113C24.0851 23.9303 24.1448 23.99 24.1448 24.0637C24.1448 24.1375 24.0851 24.1973 24.0113 24.1973L24.0104 24.1972ZM24.1332 12.6414H15.2649C15.2358 12.8384 15.144 13.0207 15.0033 13.1613C14.8626 13.3022 14.6802 13.3938 14.4834 13.4229V25.6697C14.6805 25.6982 14.8631 25.7898 15.004 25.9306C15.1448 26.0714 15.2364 26.2541 15.2649 26.4512H24.1343C24.1633 26.2539 24.2552 26.0713 24.3963 25.9305C24.5376 25.7896 24.7203 25.6982 24.9176 25.6697V13.4229C24.7205 13.394 24.538 13.3023 24.397 13.1616C24.2559 13.0208 24.1638 12.8385 24.1343 12.6414L24.1332 12.6414ZM15.4988 14.4092L15.4998 14.4093C15.5001 14.1752 15.5932 13.9508 15.7588 13.7852C15.9244 13.6196 16.1488 13.5265 16.3829 13.5262H23.0164H23.0162C23.2505 13.5262 23.4751 13.6192 23.6408 13.7848C23.8063 13.9505 23.8993 14.1751 23.8993 14.4093V16.64C23.8991 16.874 23.8059 17.0984 23.6403 17.264C23.4748 17.4296 23.2504 17.5227 23.0162 17.523H16.3831C16.149 17.5224 15.9248 17.4291 15.7593 17.2637C15.5938 17.0983 15.5005 16.874 15.5 16.64L15.4988 14.4092ZM24.0102 24.1972L15.3894 24.1974C15.3156 24.1974 15.2559 24.1375 15.2559 24.0638C15.2559 23.99 15.3156 23.9303 15.3894 23.9303H15.8113C15.8452 22.945 16.2516 22.0094 16.9484 21.3122C17.6454 20.615 18.5808 20.2082 19.566 20.1739V19.7484H19.2153C19.1416 19.7484 19.0817 19.6886 19.0817 19.6148C19.0817 19.5411 19.1416 19.4814 19.2153 19.4814H20.1856H20.1855C20.2592 19.4814 20.3191 19.5411 20.3191 19.6148C20.3191 19.6886 20.2592 19.7484 20.1855 19.7484H19.833V20.1739C20.8185 20.2078 21.7543 20.6145 22.4517 21.3117C23.1489 22.0089 23.5555 22.9447 23.5894 23.9303H24.0114C24.0851 23.9303 24.1448 23.99 24.1448 24.0638C24.1448 24.1375 24.0851 24.1974 24.0114 24.1974L24.0102 24.1972ZM25.4818 11H13.9186C13.6751 11.0003 13.4416 11.0971 13.2694 11.2694C13.0973 11.4416 13.0003 11.6751 13 11.9186V27.1721C13 27.4158 13.0968 27.6493 13.2691 27.8216C13.4414 27.994 13.6751 28.0907 13.9186 28.0907H25.4818C25.7253 28.0907 25.959 27.994 26.1313 27.8216C26.3035 27.6494 26.4004 27.4158 26.4004 27.1721V11.9186C26.4001 11.6751 26.3031 11.4416 26.131 11.2694C25.9588 11.0971 25.7253 11.0003 25.4818 11H25.4818ZM25.1845 25.7922H25.1844C25.1845 25.8276 25.1704 25.8616 25.1453 25.8866C25.1203 25.9117 25.0863 25.9258 25.0509 25.9257C24.8762 25.9257 24.7086 25.9951 24.5851 26.1187C24.4616 26.2422 24.3922 26.4098 24.3922 26.5843C24.3917 26.658 24.3323 26.7174 24.2586 26.7179H15.1427C15.1073 26.7179 15.0733 26.7039 15.0483 26.6789C15.0232 26.6539 15.0091 26.6198 15.0092 26.5843C15.0092 26.4098 14.9398 26.2421 14.8162 26.1187C14.6927 25.9951 14.5253 25.9257 14.3506 25.9257C14.3151 25.9258 14.281 25.9117 14.256 25.8866C14.231 25.8616 14.217 25.8276 14.217 25.7922V13.2982C14.2175 13.2247 14.2769 13.1652 14.3506 13.1648C14.5249 13.1648 14.6922 13.0955 14.8157 12.9724C14.9392 12.8492 15.0087 12.6821 15.0093 12.5078C15.0089 12.4723 15.0228 12.4382 15.0479 12.413C15.0731 12.3879 15.1072 12.374 15.1427 12.3743H24.2597C24.2951 12.3743 24.3291 12.3883 24.3541 12.4133C24.3792 12.4383 24.3933 12.4723 24.3932 12.5078C24.3937 12.6821 24.4632 12.8492 24.5867 12.9724C24.7102 13.0955 24.8776 13.1648 25.0519 13.1648C25.1255 13.1652 25.1849 13.2247 25.1855 13.2982L25.1845 25.7922ZM24.1342 12.6411H15.2648C15.2357 12.8381 15.1439 13.0203 15.0032 13.161C14.8625 13.3019 14.6801 13.3935 14.4833 13.4226V25.6694C14.6804 25.6979 14.863 25.7894 15.0039 25.9303C15.1447 26.0711 15.2363 26.2537 15.2648 26.4509H24.1342C24.1632 26.2536 24.2551 26.071 24.3962 25.9301C24.5374 25.7893 24.7202 25.6979 24.9175 25.6694V13.4226C24.7203 13.3937 24.5379 13.302 24.3969 13.1613C24.2558 13.0205 24.1637 12.8382 24.1342 12.6411L24.1342 12.6411ZM15.4998 14.4089L15.4997 14.409C15.4999 14.1749 15.5931 13.9505 15.7586 13.7849C15.9242 13.6193 16.1486 13.5262 16.3828 13.5259H23.0162H23.0161C23.2503 13.5259 23.4749 13.6189 23.6406 13.7845C23.8062 13.9502 23.8992 14.1747 23.8992 14.409V16.6397C23.8989 16.8737 23.8058 17.0981 23.6402 17.2637C23.4746 17.4292 23.2502 17.5224 23.0161 17.5227H16.383C16.1488 17.5221 15.9247 17.4288 15.7591 17.2634C15.5937 17.098 15.5004 16.8737 15.4998 16.6397L15.4998 14.4089ZM24.0111 24.1969L15.3893 24.1971C15.3155 24.1971 15.2558 24.1372 15.2558 24.0635C15.2558 23.9897 15.3155 23.93 15.3893 23.93H15.8112C15.8451 22.9447 16.2515 22.0091 16.9483 21.3119C17.6453 20.6147 18.5807 20.2079 19.5659 20.1736V19.7481H19.2152C19.1415 19.7481 19.0816 19.6883 19.0816 19.6145C19.0816 19.5407 19.1415 19.4811 19.2152 19.4811H20.1855H20.1854C20.2591 19.4811 20.319 19.5407 20.319 19.6145C20.319 19.6883 20.2591 19.7481 20.1854 19.7481H19.8329V20.1736C20.8184 20.2075 21.7542 20.6142 22.4516 21.3114C23.1488 22.0086 23.5554 22.9444 23.5893 23.93H24.0113C24.085 23.93 24.1447 23.9897 24.1447 24.0635C24.1447 24.1372 24.085 24.1971 24.0113 24.1971L24.0111 24.1969ZM24.1339 12.6412H15.2645C15.2354 12.8381 15.1436 13.0204 15.0029 13.1611C14.8622 13.3019 14.6798 13.3936 14.483 13.4227V25.6694C14.6801 25.698 14.8627 25.7895 15.0036 25.9303C15.1444 26.0711 15.236 26.2538 15.2645 26.4509H24.1339C24.1629 26.2537 24.2548 26.071 24.3959 25.9302C24.5372 25.7893 24.7199 25.698 24.9172 25.6694V13.4226C24.7201 13.3937 24.5376 13.302 24.3966 13.1613C24.2555 13.0205 24.1634 12.8383 24.1339 12.6412L24.1339 12.6412ZM15.4995 14.4089V14.4091C15.4998 14.1749 15.5929 13.9505 15.7585 13.7849C15.924 13.6193 16.1485 13.5262 16.3826 13.5259H23.0161H23.0159C23.2502 13.5259 23.4748 13.619 23.6404 13.7845C23.806 13.9502 23.899 14.1748 23.899 14.409V16.6397C23.8988 16.8737 23.8056 17.0981 23.64 17.2637C23.4745 17.4293 23.2501 17.5224 23.0159 17.5227H16.3828C16.1487 17.5222 15.9245 17.4289 15.759 17.2634C15.5935 17.098 15.5002 16.8737 15.4997 16.6397L15.4995 14.4089ZM24.0108 24.197L15.389 24.1971C15.3152 24.1971 15.2555 24.1373 15.2555 24.0635C15.2555 23.9897 15.3152 23.93 15.389 23.93H15.8109C15.8448 22.9447 16.2512 22.0091 16.948 21.312C17.645 20.6147 18.5804 20.208 19.5656 20.1737V19.7481H19.2149C19.1412 19.7481 19.0813 19.6883 19.0813 19.6145C19.0813 19.5408 19.1412 19.4811 19.2149 19.4811H20.1852H20.1851C20.2588 19.4811 20.3187 19.5408 20.3187 19.6145C20.3187 19.6883 20.2588 19.7481 20.1851 19.7481H19.8326V20.1737C20.8181 20.2075 21.7539 20.6142 22.4513 21.3114C23.1485 22.0086 23.5552 22.9444 23.589 23.93H24.011C24.0847 23.93 24.1444 23.9897 24.1444 24.0635C24.1444 24.1373 24.0847 24.1971 24.011 24.1971L24.0108 24.197ZM24.1336 12.6412H15.2646C15.2355 12.8382 15.1437 13.0204 15.003 13.1611C14.8623 13.3019 14.6799 13.3936 14.4831 13.4227V25.6694C14.6802 25.698 14.8628 25.7895 15.0037 25.9303C15.1445 26.0712 15.236 26.2538 15.2646 26.4509H24.134C24.1629 26.2537 24.2549 26.0711 24.396 25.9302C24.5372 25.7894 24.72 25.698 24.9172 25.6694V13.4227C24.7201 13.3937 24.5376 13.3021 24.3966 13.1614C24.2555 13.0205 24.1635 12.8383 24.134 12.6412L24.1336 12.6412ZM15.4992 14.409L15.4993 14.4091C15.4996 14.175 15.5928 13.9505 15.7583 13.785C15.9239 13.6194 16.1483 13.5262 16.3825 13.526H23.0159H23.0158C23.25 13.526 23.4746 13.619 23.6403 13.7845C23.8059 13.9502 23.8989 14.1748 23.8989 14.4091V16.6398C23.8986 16.8737 23.8054 17.0982 23.6399 17.2638C23.4743 17.4293 23.2499 17.5225 23.0157 17.5227H16.3827C16.1485 17.5222 15.9244 17.4289 15.7588 17.2635C15.5934 17.0981 15.5001 16.8737 15.4995 16.6398L15.4992 14.409ZM24.0105 24.197L15.3887 24.1971C15.3149 24.1971 15.2552 24.1373 15.2552 24.0635C15.2552 23.9898 15.3149 23.9301 15.3887 23.9301H15.8106C15.8445 22.9448 16.2509 22.0092 16.9477 21.312C17.6447 20.6148 18.5801 20.208 19.5653 20.1737V19.7482H19.2146C19.1409 19.7482 19.0811 19.6883 19.0811 19.6146C19.0811 19.5408 19.1409 19.4811 19.2146 19.4811H20.1849H20.1848C20.2585 19.4811 20.3184 19.5408 20.3184 19.6146C20.3184 19.6883 20.2585 19.7482 20.1848 19.7482H19.8324V20.1737C20.8178 20.2076 21.7536 20.6142 22.451 21.3114C23.1482 22.0087 23.5549 22.9445 23.5887 23.9301H24.0107C24.0845 23.9301 24.1442 23.9898 24.1442 24.0635C24.1442 24.1373 24.0845 24.1971 24.0107 24.1971L24.0105 24.197ZM24.1333 12.6412H15.2643C15.2352 12.8382 15.1434 13.0204 15.0027 13.1611C14.862 13.302 14.6796 13.3936 14.4828 13.4227V25.6695C14.6799 25.698 14.8625 25.7895 15.0034 25.9304C15.1442 26.0712 15.2357 26.2539 15.2643 26.451H24.1337C24.1626 26.2537 24.2546 26.0711 24.3957 25.9302C24.5369 25.7894 24.7197 25.698 24.9169 25.6695V13.4227C24.7198 13.3938 24.5373 13.3021 24.3963 13.1614C24.2552 13.0206 24.1632 12.8383 24.1337 12.6412L24.1333 12.6412ZM15.4989 14.409L15.4992 14.4091C15.4995 14.175 15.5926 13.9506 15.7582 13.785C15.9237 13.6194 16.1482 13.5263 16.3823 13.526H23.0158H23.0156C23.2499 13.526 23.4745 13.619 23.6401 13.7846C23.8057 13.9503 23.8987 14.1748 23.8987 14.4091V16.6398C23.8985 16.8738 23.8053 17.0982 23.6397 17.2638C23.4742 17.4293 23.2497 17.5225 23.0156 17.5228H16.3825C16.1484 17.5222 15.9242 17.4289 15.7587 17.2635C15.5932 17.0981 15.4999 16.8738 15.4994 16.6398L15.4989 14.409ZM24.0102 24.197L15.3888 24.1972C15.315 24.1972 15.2553 24.1373 15.2553 24.0636C15.2553 23.9898 15.315 23.9301 15.3888 23.9301H15.8107C15.8446 22.9448 16.251 22.0092 16.9478 21.312C17.6447 20.6148 18.5802 20.208 19.5653 20.1737V19.7482H19.2147C19.1409 19.7482 19.0811 19.6884 19.0811 19.6146C19.0811 19.5409 19.1409 19.4812 19.2147 19.4812H20.185H20.1848C20.2586 19.4812 20.3184 19.5409 20.3184 19.6146C20.3184 19.6884 20.2586 19.7482 20.1848 19.7482H19.8324V20.1737C20.8179 20.2076 21.7537 20.6143 22.4511 21.3115C23.1483 22.0087 23.5549 22.9445 23.5888 23.9301H24.0108C24.0845 23.9301 24.1442 23.9898 24.1442 24.0636C24.1442 24.1373 24.0845 24.1972 24.0108 24.1972L24.0102 24.197ZM24.133 12.6413H15.264C15.2349 12.8382 15.1431 13.0205 15.0024 13.1612C14.8617 13.302 14.6793 13.3937 14.4825 13.4228V25.6695C14.6796 25.6981 14.8622 25.7896 15.0031 25.9304C15.1439 26.0712 15.2354 26.2539 15.264 26.451H24.1334C24.1624 26.2538 24.2543 26.0711 24.3954 25.9303C24.5366 25.7894 24.7194 25.6981 24.9167 25.6695V13.4228C24.7195 13.3938 24.5371 13.3021 24.3961 13.1614C24.2549 13.0206 24.1629 12.8384 24.1334 12.6413L24.133 12.6413ZM15.4986 14.409L15.499 14.4092C15.4993 14.175 15.5925 13.9506 15.758 13.785C15.9236 13.6194 16.148 13.5263 16.3822 13.526H23.0156H23.0155C23.2497 13.526 23.4743 13.6191 23.64 13.7846C23.8055 13.9503 23.8986 14.1749 23.8986 14.4091V16.6398C23.8983 16.8738 23.8051 17.0982 23.6396 17.2638C23.474 17.4294 23.2496 17.5225 23.0154 17.5228H16.3824C16.1482 17.5223 15.9241 17.429 15.7585 17.2635C15.5931 17.0981 15.4998 16.8738 15.4992 16.6398L15.4986 14.409ZM24.0099 24.1971L15.3885 24.1972C15.3147 24.1972 15.255 24.1374 15.255 24.0636C15.255 23.9898 15.3147 23.9301 15.3885 23.9301H15.8104C15.8443 22.9448 16.2507 22.0093 16.9475 21.3121C17.6444 20.6148 18.5799 20.2081 19.5651 20.1738V19.7482H19.2144C19.1406 19.7482 19.0808 19.6884 19.0808 19.6147C19.0808 19.5409 19.1406 19.4812 19.2144 19.4812H20.1847H20.1846C20.2583 19.4812 20.3181 19.5409 20.3181 19.6147C20.3181 19.6884 20.2583 19.7482 20.1846 19.7482H19.8321V20.1738C20.8176 20.2076 21.7534 20.6143 22.4508 21.3115C23.148 22.0087 23.5546 22.9446 23.5885 23.9301H24.0105C24.0842 23.9301 24.1439 23.9898 24.1439 24.0636C24.1439 24.1374 24.0842 24.1972 24.0105 24.1972L24.0099 24.1971ZM24.1327 12.6413H15.264C15.2349 12.8383 15.1431 13.0205 15.0024 13.1612C14.8617 13.302 14.6794 13.3937 14.4825 13.4228V25.6695C14.6797 25.6981 14.8623 25.7896 15.0031 25.9305C15.144 26.0713 15.2355 26.2539 15.2641 26.451H24.1335C24.1624 26.2538 24.2543 26.0712 24.3955 25.9303C24.5367 25.7895 24.7195 25.6981 24.9167 25.6695V13.4228C24.7196 13.3938 24.5371 13.3022 24.3961 13.1615C24.255 13.0206 24.1629 12.8384 24.1334 12.6413L24.1327 12.6413ZM15.4983 14.4091L15.4989 14.4092C15.4992 14.1751 15.5923 13.9506 15.7579 13.7851C15.9234 13.6195 16.1479 13.5263 16.382 13.5261H23.0154H23.0153C23.2496 13.5261 23.4741 13.6191 23.6398 13.7846C23.8054 13.9503 23.8984 14.1749 23.8984 14.4092V16.6399C23.8981 16.8739 23.805 17.0983 23.6394 17.2639C23.4739 17.4294 23.2494 17.5226 23.0153 17.5229H16.3822C16.1481 17.5223 15.9239 17.429 15.7583 17.2636C15.5929 17.0982 15.4996 16.8738 15.4991 16.6399L15.4983 14.4091ZM24.0096 24.1971L15.3882 24.1972C15.3144 24.1972 15.2547 24.1374 15.2547 24.0636C15.2547 23.9899 15.3144 23.9302 15.3882 23.9302H15.8101C15.844 22.9449 16.2504 22.0093 16.9472 21.3121C17.6442 20.6149 18.5796 20.2081 19.5648 20.1738V19.7483H19.2141C19.1404 19.7483 19.0805 19.6885 19.0805 19.6147C19.0805 19.5409 19.1404 19.4812 19.2141 19.4812H20.1844H20.1843C20.258 19.4812 20.3179 19.5409 20.3179 19.6147C20.3179 19.6885 20.258 19.7483 20.1843 19.7483H19.8318V20.1738C20.8173 20.2077 21.7531 20.6143 22.4505 21.3115C23.1477 22.0088 23.5543 22.9446 23.5882 23.9302H24.0102C24.0839 23.9302 24.1436 23.9899 24.1436 24.0636C24.1436 24.1374 24.0839 24.1972 24.0102 24.1972L24.0096 24.1971ZM24.1324 12.6413H15.2637C15.2347 12.8383 15.1429 13.0206 15.0022 13.1612C14.8615 13.3021 14.6791 13.3937 14.4823 13.4228V25.6696C14.6794 25.6981 14.862 25.7897 15.0029 25.9305C15.1437 26.0713 15.2352 26.254 15.2638 26.4511H24.1332C24.1621 26.2538 24.2541 26.0712 24.3952 25.9303C24.5364 25.7895 24.7192 25.6981 24.9164 25.6696V13.4228C24.7193 13.3939 24.5368 13.3022 24.3958 13.1615C24.2547 13.0207 24.1626 12.8384 24.1331 12.6413L24.1324 12.6413ZM15.498 14.4091L15.4987 14.4092C15.499 14.1751 15.5922 13.9507 15.7577 13.7851C15.9233 13.6195 16.1477 13.5264 16.3819 13.5261H23.0153H23.0152C23.2494 13.5261 23.474 13.6191 23.6397 13.7847C23.8052 13.9504 23.8983 14.1749 23.8983 14.4092V16.6399C23.898 16.8739 23.8048 17.0983 23.6393 17.2639C23.4737 17.4295 23.2493 17.5226 23.0151 17.5229H16.3821C16.1479 17.5223 15.9238 17.429 15.7582 17.2636C15.5928 17.0982 15.4995 16.8739 15.4989 16.6399L15.498 14.4091ZM24.0094 24.1971L15.3882 24.1973C15.3145 24.1973 15.2548 24.1374 15.2548 24.0637C15.2548 23.9899 15.3145 23.9302 15.3882 23.9302H15.8102C15.8441 22.9449 16.2505 22.0093 16.9473 21.3121C17.6442 20.6149 18.5797 20.2081 19.5648 20.1738V19.7483H19.2142C19.1404 19.7483 19.0806 19.6885 19.0806 19.6147C19.0806 19.541 19.1404 19.4813 19.2142 19.4813H20.1845H20.1843C20.2581 19.4813 20.3179 19.541 20.3179 19.6147C20.3179 19.6885 20.2581 19.7483 20.1843 19.7483H19.8319V20.1738C20.8173 20.2077 21.7532 20.6144 22.4505 21.3116C23.1478 22.0088 23.5544 22.9446 23.5883 23.9302H24.0102C24.084 23.9302 24.1437 23.9899 24.1437 24.0637C24.1437 24.1374 24.084 24.1973 24.0102 24.1973L24.0094 24.1971ZM24.1322 12.6414H15.2635C15.2344 12.8384 15.1426 13.0206 15.0019 13.1613C14.8612 13.3021 14.6788 13.3938 14.482 13.4229V25.6696C14.6791 25.6982 14.8617 25.7897 15.0026 25.9305C15.1434 26.0714 15.2349 26.254 15.2635 26.4511H24.1329C24.1618 26.2539 24.2538 26.0712 24.3949 25.9304C24.5361 25.7895 24.7189 25.6982 24.9161 25.6696V13.4229C24.719 13.3939 24.5365 13.3022 24.3955 13.1615C24.2544 13.0207 24.1624 12.8385 24.1329 12.6414L24.1322 12.6414ZM15.4978 14.4091L15.4986 14.4093C15.4988 14.1751 15.592 13.9507 15.7576 13.7851C15.9231 13.6195 16.1476 13.5264 16.3817 13.5261H23.0151H23.015C23.2493 13.5261 23.4738 13.6192 23.6395 13.7847C23.8051 13.9504 23.8981 14.175 23.8981 14.4092V16.6399C23.8978 16.8739 23.8047 17.0983 23.6391 17.2639C23.4736 17.4295 23.2491 17.5226 23.015 17.5229H16.3819C16.1478 17.5224 15.9236 17.4291 15.758 17.2637C15.5926 17.0982 15.4993 16.8739 15.4988 16.6399L15.4978 14.4091ZM24.0091 24.1972L15.3879 24.1973C15.3142 24.1973 15.2545 24.1375 15.2545 24.0637C15.2545 23.9899 15.3142 23.9302 15.3879 23.9302H15.8099C15.8438 22.9449 16.2502 22.0094 16.947 21.3122C17.6439 20.6149 18.5794 20.2082 19.5645 20.1739V19.7484H19.2139C19.1401 19.7484 19.0803 19.6885 19.0803 19.6148C19.0803 19.541 19.1401 19.4813 19.2139 19.4813H20.1842H20.184C20.2578 19.4813 20.3176 19.541 20.3176 19.6148C20.3176 19.6885 20.2578 19.7484 20.184 19.7484H19.8316V20.1739C20.8171 20.2077 21.7529 20.6144 22.4503 21.3116C23.1475 22.0088 23.5541 22.9447 23.588 23.9302H24.0099C24.0837 23.9302 24.1434 23.9899 24.1434 24.0637C24.1434 24.1375 24.0837 24.1973 24.0099 24.1973L24.0091 24.1972ZM24.1319 12.6414H15.2635C15.2344 12.8384 15.1426 13.0206 15.0019 13.1613C14.8612 13.3021 14.6789 13.3938 14.482 13.4229V25.6697C14.6791 25.6982 14.8618 25.7897 15.0026 25.9306C15.1435 26.0714 15.235 26.254 15.2635 26.4512H24.1329C24.1619 26.2539 24.2538 26.0713 24.3949 25.9304C24.5362 25.7896 24.7189 25.6982 24.9162 25.6696V13.4229C24.7191 13.3939 24.5366 13.3023 24.3956 13.1616C24.2545 13.0207 24.1624 12.8385 24.1329 12.6414L24.1319 12.6414ZM15.4975 14.4092L15.4984 14.4093C15.4987 14.1752 15.5919 13.9507 15.7574 13.7852C15.923 13.6196 16.1474 13.5264 16.3816 13.5262H23.015H23.0148C23.2491 13.5262 23.4737 13.6192 23.6394 13.7848C23.8049 13.9504 23.898 14.175 23.898 14.4093V16.64C23.8977 16.874 23.8045 17.0984 23.639 17.264C23.4734 17.4295 23.249 17.5227 23.0148 17.523H16.3817C16.1476 17.5224 15.9235 17.4291 15.7579 17.2637C15.5925 17.0983 15.4992 16.8739 15.4986 16.64L15.4975 14.4092ZM24.0088 24.1972L15.388 24.1973C15.3142 24.1973 15.2546 24.1375 15.2546 24.0637C15.2546 23.99 15.3142 23.9303 15.388 23.9303H15.81C15.8438 22.945 16.2502 22.0094 16.947 21.3122C17.644 20.615 18.5794 20.2082 19.5646 20.1739V19.7484H19.214C19.1402 19.7484 19.0804 19.6886 19.0804 19.6148C19.0804 19.541 19.1402 19.4813 19.214 19.4813H20.1842H20.1841C20.2579 19.4813 20.3177 19.541 20.3177 19.6148C20.3177 19.6886 20.2579 19.7484 20.1841 19.7484H19.8317V20.1739C20.8171 20.2078 21.7529 20.6144 22.4503 21.3116C23.1475 22.0089 23.5542 22.9447 23.5881 23.9303H24.01C24.0838 23.9303 24.1435 23.99 24.1435 24.0637C24.1435 24.1375 24.0838 24.1973 24.01 24.1973L24.0088 24.1972Z" fill="#F7B103"/>
</svg>
