<svg width="17" height="16" viewBox="0 0 17 16" fill="none" xmlns="http://www.w3.org/2000/svg">
<g clip-path="url(#clip0_2314_12620)">
<path d="M8.23499 9.17919C8.23499 9.1794 8.23508 9.17961 8.23523 9.17976L8.5107 9.45523C8.87832 9.82284 9.47433 9.82284 9.84195 9.45523L14.349 4.94819C14.6093 4.68788 15.0313 4.68788 15.2917 4.94819C15.552 5.2085 15.552 5.63054 15.2917 5.89085L9.88343 11.2991C9.49291 11.6896 8.85974 11.6896 8.46922 11.2991L5.40499 8.23485C5.14468 7.97454 5.14468 7.5525 5.40499 7.29219C5.6653 7.03188 6.08735 7.03188 6.34766 7.29219L7.29299 8.23752L8.23476 9.17862C8.23491 9.17877 8.23499 9.17897 8.23499 9.17919ZM8.70628 7.76414C8.44672 7.50458 8.4467 7.08377 8.70623 6.82419L11.0677 4.46223C11.3272 4.20264 11.7481 4.20262 12.0077 4.46219C12.2672 4.72177 12.2673 5.14263 12.0077 5.40224L9.64633 7.76409C9.38676 8.02371 8.96587 8.02373 8.70628 7.76414ZM5.88066 10.5932C6.14078 10.8533 6.14078 11.2751 5.88066 11.5352C5.62053 11.7953 5.19878 11.7953 4.93866 11.5352L1.63833 8.23485C1.37802 7.97454 1.37821 7.5523 1.63852 7.29199C1.89862 7.0319 2.32051 7.0317 2.5806 7.2918L3.05133 7.76252C3.05151 7.76271 3.05151 7.763 3.05133 7.76319C3.05114 7.76337 3.05114 7.76367 3.05133 7.76385L5.88066 10.5932Z" fill="#63605F"/>
</g>
<defs>
<clipPath id="clip0_2314_12620">
<rect width="16" height="16" fill="white" transform="translate(0.5)"/>
</clipPath>
</defs>
</svg>
