<svg width="144" height="113" viewBox="0 0 144 113" fill="none" xmlns="http://www.w3.org/2000/svg">
<path d="M24.0832 109.374L52.2608 100.528L45.6238 79.3871L17.4462 88.2331L24.0832 109.374ZM53.9364 102.264L23.7001 111.756C23.1313 111.935 22.5265 111.619 22.3478 111.05L15.0645 87.8505C14.8859 87.2815 15.2015 86.6764 15.7706 86.4977L46.0069 77.0054C46.5759 76.8267 47.1808 77.1428 47.3595 77.7119L54.6427 100.912C54.8215 101.481 54.5052 102.085 53.9364 102.264Z" fill="#BCC7BD" stroke="#BCC7BD" stroke-width="0.6"/>
<mask id="path-2-outside-1_2314_12261" maskUnits="userSpaceOnUse" x="51.5501" y="39.807" width="48.6689" height="59.1419" fill="black">
<rect fill="white" x="51.5501" y="39.807" width="48.6689" height="59.1419"/>
<path d="M68.5002 95.7426L97.2517 86.7164L83.6589 43.4188L54.9074 52.4451L68.5002 95.7426ZM98.4599 87.9697L68.2236 97.462C67.8142 97.5906 67.3763 97.3635 67.2473 96.9525L53.1878 52.1684C53.0593 51.7591 53.2883 51.3208 53.6977 51.1922L83.934 41.6999C84.3449 41.5709 84.7833 41.7997 84.9118 42.209L98.9712 86.9931C99.1003 87.4042 98.8708 87.8407 98.4599 87.9697"/>
</mask>
<path d="M68.5002 95.7426L97.2517 86.7164L83.6589 43.4188L54.9074 52.4451L68.5002 95.7426ZM98.4599 87.9697L68.2236 97.462C67.8142 97.5906 67.3763 97.3635 67.2473 96.9525L53.1878 52.1684C53.0593 51.7591 53.2883 51.3208 53.6977 51.1922L83.934 41.6999C84.3449 41.5709 84.7833 41.7997 84.9118 42.209L98.9712 86.9931C99.1003 87.4042 98.8708 87.8407 98.4599 87.9697" fill="#BCC7BD"/>
<path d="M68.5002 95.7426L68.6799 96.3151L68.1074 96.4948L67.9277 95.9223L68.5002 95.7426ZM97.2517 86.7164L97.8241 86.5367L98.0038 87.1092L97.4314 87.2889L97.2517 86.7164ZM83.6589 43.4188L83.4792 42.8464L84.0516 42.6667L84.2313 43.2391L83.6589 43.4188ZM54.9074 52.445L54.3349 52.6248L54.1552 52.0523L54.7277 51.8726L54.9074 52.445ZM68.3204 95.1702L97.072 86.144L97.4314 87.2889L68.6799 96.3151L68.3204 95.1702ZM96.6792 86.8961L83.0864 43.5986L84.2313 43.2391L97.8241 86.5367L96.6792 86.8961ZM83.8386 43.9913L55.0871 53.0175L54.7277 51.8726L83.4792 42.8464L83.8386 43.9913ZM55.4798 52.2653L69.0726 95.5629L67.9277 95.9223L54.3349 52.6248L55.4798 52.2653ZM98.6396 88.5421L68.4033 98.0345L68.0439 96.8896L98.2802 87.3972L98.6396 88.5421ZM68.4033 98.0345C67.6788 98.2619 66.9035 97.8605 66.6748 97.1322L67.8197 96.7728C67.8492 96.8665 67.9495 96.9192 68.0439 96.8896L68.4033 98.0345ZM66.6748 97.1322L52.6154 52.3481L53.7603 51.9887L67.8197 96.7728L66.6748 97.1322ZM52.6154 52.3481C52.3875 51.6224 52.7927 50.8475 53.518 50.6198L53.8775 51.7647C53.7839 51.7941 53.7311 51.8957 53.7603 51.9887L52.6154 52.3481ZM53.518 50.6198L83.7543 41.1275L84.1137 42.2724L53.8775 51.7647L53.518 50.6198ZM83.7543 41.1275C84.4804 40.8995 85.2562 41.3029 85.4842 42.0293L84.3393 42.3887C84.3104 42.2965 84.2094 42.2423 84.1137 42.2724L83.7543 41.1275ZM85.4842 42.0293L99.5437 86.8134L98.3988 87.1728L84.3393 42.3887L85.4842 42.0293ZM99.5437 86.8134C99.7726 87.5424 99.3649 88.3145 98.6396 88.5421L98.2802 87.3972C98.3767 87.3669 98.428 87.2659 98.3988 87.1728L99.5437 86.8134Z" fill="#BCC7BD" mask="url(#path-2-outside-1_2314_12261)"/>
<mask id="path-4-outside-2_2314_12261" maskUnits="userSpaceOnUse" x="87.713" y="0.156026" width="56.756" height="84.9023" fill="black">
<rect fill="white" x="87.713" y="0.156026" width="56.756" height="84.9023"/>
<path d="M112.75 81.852L141.5 72.8263L119.565 2.95541L90.815 11.9812L112.75 81.852V81.852ZM142.71 74.0791L112.474 83.5714C112.063 83.7004 111.626 83.4729 111.497 83.0619L89.0956 11.7051C88.9669 11.2952 89.1945 10.8573 89.6054 10.7283L119.842 1.23601C120.253 1.10701 120.689 1.33626 120.818 1.74614L143.22 73.1029C143.349 73.514 143.121 73.9501 142.71 74.0791"/>
</mask>
<path d="M112.75 81.852L141.5 72.8263L119.565 2.95541L90.815 11.9812L112.75 81.852V81.852ZM142.71 74.0791L112.474 83.5714C112.063 83.7004 111.626 83.4729 111.497 83.0619L89.0956 11.7051C88.9669 11.2952 89.1945 10.8573 89.6054 10.7283L119.842 1.23601C120.253 1.10701 120.689 1.33626 120.818 1.74614L143.22 73.1029C143.349 73.514 143.121 73.9501 142.71 74.0791" fill="#BCC7BD"/>
<path d="M141.5 72.8263L142.073 72.6465L142.252 73.219L141.68 73.3987L141.5 72.8263ZM119.565 2.95541L119.385 2.38296L119.958 2.20325L120.138 2.7757L119.565 2.95541ZM90.815 11.9812L90.2426 12.1609L90.0628 11.5884L90.6353 11.4087L90.815 11.9812ZM112.57 81.2796L141.32 72.2538L141.68 73.3987L112.93 82.4245L112.57 81.2796ZM140.928 73.006L118.993 3.13513L120.138 2.7757L142.073 72.6465L140.928 73.006ZM119.745 3.52786L90.9947 12.5536L90.6353 11.4087L119.385 2.38296L119.745 3.52786ZM91.3875 11.8014L113.323 81.6723L112.178 82.0317L90.2426 12.1609L91.3875 11.8014ZM142.89 74.6515L112.653 84.1438L112.294 82.9989L142.53 73.5066L142.89 74.6515ZM112.653 84.1438C111.927 84.372 111.153 83.9692 110.925 83.2416L112.07 82.8821C112.099 82.9767 112.199 83.0288 112.294 82.9989L112.653 84.1438ZM110.925 83.2416L88.5232 11.8848L89.6681 11.5253L112.07 82.8821L110.925 83.2416ZM88.5232 11.8848C88.2955 11.1595 88.6978 10.3844 89.4257 10.1559L89.7851 11.3008C89.6911 11.3303 89.6384 11.4308 89.6681 11.5253L88.5232 11.8848ZM89.4257 10.1559L119.662 0.663556L120.021 1.80846L89.7851 11.3008L89.4257 10.1559ZM119.662 0.663556C120.39 0.435044 121.163 0.841218 121.391 1.56643L120.246 1.92586C120.216 1.8313 120.115 1.77898 120.021 1.80846L119.662 0.663556ZM121.391 1.56643L143.792 72.9232L142.647 73.2827L120.246 1.92586L121.391 1.56643ZM143.792 72.9232C144.021 73.6508 143.616 74.4234 142.89 74.6515L142.53 73.5066C142.625 73.4768 142.677 73.3772 142.647 73.2827L143.792 72.9232Z" fill="#BCC7BD" mask="url(#path-4-outside-2_2314_12261)"/>
<mask id="path-6-outside-3_2314_12261" maskUnits="userSpaceOnUse" x="22.6433" y="99.8846" width="8.77529" height="8.77529" fill="black">
<rect fill="white" x="22.6433" y="99.8846" width="8.77529" height="8.77529"/>
<path d="M30.3224 105.859L30.1621 105.858C27.9891 105.127 25.909 104.13 23.9774 102.892L23.8983 102.533L24.2579 102.455C26.1533 103.669 28.1947 104.65 30.3277 105.366L30.4901 105.695L30.3224 105.859"/>
</mask>
<path d="M30.3224 105.859L30.1621 105.858C27.9891 105.127 25.909 104.13 23.9774 102.892L23.8983 102.533L24.2579 102.455C26.1533 103.669 28.1947 104.65 30.3277 105.366L30.4901 105.695L30.3224 105.859" fill="#BCC7BD"/>
<path d="M30.1621 105.858L30.1593 106.358L30.0788 106.358L30.0025 106.332L30.1621 105.858ZM23.9774 102.892L23.7076 103.313L23.5336 103.202L23.4891 103L23.9774 102.892ZM23.8983 102.533L23.41 102.641L23.3021 102.151L23.7923 102.045L23.8983 102.533ZM24.2579 102.455L24.152 101.966L24.3537 101.923L24.5276 102.034L24.2579 102.455ZM30.3277 105.366L30.4869 104.892L30.6839 104.958L30.7759 105.145L30.3277 105.366ZM30.4901 105.695L30.9383 105.473L31.0988 105.798L30.8403 106.052L30.4901 105.695ZM30.3197 106.359L30.1593 106.358L30.1648 105.358L30.3252 105.359L30.3197 106.359ZM30.0025 106.332C27.7909 105.588 25.6738 104.573 23.7076 103.313L24.2471 102.471C26.1442 103.687 28.1873 104.666 30.3216 105.384L30.0025 106.332ZM23.4891 103L23.41 102.641L24.3866 102.426L24.4657 102.785L23.4891 103ZM23.7923 102.045L24.152 101.966L24.3639 102.944L24.0043 103.022L23.7923 102.045ZM24.5276 102.034C26.3887 103.226 28.3931 104.189 30.4869 104.892L30.1685 105.84C27.9963 105.11 25.9179 104.112 23.9883 102.876L24.5276 102.034ZM30.7759 105.145L30.9383 105.473L30.0418 105.916L29.8795 105.588L30.7759 105.145ZM30.8403 106.052L30.6726 106.216L29.9722 105.502L30.1399 105.338L30.8403 106.052Z" fill="#BCC7BD" mask="url(#path-6-outside-3_2314_12261)"/>
<mask id="path-8-outside-4_2314_12261" maskUnits="userSpaceOnUse" x="97.1941" y="24.9002" width="8.77529" height="8.77529" fill="black">
<rect fill="white" x="97.1941" y="24.9002" width="8.77529" height="8.77529"/>
<path d="M104.873 30.8748L104.713 30.8739C102.54 30.1424 100.46 29.1454 98.5282 27.9078L98.4491 27.5488L98.8087 27.4707C100.704 28.6847 102.745 29.6652 104.878 30.3817L105.041 30.7103L104.873 30.8748"/>
</mask>
<path d="M104.873 30.8748L104.713 30.8739C102.54 30.1424 100.46 29.1454 98.5282 27.9078L98.4491 27.5488L98.8087 27.4707C100.704 28.6847 102.745 29.6652 104.878 30.3817L105.041 30.7103L104.873 30.8748" fill="#BCC7BD"/>
<path d="M104.713 30.8739L104.71 31.3739L104.63 31.3735L104.553 31.3478L104.713 30.8739ZM98.5282 27.9078L98.2584 28.3288L98.0844 28.2173L98.0399 28.0154L98.5282 27.9078ZM98.4491 27.5488L97.9608 27.6563L97.8528 27.1665L98.3431 27.0601L98.4491 27.5488ZM98.8087 27.4707L98.7027 26.9821L98.9045 26.9383L99.0784 27.0497L98.8087 27.4707ZM104.878 30.3817L105.038 29.9078L105.235 29.9739L105.327 30.1602L104.878 30.3817ZM105.041 30.7103L105.489 30.4888L105.65 30.8135L105.391 31.0672L105.041 30.7103ZM104.87 31.3748L104.71 31.3739L104.716 30.3739L104.876 30.3748L104.87 31.3748ZM104.553 31.3478C102.342 30.6032 100.225 29.5885 98.2584 28.3288L98.7979 27.4868C100.695 28.7023 102.738 29.6815 104.872 30.4001L104.553 31.3478ZM98.0399 28.0154L97.9608 27.6563L98.9374 27.4412L99.0165 27.8002L98.0399 28.0154ZM98.3431 27.0601L98.7027 26.9821L98.9147 27.9594L98.5551 28.0374L98.3431 27.0601ZM99.0784 27.0497C100.94 28.2417 102.944 29.2043 105.038 29.9078L104.719 30.8557C102.547 30.126 100.469 29.1277 98.5391 27.8918L99.0784 27.0497ZM105.327 30.1602L105.489 30.4888L104.593 30.9318L104.43 30.6033L105.327 30.1602ZM105.391 31.0672L105.223 31.2317L104.523 30.5179L104.691 30.3534L105.391 31.0672Z" fill="#BCC7BD" mask="url(#path-8-outside-4_2314_12261)"/>
<mask id="path-10-outside-5_2314_12261" maskUnits="userSpaceOnUse" x="20.3396" y="91.1561" width="17.5506" height="17.5506" fill="black">
<rect fill="white" x="20.3396" y="91.1561" width="17.5506" height="17.5506"/>
<path d="M36.7248 103.831L36.5476 103.822C31.5129 101.71 26.5444 99.2781 21.779 96.596L21.681 96.2429L22.0339 96.1433C26.7818 98.8159 31.7333 101.239 36.7479 103.344L36.8863 103.683L36.7248 103.831"/>
</mask>
<path d="M36.7248 103.831L36.5476 103.822C31.5129 101.71 26.5444 99.2781 21.779 96.596L21.681 96.2429L22.0339 96.1433C26.7818 98.8159 31.7333 101.239 36.7479 103.344L36.8863 103.683L36.7248 103.831" fill="#BCC7BD"/>
<path d="M36.5476 103.822L36.5226 104.322L36.435 104.317L36.3541 104.283L36.5476 103.822ZM21.779 96.596L21.5338 97.0317L21.3528 96.9298L21.2972 96.7297L21.779 96.596ZM21.681 96.2429L21.1992 96.3767L21.066 95.8969L21.5452 95.7617L21.681 96.2429ZM22.0339 96.1433L21.8981 95.6621L22.0981 95.6057L22.2792 95.7076L22.0339 96.1433ZM36.7479 103.344L36.9413 102.883L37.1324 102.963L37.2108 103.155L36.7479 103.344ZM36.8863 103.683L37.3492 103.494L37.4807 103.816L37.2246 104.051L36.8863 103.683ZM36.6999 104.33L36.5226 104.322L36.5725 103.323L36.7498 103.332L36.6999 104.33ZM36.3541 104.283C31.3017 102.164 26.3158 99.7232 21.5338 97.0317L22.0243 96.1603C26.7729 98.833 31.7242 101.256 36.741 103.361L36.3541 104.283ZM21.2972 96.7297L21.1992 96.3767L22.1628 96.1091L22.2608 96.4622L21.2972 96.7297ZM21.5452 95.7617L21.8981 95.6621L22.1697 96.6245L21.8168 96.7241L21.5452 95.7617ZM22.2792 95.7076C27.0104 98.3708 31.9446 100.786 36.9413 102.883L36.5544 103.805C31.522 101.693 26.5533 99.261 21.7886 96.579L22.2792 95.7076ZM37.2108 103.155L37.3492 103.494L36.4234 103.872L36.285 103.533L37.2108 103.155ZM37.2246 104.051L37.0631 104.199L36.3866 103.463L36.5481 103.315L37.2246 104.051Z" fill="#BCC7BD" mask="url(#path-10-outside-5_2314_12261)"/>
<mask id="path-12-outside-6_2314_12261" maskUnits="userSpaceOnUse" x="94.8865" y="16.164" width="17.5506" height="17.5506" fill="black">
<rect fill="white" x="94.8865" y="16.164" width="17.5506" height="17.5506"/>
<path d="M111.272 28.8389L111.094 28.8301C106.06 26.7178 101.091 24.2859 96.3259 21.6038L96.2279 21.2507L96.5808 21.1511C101.329 23.8237 106.28 26.2472 111.295 28.3515L111.433 28.6906L111.272 28.8389"/>
</mask>
<path d="M111.272 28.8389L111.094 28.8301C106.06 26.7178 101.091 24.2859 96.3259 21.6038L96.2279 21.2507L96.5808 21.1511C101.329 23.8237 106.28 26.2472 111.295 28.3515L111.433 28.6906L111.272 28.8389" fill="#BCC7BD"/>
<path d="M111.094 28.8301L111.069 29.3294L110.982 29.3251L110.901 29.2911L111.094 28.8301ZM96.3259 21.6038L96.0807 22.0395L95.8997 21.9377L95.8441 21.7376L96.3259 21.6038ZM96.2279 21.2507L95.7461 21.3845L95.6129 20.9047L96.0921 20.7695L96.2279 21.2507ZM96.5808 21.1511L96.445 20.6699L96.645 20.6135L96.826 20.7154L96.5808 21.1511ZM111.295 28.3515L111.488 27.8904L111.679 27.9706L111.758 28.1625L111.295 28.3515ZM111.433 28.6906L111.896 28.5016L112.028 28.8235L111.771 29.0588L111.433 28.6906ZM111.247 29.3383L111.069 29.3294L111.119 28.3307L111.297 28.3395L111.247 29.3383ZM110.901 29.2911C105.849 27.1714 100.863 24.731 96.0807 22.0395L96.5711 21.1681C101.32 23.8408 106.271 26.2642 111.288 28.369L110.901 29.2911ZM95.8441 21.7376L95.7461 21.3845L96.7097 21.117L96.8077 21.47L95.8441 21.7376ZM96.0921 20.7695L96.445 20.6699L96.7166 21.6323L96.3637 21.7319L96.0921 20.7695ZM96.826 20.7154C101.557 23.3786 106.491 25.7936 111.488 27.8904L111.101 28.8125C106.069 26.7007 101.1 24.2688 96.3355 21.5869L96.826 20.7154ZM111.758 28.1625L111.896 28.5016L110.97 28.8796L110.832 28.5405L111.758 28.1625ZM111.771 29.0588L111.61 29.2071L110.933 28.4707L111.095 28.3224L111.771 29.0588Z" fill="#BCC7BD" mask="url(#path-12-outside-6_2314_12261)"/>
<mask id="path-14-outside-7_2314_12261" maskUnits="userSpaceOnUse" x="20.5685" y="84.4037" width="23.8187" height="23.8187" fill="black">
<rect fill="white" x="20.5685" y="84.4037" width="23.8187" height="23.8187"/>
<path d="M42.779 101.988L42.5869 101.973C35.7115 98.5913 28.7944 95.036 22.0271 91.4023L21.9203 91.0518L22.2724 90.9444C29.0357 94.5756 35.9472 98.1283 42.8164 101.506L42.9339 101.855L42.779 101.988"/>
</mask>
<path d="M42.779 101.988L42.5869 101.973C35.7115 98.5913 28.7944 95.036 22.0271 91.4023L21.9203 91.0518L22.2724 90.9444C29.0357 94.5756 35.9472 98.1283 42.8164 101.506L42.9339 101.855L42.779 101.988" fill="#BCC7BD"/>
<path d="M42.5869 101.973L42.5469 102.471L42.4518 102.464L42.3662 102.421L42.5869 101.973ZM22.0271 91.4023L21.7906 91.8428L21.609 91.7452L21.5489 91.548L22.0271 91.4023ZM21.9203 91.0518L21.442 91.1976L21.2963 90.7193L21.7745 90.5735L21.9203 91.0518ZM22.2724 90.9444L22.1266 90.4662L22.3256 90.4055L22.5089 90.5039L22.2724 90.9444ZM42.8164 101.506L43.037 101.057L43.2238 101.149L43.2902 101.346L42.8164 101.506ZM42.9339 101.855L43.4077 101.695L43.5151 102.014L43.2605 102.233L42.9339 101.855ZM42.739 102.487L42.5469 102.471L42.6268 101.474L42.8189 101.49L42.739 102.487ZM42.3662 102.421C35.4856 99.0373 28.5631 95.4793 21.7906 91.8428L22.2637 90.9617C29.0257 94.5926 35.9375 98.1452 42.8075 101.524L42.3662 102.421ZM21.5489 91.548L21.442 91.1976L22.3986 90.906L22.5054 91.2565L21.5489 91.548ZM21.7745 90.5735L22.1266 90.4662L22.4182 91.4227L22.0661 91.5301L21.7745 90.5735ZM22.5089 90.5039C29.2669 94.1322 36.1731 97.6823 43.037 101.057L42.5958 101.954C35.7212 98.5744 28.8044 95.0189 22.0359 91.385L22.5089 90.5039ZM43.2902 101.346L43.4077 101.695L42.4601 102.014L42.3425 101.665L43.2902 101.346ZM43.2605 102.233L43.1056 102.367L42.4524 101.61L42.6073 101.476L43.2605 102.233Z" fill="#BCC7BD" mask="url(#path-14-outside-7_2314_12261)"/>
<mask id="path-16-outside-8_2314_12261" maskUnits="userSpaceOnUse" x="95.1154" y="9.41933" width="23.8187" height="23.8187" fill="black">
<rect fill="white" x="95.1154" y="9.41933" width="23.8187" height="23.8187"/>
<path d="M117.326 27.0038L117.134 26.9884C110.258 23.6069 103.341 20.0516 96.574 16.4179L96.4672 16.0674L96.8193 15.9601C103.583 19.5912 110.494 23.144 117.363 26.5213L117.481 26.8701L117.326 27.0038"/>
</mask>
<path d="M117.326 27.0038L117.134 26.9884C110.258 23.6069 103.341 20.0516 96.574 16.4179L96.4672 16.0674L96.8193 15.9601C103.583 19.5912 110.494 23.144 117.363 26.5213L117.481 26.8701L117.326 27.0038" fill="#BCC7BD"/>
<path d="M117.134 26.9884L117.094 27.4868L116.999 27.4791L116.913 27.437L117.134 26.9884ZM96.574 16.4179L96.3375 16.8584L96.1558 16.7609L96.0957 16.5637L96.574 16.4179ZM96.4672 16.0674L95.9889 16.2132L95.8431 15.7349L96.3214 15.5891L96.4672 16.0674ZM96.8193 15.9601L96.6735 15.4818L96.8725 15.4211L97.0558 15.5196L96.8193 15.9601ZM117.363 26.5213L117.584 26.0726L117.771 26.1644L117.837 26.3616L117.363 26.5213ZM117.481 26.8701L117.955 26.7105L118.062 27.0291L117.807 27.2487L117.481 26.8701ZM117.286 27.5022L117.094 27.4868L117.174 26.49L117.366 26.5054L117.286 27.5022ZM116.913 27.437C110.032 24.053 103.11 20.495 96.3375 16.8584L96.8106 15.9774C103.573 19.6083 110.484 23.1608 117.354 26.5397L116.913 27.437ZM96.0957 16.5637L95.9889 16.2132L96.9455 15.9216L97.0523 16.2721L96.0957 16.5637ZM96.3214 15.5891L96.6735 15.4818L96.9651 16.4383L96.613 16.5457L96.3214 15.5891ZM97.0558 15.5196C103.814 19.1479 110.72 22.6979 117.584 26.0726L117.143 26.97C110.268 23.59 103.351 20.0346 96.5828 16.4006L97.0558 15.5196ZM117.837 26.3616L117.955 26.7105L117.007 27.0298L116.889 26.6809L117.837 26.3616ZM117.807 27.2487L117.652 27.3824L116.999 26.6252L117.154 26.4915L117.807 27.2487Z" fill="#BCC7BD" mask="url(#path-16-outside-8_2314_12261)"/>
<mask id="path-18-outside-9_2314_12261" maskUnits="userSpaceOnUse" x="24.3706" y="81.124" width="26.0264" height="25.3718" fill="black">
<rect fill="white" x="24.3706" y="81.124" width="26.0264" height="25.3718"/>
<path d="M48.6465 99.7072L48.4541 99.6906L25.7375 88.4041L25.6202 88.0558L25.9694 87.9393L48.6845 99.2263L48.8015 99.5735L48.6465 99.7072"/>
</mask>
<path d="M48.6465 99.7072L48.4541 99.6906L25.7375 88.4041L25.6202 88.0558L25.9694 87.9393L48.6845 99.2263L48.8015 99.5735L48.6465 99.7072" fill="#BCC7BD"/>
<path d="M48.4541 99.6906L48.4112 100.189L48.3166 100.181L48.2316 100.138L48.4541 99.6906ZM25.7375 88.4041L25.515 88.8519L25.3298 88.7598L25.2637 88.5638L25.7375 88.4041ZM25.6202 88.0558L25.1463 88.2155L24.9862 87.7403L25.4619 87.5815L25.6202 88.0558ZM25.9694 87.9393L25.8111 87.465L26.007 87.3997L26.1919 87.4916L25.9694 87.9393ZM48.6845 99.2263L48.907 98.7785L49.0922 98.8706L49.1583 99.0666L48.6845 99.2263ZM48.8015 99.5735L49.2753 99.4139L49.3826 99.7325L49.128 99.9521L48.8015 99.5735ZM48.6036 100.205L48.4112 100.189L48.4969 99.1924L48.6894 99.209L48.6036 100.205ZM48.2316 100.138L25.515 88.8519L25.96 87.9563L48.6765 99.2428L48.2316 100.138ZM25.2637 88.5638L25.1463 88.2155L26.094 87.8962L26.2113 88.2445L25.2637 88.5638ZM25.4619 87.5815L25.8111 87.465L26.1276 88.4136L25.7784 88.5301L25.4619 87.5815ZM26.1919 87.4916L48.907 98.7785L48.462 99.674L25.7469 88.3871L26.1919 87.4916ZM49.1583 99.0666L49.2753 99.4139L48.3276 99.7332L48.2106 99.3859L49.1583 99.0666ZM49.128 99.9521L48.9731 100.086L48.32 99.3286L48.4749 99.1949L49.128 99.9521Z" fill="#BCC7BD" mask="url(#path-18-outside-9_2314_12261)"/>
<mask id="path-20-outside-10_2314_12261" maskUnits="userSpaceOnUse" x="98.9174" y="6.13963" width="26.0264" height="25.3718" fill="black">
<rect fill="white" x="98.9174" y="6.13963" width="26.0264" height="25.3718"/>
<path d="M123.193 24.7228L123.001 24.7062L100.284 13.4198L100.167 13.0715L100.516 12.9549L123.231 24.2419L123.348 24.5892L123.193 24.7228"/>
</mask>
<path d="M123.193 24.7228L123.001 24.7062L100.284 13.4198L100.167 13.0715L100.516 12.9549L123.231 24.2419L123.348 24.5892L123.193 24.7228" fill="#BCC7BD"/>
<path d="M123.001 24.7062L122.958 25.2044L122.863 25.1962L122.778 25.154L123.001 24.7062ZM100.284 13.4198L100.062 13.8675L99.8766 13.7755L99.8106 13.5794L100.284 13.4198ZM100.167 13.0715L99.6932 13.2311L99.5331 12.7559L100.009 12.5972L100.167 13.0715ZM100.516 12.9549L100.358 12.4807L100.554 12.4153L100.739 12.5072L100.516 12.9549ZM123.231 24.2419L123.454 23.7941L123.639 23.8862L123.705 24.0822L123.231 24.2419ZM123.348 24.5892L123.822 24.4295L123.93 24.7482L123.675 24.9678L123.348 24.5892ZM123.151 25.221L122.958 25.2044L123.044 24.2081L123.236 24.2246L123.151 25.221ZM122.778 25.154L100.062 13.8675L100.507 12.972L123.223 24.2584L122.778 25.154ZM99.8106 13.5794L99.6932 13.2311L100.641 12.9118L100.758 13.2601L99.8106 13.5794ZM100.009 12.5972L100.358 12.4807L100.675 13.4292L100.325 13.5458L100.009 12.5972ZM100.739 12.5072L123.454 23.7941L123.009 24.6896L100.294 13.4027L100.739 12.5072ZM123.705 24.0822L123.822 24.4295L122.875 24.7488L122.758 24.4015L123.705 24.0822ZM123.675 24.9678L123.52 25.1014L122.867 24.3442L123.022 24.2105L123.675 24.9678Z" fill="#BCC7BD" mask="url(#path-20-outside-10_2314_12261)"/>
<mask id="path-22-outside-11_2314_12261" maskUnits="userSpaceOnUse" x="30.419" y="80.6916" width="18.8042" height="18.8042" fill="black">
<rect fill="white" x="30.419" y="80.6916" width="18.8042" height="18.8042"/>
<path d="M48.1995 94.2762L47.9979 94.2562C42.7322 91.3774 37.2891 88.678 31.8194 86.2301L31.6878 85.8876L32.0305 85.7555C37.5133 88.2092 42.9698 90.9158 48.247 93.8004L48.3497 94.1533L48.1995 94.2762"/>
</mask>
<path d="M48.1995 94.2762L47.9979 94.2562C42.7322 91.3774 37.2891 88.678 31.8194 86.2301L31.6878 85.8876L32.0305 85.7555C37.5133 88.2092 42.9698 90.9158 48.247 93.8004L48.3497 94.1533L48.1995 94.2762" fill="#BCC7BD"/>
<path d="M47.9979 94.2562L47.9486 94.7538L47.8474 94.7438L47.7581 94.6949L47.9979 94.2562ZM31.8194 86.2301L31.6151 86.6865L31.4266 86.6022L31.3526 86.4094L31.8194 86.2301ZM31.6878 85.8876L31.221 86.0668L31.042 85.6006L31.508 85.421L31.6878 85.8876ZM32.0305 85.7555L31.8507 85.289L32.0448 85.2141L32.2348 85.2991L32.0305 85.7555ZM48.247 93.8004L48.4868 93.3617L48.669 93.4613L48.727 93.6606L48.247 93.8004ZM48.3497 94.1533L48.8298 94.0135L48.9223 94.331L48.6663 94.5404L48.3497 94.1533ZM48.1502 94.7738L47.9486 94.7538L48.0472 93.7587L48.2487 93.7786L48.1502 94.7738ZM47.7581 94.6949C42.504 91.8225 37.0728 89.129 31.6151 86.6865L32.0236 85.7738C37.5054 88.227 42.9604 90.9323 48.2378 93.8175L47.7581 94.6949ZM31.3526 86.4094L31.221 86.0668L32.1546 85.7083L32.2861 86.0509L31.3526 86.4094ZM31.508 85.421L31.8507 85.289L32.2103 86.2221L31.8676 86.3541L31.508 85.421ZM32.2348 85.2991C37.7296 87.7582 43.198 90.4707 48.4868 93.3617L48.0072 94.2392C42.7416 91.3608 37.297 88.6602 31.8263 86.2119L32.2348 85.2991ZM48.727 93.6606L48.8298 94.0135L47.8697 94.2931L47.7669 93.9402L48.727 93.6606ZM48.6663 94.5404L48.516 94.6633L47.8829 93.8891L48.0332 93.7662L48.6663 94.5404Z" fill="#BCC7BD" mask="url(#path-22-outside-11_2314_12261)"/>
<mask id="path-24-outside-12_2314_12261" maskUnits="userSpaceOnUse" x="104.97" y="5.69941" width="18.8042" height="18.8042" fill="black">
<rect fill="white" x="104.97" y="5.69941" width="18.8042" height="18.8042"/>
<path d="M122.75 19.284L122.549 19.264C117.283 16.3852 111.84 13.6858 106.37 11.238L106.239 10.8954L106.581 10.7633C112.064 13.217 117.521 15.9236 122.798 18.8082L122.901 19.1611L122.75 19.284"/>
</mask>
<path d="M122.75 19.284L122.549 19.264C117.283 16.3852 111.84 13.6858 106.37 11.238L106.239 10.8954L106.581 10.7633C112.064 13.217 117.521 15.9236 122.798 18.8082L122.901 19.1611L122.75 19.284" fill="#BCC7BD"/>
<path d="M122.549 19.264L122.499 19.7616L122.398 19.7516L122.309 19.7028L122.549 19.264ZM106.37 11.238L106.166 11.6943L105.977 11.61L105.903 11.4172L106.37 11.238ZM106.239 10.8954L105.772 11.0746L105.593 10.6084L106.059 10.4288L106.239 10.8954ZM106.581 10.7633L106.401 10.2968L106.596 10.2219L106.786 10.3069L106.581 10.7633ZM122.798 18.8082L123.038 18.3695L123.22 18.4691L123.278 18.6684L122.798 18.8082ZM122.901 19.1611L123.381 19.0213L123.473 19.3388L123.217 19.5482L122.901 19.1611ZM122.701 19.7816L122.499 19.7616L122.598 18.7665L122.8 18.7864L122.701 19.7816ZM122.309 19.7028C117.055 16.8303 111.624 14.1368 106.166 11.6943L106.574 10.7816C112.056 13.2348 117.511 15.9401 122.789 18.8253L122.309 19.7028ZM105.903 11.4172L105.772 11.0746L106.705 10.7162L106.837 11.0587L105.903 11.4172ZM106.059 10.4288L106.401 10.2968L106.761 11.2299L106.418 11.3619L106.059 10.4288ZM106.786 10.3069C112.28 12.766 117.749 15.4785 123.038 18.3695L122.558 19.247C117.292 16.3687 111.848 13.668 106.377 11.2197L106.786 10.3069ZM123.278 18.6684L123.381 19.0213L122.42 19.3009L122.318 18.948L123.278 18.6684ZM123.217 19.5482L123.067 19.6711L122.434 18.8969L122.584 18.774L123.217 19.5482Z" fill="#BCC7BD" mask="url(#path-24-outside-12_2314_12261)"/>
<mask id="path-26-outside-13_2314_12261" maskUnits="userSpaceOnUse" x="36.9844" y="80.6935" width="10.0289" height="10.0289" fill="black">
<rect fill="white" x="36.9844" y="80.6935" width="10.0289" height="10.0289"/>
<path d="M45.7208 87.6838L45.5135 87.6609C43.1761 86.3137 40.7523 85.0531 38.3103 83.9183L38.1843 83.5732L38.529 83.4475C40.9844 84.5893 43.4214 85.8559 45.7741 87.2113L45.8693 87.5653L45.7208 87.6838"/>
</mask>
<path d="M45.7208 87.6838L45.5135 87.6609C43.1761 86.3137 40.7523 85.0531 38.3103 83.9183L38.1843 83.5732L38.529 83.4475C40.9844 84.5893 43.4214 85.8559 45.7741 87.2113L45.8693 87.5653L45.7208 87.6838" fill="#BCC7BD"/>
<path d="M45.5135 87.6609L45.4584 88.1578L45.3544 88.1463L45.2638 88.0941L45.5135 87.6609ZM38.3103 83.9183L38.0996 84.3717L37.9116 84.2844L37.8406 84.0897L38.3103 83.9183ZM38.1843 83.5732L37.7146 83.7446L37.5431 83.2747L38.0131 83.1034L38.1843 83.5732ZM38.529 83.4475L38.3578 82.9777L38.5522 82.9069L38.7399 82.9941L38.529 83.4475ZM45.7741 87.2113L46.0237 86.7781L46.2032 86.8815L46.257 87.0816L45.7741 87.2113ZM45.8693 87.5653L46.3521 87.4355L46.4372 87.7519L46.1811 87.9562L45.8693 87.5653ZM45.6657 88.1808L45.4584 88.1578L45.5685 87.1639L45.7758 87.1869L45.6657 88.1808ZM45.2638 88.0941C42.9389 86.7541 40.5281 85.5003 38.0996 84.3717L38.521 83.4649C40.9765 84.606 43.4133 85.8733 45.7631 87.2277L45.2638 88.0941ZM37.8406 84.0897L37.7146 83.7446L38.654 83.4017L38.78 83.7468L37.8406 84.0897ZM38.0131 83.1034L38.3578 82.9777L38.7003 83.9173L38.3556 84.0429L38.0131 83.1034ZM38.7399 82.9941C41.2086 84.1422 43.6584 85.4155 46.0237 86.7781L45.5245 87.6446C43.1843 86.2964 40.7603 85.0365 38.3182 83.9009L38.7399 82.9941ZM46.257 87.0816L46.3521 87.4355L45.3864 87.6951L45.2913 87.3411L46.257 87.0816ZM46.1811 87.9562L46.0326 88.0747L45.4089 87.293L45.5574 87.1745L46.1811 87.9562Z" fill="#BCC7BD" mask="url(#path-26-outside-13_2314_12261)"/>
<mask id="path-28-outside-14_2314_12261" maskUnits="userSpaceOnUse" x="60.5261" y="64.9861" width="8.77529" height="8.77529" fill="black">
<rect fill="white" x="60.5261" y="64.9861" width="8.77529" height="8.77529"/>
<path d="M68.2052 70.9608L68.0449 70.9599C65.872 70.2283 63.7918 69.2313 61.8602 67.9937L61.7811 67.6347L62.1408 67.5567C64.0361 68.7706 66.0775 69.7511 68.2105 70.4677L68.3729 70.7962L68.2052 70.9608"/>
</mask>
<path d="M68.2052 70.9608L68.0449 70.9599C65.872 70.2283 63.7918 69.2313 61.8602 67.9937L61.7811 67.6347L62.1408 67.5567C64.0361 68.7706 66.0775 69.7511 68.2105 70.4677L68.3729 70.7962L68.2052 70.9608" fill="#BCC7BD"/>
<path d="M68.0449 70.9599L68.0421 71.4599L67.9616 71.4594L67.8853 71.4337L68.0449 70.9599ZM61.8602 67.9937L61.5905 68.4147L61.4164 68.3032L61.3719 68.1013L61.8602 67.9937ZM61.7811 67.6347L61.2928 67.7423L61.1849 67.2524L61.6751 67.1461L61.7811 67.6347ZM62.1408 67.5567L62.0348 67.068L62.2366 67.0243L62.4104 67.1356L62.1408 67.5567ZM68.2105 70.4677L68.3697 69.9937L68.5667 70.0599L68.6587 70.2461L68.2105 70.4677ZM68.3729 70.7962L68.8211 70.5747L68.9816 70.8994L68.7231 71.1531L68.3729 70.7962ZM68.2025 71.4608L68.0421 71.4599L68.0476 70.4599L68.208 70.4608L68.2025 71.4608ZM67.8853 71.4337C65.6738 70.6891 63.5566 69.6744 61.5905 68.4147L62.1299 67.5727C64.027 68.7882 66.0701 69.7674 68.2044 70.486L67.8853 71.4337ZM61.3719 68.1013L61.2928 67.7423L62.2694 67.5271L62.3485 67.8861L61.3719 68.1013ZM61.6751 67.1461L62.0348 67.068L62.2468 68.0453L61.8871 68.1233L61.6751 67.1461ZM62.4104 67.1356C64.2715 68.3276 66.2759 69.2903 68.3697 69.9937L68.0513 70.9417C65.8791 70.2119 63.8007 69.2136 61.8711 67.9777L62.4104 67.1356ZM68.6587 70.2461L68.8211 70.5747L67.9247 71.0178L67.7623 70.6892L68.6587 70.2461ZM68.7231 71.1531L68.5554 71.3176L67.855 70.6039L68.0227 70.4394L68.7231 71.1531Z" fill="#BCC7BD" mask="url(#path-28-outside-14_2314_12261)"/>
<mask id="path-30-outside-15_2314_12261" maskUnits="userSpaceOnUse" x="58.2185" y="56.2499" width="17.5506" height="17.5506" fill="black">
<rect fill="white" x="58.2185" y="56.2499" width="17.5506" height="17.5506"/>
<path d="M74.6037 68.9249L74.4265 68.916C69.3918 66.8037 64.4233 64.3719 59.6579 61.6897L59.5599 61.3367L59.9128 61.2371C64.6607 63.9096 69.6122 66.3331 74.6268 68.4374L74.7652 68.7765L74.6037 68.9249"/>
</mask>
<path d="M74.6037 68.9249L74.4265 68.916C69.3918 66.8037 64.4233 64.3719 59.6579 61.6897L59.5599 61.3367L59.9128 61.2371C64.6607 63.9096 69.6122 66.3331 74.6268 68.4374L74.7652 68.7765L74.6037 68.9249" fill="#BCC7BD"/>
<path d="M74.4265 68.916L74.4015 69.4154L74.3139 69.411L74.233 69.3771L74.4265 68.916ZM59.6579 61.6897L59.4127 62.1255L59.2317 62.0236L59.1762 61.8235L59.6579 61.6897ZM59.5599 61.3367L59.0781 61.4704L58.9449 60.9907L59.4241 60.8554L59.5599 61.3367ZM59.9128 61.2371L59.777 60.7559L59.977 60.6994L60.1581 60.8014L59.9128 61.2371ZM74.6268 68.4374L74.8203 67.9764L75.0113 68.0566L75.0897 68.2484L74.6268 68.4374ZM74.7652 68.7765L75.2281 68.5875L75.3596 68.9095L75.1035 69.1447L74.7652 68.7765ZM74.5788 69.4242L74.4015 69.4154L74.4514 68.4166L74.6287 68.4255L74.5788 69.4242ZM74.233 69.3771C69.1806 67.2573 64.1947 64.817 59.4127 62.1255L59.9032 61.254C64.6519 63.9268 69.6031 66.3502 74.6199 68.4549L74.233 69.3771ZM59.1762 61.8235L59.0781 61.4704L60.0417 61.2029L60.1397 61.556L59.1762 61.8235ZM59.4241 60.8554L59.777 60.7559L60.0486 61.7183L59.6957 61.8179L59.4241 60.8554ZM60.1581 60.8014C64.8893 63.4645 69.8235 65.8795 74.8203 67.9764L74.4333 68.8985C69.4009 66.7867 64.4322 64.3547 59.6675 61.6728L60.1581 60.8014ZM75.0897 68.2484L75.2281 68.5875L74.3023 68.9655L74.1639 68.6264L75.0897 68.2484ZM75.1035 69.1447L74.942 69.2931L74.2655 68.5566L74.427 68.4083L75.1035 69.1447Z" fill="#BCC7BD" mask="url(#path-30-outside-15_2314_12261)"/>
<mask id="path-32-outside-16_2314_12261" maskUnits="userSpaceOnUse" x="58.4474" y="49.5053" width="23.8187" height="23.8187" fill="black">
<rect fill="white" x="58.4474" y="49.5053" width="23.8187" height="23.8187"/>
<path d="M80.6579 67.0897L80.4658 67.0743C73.5904 63.6928 66.6733 60.1375 59.906 56.5038L59.7992 56.1534L60.1513 56.046C66.9146 59.6772 73.8261 63.2299 80.6953 66.6072L80.8128 66.9561L80.6579 67.0897"/>
</mask>
<path d="M80.6579 67.0897L80.4658 67.0743C73.5904 63.6928 66.6733 60.1375 59.906 56.5038L59.7992 56.1534L60.1513 56.046C66.9146 59.6772 73.8261 63.2299 80.6953 66.6072L80.8128 66.9561L80.6579 67.0897" fill="#BCC7BD"/>
<path d="M80.4658 67.0743L80.4258 67.5727L80.3307 67.5651L80.2451 67.523L80.4658 67.0743ZM59.906 56.5038L59.6695 56.9443L59.4879 56.8468L59.4278 56.6496L59.906 56.5038ZM59.7992 56.1534L59.3209 56.2991L59.1752 55.8209L59.6534 55.6751L59.7992 56.1534ZM60.1513 56.046L60.0055 55.5677L60.2045 55.5071L60.3878 55.6055L60.1513 56.046ZM80.6953 66.6072L80.9159 66.1585L81.1027 66.2503L81.1691 66.4476L80.6953 66.6072ZM80.8128 66.9561L81.2867 66.7964L81.394 67.1151L81.1394 67.3347L80.8128 66.9561ZM80.6179 67.5881L80.4258 67.5727L80.5057 66.5759L80.6979 66.5913L80.6179 67.5881ZM80.2451 67.523C73.3645 64.1389 66.442 60.5809 59.6695 56.9443L60.1426 56.0633C66.9046 59.6942 73.8164 63.2468 80.6865 66.6256L80.2451 67.523ZM59.4278 56.6496L59.3209 56.2991L60.2775 56.0076L60.3843 56.358L59.4278 56.6496ZM59.6534 55.6751L60.0055 55.5677L60.2971 56.5243L59.945 56.6316L59.6534 55.6751ZM60.3878 55.6055C67.1458 59.2338 74.052 62.7838 80.9159 66.1585L80.4747 67.0559C73.6001 63.676 66.6833 60.1205 59.9148 56.4865L60.3878 55.6055ZM81.1691 66.4476L81.2867 66.7964L80.339 67.1157L80.2215 66.7668L81.1691 66.4476ZM81.1394 67.3347L80.9845 67.4683L80.3313 66.7111L80.4862 66.5775L81.1394 67.3347Z" fill="#BCC7BD" mask="url(#path-32-outside-16_2314_12261)"/>
<mask id="path-34-outside-17_2314_12261" maskUnits="userSpaceOnUse" x="62.2534" y="46.2256" width="26.0264" height="25.3718" fill="black">
<rect fill="white" x="62.2534" y="46.2256" width="26.0264" height="25.3718"/>
<path d="M86.5293 64.8087L86.3369 64.7922L63.6203 53.5057L63.503 53.1574L63.8522 53.0409L86.5673 64.3278L86.6843 64.6751L86.5293 64.8087"/>
</mask>
<path d="M86.5293 64.8087L86.3369 64.7922L63.6203 53.5057L63.503 53.1574L63.8522 53.0409L86.5673 64.3278L86.6843 64.6751L86.5293 64.8087" fill="#BCC7BD"/>
<path d="M86.3369 64.7922L86.294 65.2903L86.1994 65.2822L86.1144 65.2399L86.3369 64.7922ZM63.6203 53.5057L63.3979 53.9535L63.2126 53.8614L63.1465 53.6653L63.6203 53.5057ZM63.503 53.1574L63.0292 53.3171L62.869 52.8418L63.3447 52.6831L63.503 53.1574ZM63.8522 53.0409L63.694 52.5666L63.8898 52.5012L64.0747 52.5931L63.8522 53.0409ZM86.5673 64.3278L86.7898 63.88L86.9751 63.9721L87.0411 64.1682L86.5673 64.3278ZM86.6843 64.6751L87.1581 64.5155L87.2655 64.8341L87.0109 65.0537L86.6843 64.6751ZM86.4865 65.3069L86.294 65.2903L86.3798 64.294L86.5722 64.3106L86.4865 65.3069ZM86.1144 65.2399L63.3979 53.9535L63.8428 53.0579L86.5593 64.3444L86.1144 65.2399ZM63.1465 53.6653L63.0292 53.3171L63.9768 52.9977L64.0942 53.346L63.1465 53.6653ZM63.3447 52.6831L63.694 52.5666L64.0104 53.5152L63.6612 53.6317L63.3447 52.6831ZM64.0747 52.5931L86.7898 63.88L86.3448 64.7756L63.6297 53.4887L64.0747 52.5931ZM87.0411 64.1682L87.1581 64.5155L86.2104 64.8347L86.0934 64.4874L87.0411 64.1682ZM87.0109 65.0537L86.8559 65.1873L86.2028 64.4301L86.3577 64.2965L87.0109 65.0537Z" fill="#BCC7BD" mask="url(#path-34-outside-17_2314_12261)"/>
<mask id="path-36-outside-18_2314_12261" maskUnits="userSpaceOnUse" x="68.3018" y="45.7932" width="18.8042" height="18.8042" fill="black">
<rect fill="white" x="68.3018" y="45.7932" width="18.8042" height="18.8042"/>
<path d="M86.0823 59.3778L85.8807 59.3578C80.615 56.479 75.1719 53.7796 69.7022 51.3317L69.5706 50.9891L69.9133 50.8571C75.3961 53.3108 80.8526 56.0173 86.1298 58.902L86.2326 59.2549L86.0823 59.3778"/>
</mask>
<path d="M86.0823 59.3778L85.8807 59.3578C80.615 56.479 75.1719 53.7796 69.7022 51.3317L69.5706 50.9891L69.9133 50.8571C75.3961 53.3108 80.8526 56.0173 86.1298 58.902L86.2326 59.2549L86.0823 59.3778" fill="#BCC7BD"/>
<path d="M85.8807 59.3578L85.8314 59.8554L85.7302 59.8453L85.6409 59.7965L85.8807 59.3578ZM69.7022 51.3317L69.4979 51.7881L69.3094 51.7037L69.2354 51.5109L69.7022 51.3317ZM69.5706 50.9891L69.1039 51.1684L68.9248 50.7022L69.3908 50.5226L69.5706 50.9891ZM69.9133 50.8571L69.7335 50.3905L69.9277 50.3157L70.1176 50.4007L69.9133 50.8571ZM86.1298 58.902L86.3696 58.4633L86.5518 58.5628L86.6098 58.7622L86.1298 58.902ZM86.2326 59.2549L86.7126 59.115L86.8051 59.4326L86.5491 59.6419L86.2326 59.2549ZM86.033 59.8753L85.8314 59.8554L85.93 58.8602L86.1316 58.8802L86.033 59.8753ZM85.6409 59.7965C80.3868 56.9241 74.9556 54.2306 69.4979 51.7881L69.9064 50.8753C75.3882 53.3286 80.8432 56.0339 86.1206 58.9191L85.6409 59.7965ZM69.2354 51.5109L69.1039 51.1684L70.0374 50.8099L70.1689 51.1525L69.2354 51.5109ZM69.3908 50.5226L69.7335 50.3905L70.0931 51.3236L69.7504 51.4557L69.3908 50.5226ZM70.1176 50.4007C75.6124 52.8598 81.0808 55.5722 86.3696 58.4633L85.89 59.3407C80.6245 56.4624 75.1798 53.7618 69.7091 51.3135L70.1176 50.4007ZM86.6098 58.7622L86.7126 59.115L85.7525 59.3947L85.6497 59.0418L86.6098 58.7622ZM86.5491 59.6419L86.3988 59.7648L85.7658 58.9907L85.916 58.8678L86.5491 59.6419Z" fill="#BCC7BD" mask="url(#path-36-outside-18_2314_12261)"/>
<mask id="path-38-outside-19_2314_12261" maskUnits="userSpaceOnUse" x="74.8633" y="45.795" width="10.0289" height="10.0289" fill="black">
<rect fill="white" x="74.8633" y="45.795" width="10.0289" height="10.0289"/>
<path d="M83.5997 52.7854L83.3924 52.7624C81.055 51.4153 78.6312 50.1547 76.1892 49.0198L76.0632 48.6747L76.408 48.5491C78.8634 49.6909 81.3003 50.9575 83.653 52.3129L83.7482 52.6669L83.5997 52.7854"/>
</mask>
<path d="M83.5997 52.7854L83.3924 52.7624C81.055 51.4153 78.6312 50.1547 76.1892 49.0198L76.0632 48.6747L76.408 48.5491C78.8634 49.6909 81.3003 50.9575 83.653 52.3129L83.7482 52.6669L83.5997 52.7854" fill="#BCC7BD"/>
<path d="M83.3924 52.7624L83.3373 53.2594L83.2333 53.2479L83.1427 53.1956L83.3924 52.7624ZM76.1892 49.0198L75.9785 49.4733L75.7905 49.3859L75.7195 49.1913L76.1892 49.0198ZM76.0632 48.6747L75.5935 48.8462L75.422 48.3763L75.892 48.205L76.0632 48.6747ZM76.408 48.5491L76.2367 48.0793L76.4311 48.0084L76.6188 48.0957L76.408 48.5491ZM83.653 52.3129L83.9026 51.8797L84.0821 51.9831L84.1359 52.1831L83.653 52.3129ZM83.7482 52.6669L84.231 52.5371L84.3161 52.8534L84.06 53.0577L83.7482 52.6669ZM83.5446 53.2823L83.3373 53.2594L83.4474 52.2655L83.6547 52.2884L83.5446 53.2823ZM83.1427 53.1956C80.8178 51.8557 78.407 50.6019 75.9785 49.4733L76.3999 48.5664C78.8554 49.7075 81.2922 50.9749 83.642 52.3292L83.1427 53.1956ZM75.7195 49.1913L75.5935 48.8462L76.5329 48.5033L76.6589 48.8484L75.7195 49.1913ZM75.892 48.205L76.2367 48.0793L76.5792 49.0188L76.2345 49.1445L75.892 48.205ZM76.6188 48.0957C79.0875 49.2437 81.5374 50.517 83.9026 51.8797L83.4034 52.7462C81.0632 51.3979 78.6392 50.1381 76.1971 49.0024L76.6188 48.0957ZM84.1359 52.1831L84.231 52.5371L83.2653 52.7967L83.1702 52.4427L84.1359 52.1831ZM84.06 53.0577L83.9115 53.1762L83.2878 52.3945L83.4363 52.2761L84.06 53.0577Z" fill="#BCC7BD" mask="url(#path-38-outside-19_2314_12261)"/>
<mask id="path-40-outside-20_2314_12261" maskUnits="userSpaceOnUse" x="111.531" y="5.70908" width="10.0289" height="10.0289" fill="black">
<rect fill="white" x="111.531" y="5.70908" width="10.0289" height="10.0289"/>
<path d="M120.268 12.6994L120.06 12.6765C117.723 11.3293 115.299 10.0688 112.857 8.93391L112.731 8.5888L113.076 8.46313C115.531 9.60497 117.968 10.8715 120.321 12.227L120.416 12.581L120.268 12.6994"/>
</mask>
<path d="M120.268 12.6994L120.06 12.6765C117.723 11.3293 115.299 10.0688 112.857 8.93391L112.731 8.5888L113.076 8.46313C115.531 9.60497 117.968 10.8715 120.321 12.227L120.416 12.581L120.268 12.6994" fill="#BCC7BD"/>
<path d="M120.06 12.6765L120.005 13.1734L119.901 13.1619L119.811 13.1097L120.06 12.6765ZM112.857 8.93391L112.646 9.38733L112.459 9.30001L112.387 9.10535L112.857 8.93391ZM112.731 8.5888L112.261 8.76024L112.09 8.29037L112.56 8.11905L112.731 8.5888ZM113.076 8.46313L112.905 7.99337L113.099 7.92249L113.287 8.00975L113.076 8.46313ZM120.321 12.227L120.571 11.7937L120.75 11.8971L120.804 12.0972L120.321 12.227ZM120.416 12.581L120.899 12.4512L120.984 12.7675L120.728 12.9718L120.416 12.581ZM120.213 13.1964L120.005 13.1734L120.115 12.1795L120.323 12.2025L120.213 13.1964ZM119.811 13.1097C117.486 11.7697 115.075 10.5159 112.646 9.38733L113.068 8.48048C115.523 9.62159 117.96 10.889 120.31 12.2433L119.811 13.1097ZM112.387 9.10535L112.261 8.76024L113.201 8.41736L113.327 8.76246L112.387 9.10535ZM112.56 8.11905L112.905 7.99337L113.247 8.93289L112.902 9.05856L112.56 8.11905ZM113.287 8.00975C115.755 9.15779 118.205 10.4311 120.571 11.7937L120.071 12.6602C117.731 11.312 115.307 10.0521 112.865 8.9165L113.287 8.00975ZM120.804 12.0972L120.899 12.4512L119.933 12.7107L119.838 12.3568L120.804 12.0972ZM120.728 12.9718L120.579 13.0903L119.956 12.3086L120.104 12.1901L120.728 12.9718Z" fill="#BCC7BD" mask="url(#path-40-outside-20_2314_12261)"/>
<path d="M141.178 74.5715C141.121 74.5893 141.064 74.6042 141.005 74.6158L141.344 74.5092C141.29 74.5333 141.235 74.5536 141.178 74.5715Z" fill="#DEDEDE"/>
<path d="M141.345 74.5057L141.006 74.6122C140.342 74.7551 139.603 74.5549 139.19 73.993C139.074 73.8905 138.992 73.7657 138.929 73.6316L141.501 72.8242L128.383 31.038C129.342 33.7251 130.335 36.4002 131.329 39.073C132.322 42.3217 133.405 45.5431 134.737 48.6723C135.841 51.2582 136.535 53.9918 137.361 56.6732C138.569 59.916 139.409 63.2684 140.459 66.5629C140.891 67.8891 141.282 69.2307 141.792 70.5287C142.316 71.7504 143.019 73.4621 141.615 74.3653C141.529 74.4191 141.439 74.467 141.345 74.5057ZM124.24 17.8438L119.566 2.95339L116.946 3.77587C116.902 2.89004 117.397 2.33294 118.018 2.13807C118.954 1.84439 120.171 2.37646 120.24 3.85723C121.191 7.80263 122.521 11.6441 123.592 15.5582C123.813 16.318 124.028 17.0812 124.24 17.8438Z" fill="#BCC7BD"/>
<path d="M96.6828 88.53C96.6653 88.5354 96.6458 88.5396 96.6284 88.5451L96.7362 88.5113C96.7187 88.5168 96.7017 88.524 96.6828 88.53Z" fill="#DEDEDE"/>
<path d="M96.7355 88.5119L96.6277 88.5458C95.7982 88.7793 94.801 88.4428 94.4214 87.6058L97.2467 86.7189L91.6028 68.7413C91.7092 69.0343 91.8214 69.3254 91.9353 69.6167C93.3617 74.7008 95.6138 81.1301 97.2527 84.5659C97.5578 85.5582 98.2341 86.6264 97.7066 87.6537C97.4969 88.0872 97.1414 88.372 96.7355 88.5119V88.5119ZM89.9702 63.5408L85.9842 50.844C86.6767 52.9683 87.3759 55.0885 88.1138 57.1992C88.8097 59.2886 89.3733 61.4203 89.9702 63.5408ZM83.495 43.4711L80.4993 44.4116C80.4081 43.6063 80.9863 42.9446 81.6857 42.725C82.2555 42.5461 82.907 42.6585 83.3471 43.2243C83.3985 43.3065 83.4482 43.3884 83.495 43.4711Z" fill="#BCC7BD"/>
<path d="M51.5041 102.902C51.2316 102.987 50.9419 103.013 50.6634 102.972L52.2341 102.479C52.0279 102.674 51.7751 102.817 51.5041 102.902V102.902ZM43.6799 78.0455L42.9878 78.2628C43.0962 78.2051 43.2075 78.157 43.3241 78.1204C43.4406 78.0838 43.5595 78.0596 43.6799 78.0455Z" fill="#DEDEDE"/>
<path d="M52.2376 102.482L50.6668 102.975C50.2661 102.917 49.8884 102.718 49.6199 102.357C49.4606 102.192 49.352 101.994 49.2677 101.781L52.6395 100.723L52.3143 99.687C52.5323 100.315 52.9069 100.927 52.7297 101.607C52.6594 101.959 52.4803 102.255 52.2376 102.482V102.482ZM51.151 95.9816L50.9255 95.2632C50.9709 95.4028 51.0167 95.5435 51.0625 95.6843C51.0921 95.7836 51.1214 95.882 51.151 95.9816ZM45.4497 79.1262L42.1581 80.1596C41.9466 79.2769 42.3725 78.5991 42.9913 78.2654L43.6834 78.0482C44.3848 77.9674 45.1236 78.2813 45.4497 79.1262Z" fill="#BCC7BD"/>
<path d="M48.6483 99.7078L48.6086 99.7039C48.5447 99.5002 48.481 99.2975 48.4184 99.0928L48.6862 99.2269L48.8032 99.5741L48.6483 99.7078" fill="#BCC7BD"/>
<path d="M48.2007 94.2794L47.9992 94.2595C47.5259 94.001 47.0498 93.744 46.5738 93.4871C46.492 93.247 46.4082 93.0057 46.3247 92.7649C46.9688 93.1085 47.6089 93.4547 48.2483 93.8037L48.351 94.1565L48.2007 94.2794" fill="#BCC7BD"/>
<path d="M45.7184 87.6863L45.5111 87.6633C45.1237 87.439 44.7332 87.2198 44.3409 87.0002C44.2582 86.7572 44.1756 86.5144 44.0942 86.2704C44.6569 86.5789 45.217 86.8947 45.7718 87.2138L45.8669 87.5678L45.7184 87.6863" fill="#BCC7BD"/>
</svg>
