<svg width="80" height="80" viewBox="0 0 80 80" fill="none" xmlns="http://www.w3.org/2000/svg">
<rect width="80" height="80" rx="15" fill="white"/>
<path d="M54.8618 49.6775L45.804 41.5992C45.7503 41.551 45.7183 41.483 45.7162 41.4109C45.7141 41.3388 45.7416 41.2689 45.7925 41.2177L46.6908 40.3131L45.3146 38.9818C45.2639 38.9327 45.235 38.8653 45.2346 38.7949C45.2339 38.7245 45.2618 38.6567 45.3116 38.6069L48.3916 35.5269L47.913 35.0452C47.8109 34.9424 47.8111 34.7765 47.9137 34.6741L50.8752 31.7126C50.9738 31.6138 51.1325 31.6094 51.2364 31.7025L51.7615 32.1727C51.765 32.176 51.7685 32.1793 51.7721 32.1828C52.0002 32.4112 52.253 32.4591 52.4251 32.4591C52.7102 32.4591 53.0051 32.325 53.1588 32.1253C53.1602 32.1232 53.1619 32.1211 53.1635 32.1192C53.2372 32.029 53.2874 31.9112 53.3086 31.7786C53.3123 31.7547 53.3194 31.7314 53.3297 31.7094L55.825 26.3274C55.8562 26.2615 55.8536 26.1617 55.8414 26.0507L55.1791 25.3848C55.1366 25.3806 55.0939 25.3775 55.054 25.3775C55.0042 25.3775 54.9634 25.3822 54.9303 25.3916C54.9192 25.3946 54.9089 25.3984 54.8995 25.4026L49.5213 27.9005C49.499 27.9108 49.4755 27.9181 49.4511 27.9219C49.3117 27.9437 49.2016 27.9899 49.1148 28.0639C49.112 28.0665 49.1089 28.0688 49.1059 28.0712C48.9218 28.2141 48.7918 28.4789 48.7747 28.746C48.7625 28.9351 48.8 29.2133 49.0481 29.4633L49.542 29.9609C49.6438 30.0637 49.6436 30.2294 49.5413 30.3318L46.556 33.321C46.5068 33.3703 46.4399 33.3982 46.3701 33.3982C46.3004 33.3982 46.2335 33.3705 46.1842 33.3212L45.7028 32.8396L42.5719 35.9705C42.4705 36.0721 42.3064 36.0733 42.2031 35.9735L40.8016 34.6171L39.6459 35.7731C39.5471 35.8719 39.3884 35.8759 39.2846 35.7829L38.2619 34.8668C38.1779 34.7915 38.1514 34.6713 38.1955 34.5678C38.334 34.2434 38.4462 33.9134 38.5326 33.58C38.6837 32.997 38.756 32.4041 38.752 31.8154C38.7401 30.0498 38.042 28.3232 36.7313 27.0148C35.4342 25.7154 33.7095 25 31.8747 25C31.2722 25 30.6759 25.0782 30.0971 25.2324L35.9659 31.1007C36.03 31.1647 36.0541 31.2537 36.0382 31.3366C36.0286 31.3863 36.0046 31.4337 35.9661 31.4722L31.4804 35.9657C31.4311 36.015 31.3642 36.043 31.2945 36.043C31.2247 36.043 31.1578 36.0153 31.1085 35.966L25.2391 30.093C24.599 32.463 25.2616 34.9708 27.0185 36.7274C27.4989 37.2079 28.0384 37.6083 28.62 37.9222C29.6084 38.4552 30.7194 38.7385 31.8739 38.7385C31.9908 38.7385 32.1074 38.7357 32.2234 38.7299C33.0358 38.6895 33.8254 38.5076 34.5753 38.1879C34.6793 38.1438 34.8 38.1708 34.8751 38.255L35.791 39.2857C35.8602 39.3636 35.875 39.472 35.8365 39.5626C35.8238 39.5929 35.805 39.6213 35.7804 39.646L28.2627 47.1835C26.6672 48.7827 26.6672 51.3846 28.2627 52.9837C28.4066 53.1281 28.5598 53.2602 28.7208 53.3797C29.4187 53.8975 30.2653 54.1773 31.1594 54.1773C32.1234 54.1773 33.032 53.8526 33.7585 53.256C33.8622 53.1708 33.9622 53.0799 34.0582 52.9837L41.225 45.7935C41.2745 45.7439 41.3414 45.7162 41.4114 45.7162C41.4137 45.7162 41.4161 45.7162 41.4187 45.7165C41.4912 45.7184 41.5593 45.7503 41.6076 45.8043L49.6866 54.8543C50.3119 55.557 51.2003 55.9438 52.1885 55.9438C53.1821 55.9438 54.1529 55.5427 54.8524 54.8435C55.5774 54.1185 55.9769 53.1115 55.9483 52.0806C55.9217 51.1335 55.5363 50.28 54.8627 49.6775L54.8618 49.6775ZM30.7259 52.094C29.7668 52.094 28.9864 51.3136 28.9864 50.3542C28.9864 49.3949 29.7668 48.6145 30.7259 48.6145C31.6873 48.6145 32.4694 49.3949 32.4694 50.3542C32.4694 51.3136 31.6873 52.094 30.7259 52.094ZM54.1149 52.4318C54.0919 52.8712 53.9093 53.2793 53.5948 53.5894C53.2601 53.9244 52.8139 54.1093 52.3402 54.1093C51.8663 54.1093 51.4203 53.9244 51.0842 53.588C51.0633 53.5674 51.0429 53.5465 51.0232 53.5249C50.7276 53.2031 50.5643 52.7864 50.5629 52.3433C50.5612 51.8666 50.7464 51.418 51.0842 51.0805C51.4203 50.7443 51.8663 50.5591 52.3402 50.5591C52.8141 50.5591 53.2601 50.7441 53.5961 51.0805C53.9339 51.4182 54.1189 51.8668 54.1175 52.3433C54.1172 52.3731 54.1165 52.4027 54.1149 52.4318L54.1149 52.4318Z" fill="#F7B103"/>
<path d="M52.3414 51.086C52.0081 51.086 51.694 51.2165 51.4572 51.4531C51.2192 51.6911 51.0889 52.0068 51.0898 52.3425C51.091 52.6741 51.2211 52.9842 51.4558 53.2159C51.6938 53.4539 52.0078 53.5844 52.3411 53.5844C52.6744 53.5844 52.9884 53.4539 53.2253 53.2173C53.4614 52.9844 53.5912 52.6741 53.5924 52.3424C53.5936 52.007 53.4631 51.6911 53.2253 51.4531C52.9887 51.2164 52.6749 51.0859 52.3413 51.0859L52.3414 51.086Z" fill="#F7B103"/>
<path d="M30.7254 49.1328C30.0562 49.1328 29.5117 49.6774 29.5117 50.3468C29.5117 51.0162 30.0563 51.5608 30.7254 51.5608C31.397 51.5608 31.9432 51.0162 31.9432 50.3468C31.9432 49.6774 31.397 49.1328 30.7254 49.1328Z" fill="#F7B103"/>
</svg>
