<svg width="48" height="48" viewBox="0 0 48 48" fill="none" xmlns="http://www.w3.org/2000/svg">
<rect width="48" height="48" rx="8" fill="#FFFBF2"/>
<g clip-path="url(#clip0_2594_8541)">
<path d="M18.8438 12.1031C18.7594 12.1641 18.6422 12.2719 18.5906 12.3422C18.4922 12.4734 18.4922 12.4875 18.4781 17.4281L18.4688 22.3828L18.5719 22.5937C18.6328 22.7062 18.7406 22.8422 18.8109 22.8937C18.9422 22.9922 18.9703 22.9922 24 22.9922C29.0297 22.9922 29.0578 22.9922 29.1891 22.8937C29.2594 22.8422 29.3672 22.7062 29.4281 22.5937L29.5312 22.3828L29.5219 17.4281C29.5078 12.4875 29.5078 12.4734 29.4094 12.3422C29.3578 12.2719 29.2406 12.1641 29.1562 12.1031C29.0016 12 28.9969 12 26.9953 12H24.9891L24.975 13.6266L24.9609 15.2578L24.8297 15.4781C24.4547 16.1203 23.5453 16.1203 23.1703 15.4781L23.0391 15.2578L23.025 13.6266L23.0109 12H21.0047C19.0031 12 18.9984 12 18.8438 12.1031Z" fill="#F7B103"/>
<path d="M12.3609 25.0922C12.2625 25.1531 12.1406 25.2609 12.0938 25.3406C12.0047 25.4719 12 25.6078 12 30.4922C12 35.4141 12 35.5125 12.0938 35.6625C12.1453 35.7469 12.2531 35.8547 12.3375 35.9062C12.4875 36 12.5859 36 17.5078 36C22.3922 36 22.5281 35.9953 22.6594 35.9062C22.7391 35.8594 22.8469 35.7375 22.9078 35.6391L23.0156 35.4609V30.4875V25.5141L22.9078 25.3547C22.8516 25.2703 22.7297 25.1484 22.6453 25.0922L22.4859 24.9844H20.4797H18.4688V26.5875C18.4688 28.3875 18.4594 28.425 18.1266 28.7203C17.6438 29.1422 16.9406 29.0062 16.6453 28.4297L16.5234 28.2L16.5094 26.5922L16.4953 24.9844H14.5172H12.5391L12.3609 25.0922Z" fill="#F7B103"/>
<path d="M25.3547 25.0922C25.2703 25.1484 25.1484 25.2703 25.0922 25.3547L24.9844 25.5141V30.4875V35.4609L25.0922 35.6391C25.1531 35.7375 25.2609 35.8594 25.3406 35.9062C25.4719 35.9953 25.6078 36 30.4922 36C35.4141 36 35.5125 36 35.6625 35.9062C35.7469 35.8547 35.8547 35.7469 35.9062 35.6625C36 35.5125 36 35.4141 36 30.4922C36 25.6078 35.9953 25.4719 35.9062 25.3406C35.8594 25.2609 35.7375 25.1531 35.6391 25.0922L35.4609 24.9844H33.4828H31.5047L31.4906 26.5922L31.4766 28.2L31.3547 28.4297C31.0594 29.0062 30.3563 29.1422 29.8734 28.7203C29.5406 28.425 29.5312 28.3875 29.5312 26.5875V24.9844H27.5203H25.5141L25.3547 25.0922Z" fill="#F7B103"/>
</g>
<defs>
<clipPath id="clip0_2594_8541">
<rect width="24" height="24" fill="white" transform="translate(12 12)"/>
</clipPath>
</defs>
</svg>
