<svg width="40" height="40" viewBox="0 0 40 40" fill="none" xmlns="http://www.w3.org/2000/svg">
<rect width="40" height="40" rx="4" fill="#FFFBF2"/>
<path d="M21.3256 12.6049C21.2462 12.0299 20.7547 11.6016 20.1744 11.6016H19.8757C19.2953 11.6016 18.8039 12.0299 18.7245 12.6049L18.6233 13.3391C18.5587 13.8075 18.2125 14.1803 17.7731 14.3549C17.7077 14.3809 17.6429 14.4079 17.5787 14.436C17.1455 14.6259 16.6367 14.6096 16.2583 14.3258L15.9009 14.0577C15.4382 13.7107 14.7908 13.7567 14.3818 14.1657L14.1637 14.3838C13.7548 14.7927 13.7088 15.4401 14.0558 15.9028L14.3239 16.2603C14.6077 16.6387 14.6239 17.1474 14.4341 17.5807C14.406 17.6449 14.3789 17.7097 14.3529 17.775C14.1783 18.2144 13.8055 18.5606 13.3371 18.6252L12.6029 18.7264C12.0279 18.8058 11.5996 19.2972 11.5996 19.8777V20.1763C11.5996 20.7567 12.0279 21.2481 12.6029 21.3275L13.3371 21.4287C13.8055 21.4934 14.1783 21.8396 14.3529 22.279C14.3789 22.3443 14.406 22.4091 14.4341 22.4733C14.6239 22.9065 14.6077 23.4153 14.3239 23.7937L14.0558 24.1511C13.7088 24.6138 13.7548 25.2612 14.1637 25.6702L14.3818 25.8883C14.7908 26.2972 15.4382 26.3433 15.9009 25.9962L16.2583 25.7281C16.6367 25.4444 17.1455 25.4281 17.5787 25.618C17.6429 25.6461 17.7077 25.6731 17.7731 25.6991C18.2125 25.8736 18.5587 26.2466 18.6233 26.7149L18.7245 27.449C18.8039 28.024 19.2953 28.4524 19.8757 28.4524H20.1744C20.7547 28.4524 21.2462 28.024 21.3256 27.449L21.4268 26.7149C21.4914 26.2466 21.8376 25.8736 22.277 25.6991C22.3423 25.6731 22.4072 25.6461 22.4713 25.6179C22.9045 25.4281 23.4133 25.4444 23.7917 25.7281L24.1492 25.9962C24.6118 26.3433 25.2593 26.2972 25.6682 25.8883L25.8863 25.6702C26.2953 25.2612 26.3413 24.6138 25.9943 24.1511L25.7262 23.7937C25.4424 23.4153 25.4261 22.9065 25.616 22.4733C25.6441 22.4091 25.6711 22.3443 25.6971 22.279C25.8717 21.8396 26.2446 21.4934 26.713 21.4287L27.4471 21.3275C28.0221 21.2481 28.4505 20.7567 28.4505 20.1763V19.8777C28.4505 19.2973 28.0221 18.8058 27.4471 18.7264L26.713 18.6252C26.2446 18.5606 25.8717 18.2144 25.6971 17.775C25.6711 17.7097 25.6441 17.6449 25.6159 17.5807C25.4261 17.1474 25.4424 16.6387 25.7262 16.2602L25.9943 15.9028C26.3413 15.4402 26.2953 14.7928 25.8863 14.3838L25.6682 14.1657C25.2593 13.7568 24.6118 13.7108 24.1492 14.0578L23.7917 14.3258C23.4133 14.6096 22.9045 14.6259 22.4713 14.436C22.4072 14.4079 22.3423 14.3809 22.277 14.3549C21.8376 14.1803 21.4914 13.8075 21.4268 13.3391L21.3256 12.6049Z" fill="#F7B103"/>
<path d="M21.4776 20.0308C21.4776 20.8331 20.8273 21.4834 20.0249 21.4834C19.2226 21.4834 18.5723 20.8331 18.5723 20.0308C18.5723 19.2285 19.2226 18.5781 20.0249 18.5781C20.8273 18.5781 21.4776 19.2285 21.4776 20.0308Z" stroke="#FFFBF2" stroke-width="1.67346" stroke-linecap="round" stroke-linejoin="round"/>
</svg>
