<svg width="40" height="40" viewBox="0 0 40 40" fill="none" xmlns="http://www.w3.org/2000/svg">
<rect width="40" height="40" rx="4" fill="#FFFBF2"/>
<path d="M16.7475 18.0556L18.3715 20.5756L19.5101 19.269L17.8114 17.2716C18.5394 16.2075 18.3527 14.453 17.2702 13.0156C16.0009 11.3169 13.9661 10.6636 12.7342 11.5782C11.5021 12.4929 11.5395 14.6209 12.8088 16.3196C13.9102 17.7757 15.5342 18.4477 16.7475 18.0556L16.7475 18.0556Z" fill="#F7B103"/>
<path d="M21.5826 21.7109L20.3506 23.6336L23.3373 28.2442C23.7666 28.9162 24.6813 29.0842 25.3347 28.5989L25.4467 28.5056C26.0813 28.0203 26.1933 27.1056 25.6706 26.4896L21.5826 21.7109Z" fill="#F7B103"/>
<path d="M28.0409 13.1444C27.8729 12.9391 27.5556 12.9577 27.4063 13.163C27.4063 13.163 25.2783 15.8884 24.6809 16.6537C24.5875 16.7657 24.4195 16.7844 24.3076 16.7097C24.1956 16.6163 24.1582 16.467 24.2516 16.3364L26.8089 12.7337C26.9208 12.5844 26.9208 12.3604 26.7902 12.2111C26.6223 12.0057 26.3049 12.0243 26.1556 12.2297C26.1556 12.2297 24.0276 14.9551 23.4302 15.7203C23.3369 15.8323 23.1689 15.8511 23.0569 15.7763C22.9449 15.683 22.9076 15.5336 23.0009 15.403C23.5796 14.6004 25.577 11.7817 25.577 11.7817C25.7263 11.5764 25.6516 11.2777 25.409 11.1657C25.241 11.0911 25.0357 11.1471 24.905 11.2964L22.0304 14.9924L21.6571 15.4777C21.2838 15.9818 21.1158 16.579 21.1904 17.1017L21.3584 18.1844L14.209 26.4724C13.6864 27.0884 13.7984 28.0031 14.433 28.4884L14.545 28.5817C15.1796 29.067 16.0943 28.899 16.5424 28.227L22.441 19.0244L23.5423 18.875C24.065 18.8004 24.5876 18.4643 24.9797 17.9603L25.353 17.475L28.0596 13.667C28.1716 13.5177 28.1716 13.2936 28.0409 13.1443L28.0409 13.1444Z" fill="#F7B103"/>
</svg>
