<svg width="48" height="48" viewBox="0 0 48 48" fill="none" xmlns="http://www.w3.org/2000/svg">
<rect width="48" height="48" rx="8" fill="#FFFBF2"/>
<g clip-path="url(#clip0_2598_8564)">
<path d="M24.7738 12.0885C22.3973 12.5667 20.5457 14.451 20.1332 16.8182C20.0441 17.3292 20.0441 18.3745 20.1332 18.8948C20.4988 20.9807 22.0363 22.762 24.0473 23.4323C24.8723 23.7088 26.1098 23.7979 26.9582 23.6432C28.8004 23.301 30.352 22.1432 31.1676 20.5073C31.6129 19.612 31.7816 18.8807 31.7816 17.8542C31.7816 16.8276 31.6129 16.0963 31.1676 15.201C30.352 13.5651 28.8004 12.4073 26.9582 12.0651C26.4145 11.9667 25.3223 11.976 24.7738 12.0885ZM26.1145 14.1979C26.2363 14.2682 26.3441 14.4885 26.3441 14.6901C26.3441 14.8167 26.3629 14.8542 26.4285 14.8542C26.5879 14.8542 27.0754 15.1213 27.2254 15.2948C27.4223 15.5198 27.427 15.7026 27.2395 15.8901C27.0754 16.0495 26.841 16.0729 26.6676 15.937C26.6066 15.8901 26.5082 15.8292 26.452 15.7963L26.3441 15.7401V16.5323V17.3245L26.541 17.3901C27.2113 17.6104 27.6707 18.1729 27.7363 18.8526C27.7832 19.3729 27.577 19.8885 27.1551 20.301C26.9488 20.5026 26.5223 20.7604 26.3957 20.7604C26.3676 20.7604 26.3441 20.8495 26.3441 20.9713C26.3441 21.3557 26.1754 21.5573 25.8613 21.5573C25.6223 21.5573 25.4535 21.3463 25.4535 21.0463V20.8213L25.2238 20.7885C24.9285 20.751 24.3707 20.4698 24.216 20.287C24.0754 20.1229 24.066 20.0151 24.1645 19.8229C24.3098 19.5417 24.516 19.5229 24.9566 19.7526C25.4863 20.0245 25.4535 20.0807 25.4535 18.9135V17.9057L25.1723 17.7557C24.5395 17.4182 24.2676 17.0245 24.2629 16.4479C24.2582 16.0776 24.3707 15.7307 24.5863 15.4495C24.7551 15.2292 25.1113 14.976 25.327 14.9245C25.4441 14.8917 25.4535 14.8729 25.4535 14.6667C25.4535 14.362 25.6223 14.151 25.8613 14.151C25.9504 14.151 26.0629 14.1745 26.1145 14.1979Z" fill="#F7B103"/>
<path d="M26.3438 19.0534C26.3438 19.7987 26.3484 19.8268 26.4328 19.7846C26.7656 19.6018 26.9484 19.0534 26.7937 18.6878C26.7328 18.5378 26.475 18.28 26.3859 18.28C26.3625 18.28 26.3438 18.6128 26.3438 19.0534Z" fill="#F7B103"/>
<path d="M12.3094 25.3078C12.2391 25.3547 12.1359 25.4578 12.0891 25.5281C12.0047 25.6594 12 25.8422 12 30.6094C12 35.3766 12.0047 35.5594 12.0891 35.6906C12.2953 36 12.2906 36 13.9219 36C15.5531 36 15.5484 36 15.7547 35.6906C15.8391 35.5594 15.8438 35.3766 15.8438 30.6094C15.8438 25.8422 15.8391 25.6594 15.7547 25.5281C15.5484 25.2187 15.5531 25.2187 13.9219 25.2187C12.5531 25.2187 12.4359 25.2281 12.3094 25.3078Z" fill="#F7B103"/>
<path d="M19.5469 25.5047C19.1672 25.5656 18.4641 25.7953 18.1875 25.9547C18.0703 26.0203 17.8125 26.1891 17.6156 26.3297L17.25 26.5828V30.5906V34.5938L23.7797 34.5844L30.3047 34.5703L30.6469 34.4625C31.5703 34.1766 32.3906 33.5953 32.9203 32.85C33.4219 32.1469 35.8781 28.2703 35.9438 28.0875C36.0422 27.7969 36 27.1828 35.8688 26.925C35.7328 26.6625 35.3625 26.3391 35.0813 26.2359C34.6172 26.0719 34.0594 26.1469 33.6563 26.4375C33.5813 26.4891 32.8828 27.3703 32.1 28.3969C31.3172 29.4187 30.5578 30.375 30.4078 30.5203C30.1125 30.8156 29.55 31.1203 29.1094 31.2281C28.9078 31.275 28.2516 31.2891 26.1328 31.2891C23.4984 31.2891 23.4094 31.2844 23.2594 31.1953C23.0484 31.0687 22.9219 30.8531 22.9219 30.6141C22.9219 30.3562 23.0203 30.1734 23.2359 30.0375L23.4141 29.9297L25.875 29.9062L28.3359 29.8828L28.5938 29.7609C28.9078 29.6156 29.2125 29.3156 29.3813 28.9922C29.4938 28.7812 29.5078 28.7062 29.5078 28.2656C29.5078 27.8391 29.4938 27.7453 29.3906 27.5391C29.2453 27.2391 28.9172 26.9109 28.6172 26.7656L28.3828 26.6484L25.6922 26.6344L23.0016 26.625L22.8328 26.4703C22.4016 26.0812 21.7688 25.7484 21.1734 25.5937C20.7328 25.4859 19.9641 25.4391 19.5469 25.5047Z" fill="#F7B103"/>
</g>
<defs>
<clipPath id="clip0_2598_8564">
<rect width="24" height="24" fill="white" transform="translate(12 12)"/>
</clipPath>
</defs>
</svg>
