<svg width="81" height="80" viewBox="0 0 81 80" fill="none" xmlns="http://www.w3.org/2000/svg">
<rect x="0.333008" width="80" height="80" rx="15" fill="white"/>
<path d="M47.0336 32.2494C45.9462 32.2494 45.0668 31.3683 45.0668 30.2825L35.819 30.2828C35.819 31.3685 34.9395 32.2497 33.8529 32.2497C31.6802 32.2497 29.918 34.0113 29.918 36.1838L29.9182 50.5967C29.9182 52.2267 31.2395 53.5469 32.8693 53.5469H48.0175C49.6485 53.5469 50.9678 52.2267 50.9678 50.5967L50.9675 36.1831C50.9675 34.0106 49.2058 32.2489 47.0336 32.2489V32.2494ZM46.8906 48.4843H33.9952V36.7493H46.8913V48.4843H46.8906ZM39.067 46.7464H41.8185V43.9915H44.5725V41.2404H41.8185V38.4872H39.067V41.2404H36.3131V43.9915H39.067V46.7464ZM47.4554 24.4297H33.4325V29.1444H47.4554V24.4297Z" fill="#F7B103"/>
</svg>
