<svg width="84" height="32" viewBox="0 0 84 32" fill="none" xmlns="http://www.w3.org/2000/svg">
<path d="M54.0571 32V0H83.4224V31.5211L79.9616 28.2635L77.6543 32L70.5227 28.0719L64.0204 32L58.7764 27.9761L54.0571 32Z" fill="#F7B103"/>
<path d="M1.45541 23.4139C2.28821 23.4139 2.70461 23.8257 2.70461 24.6492C2.70461 24.7663 2.69624 24.8918 2.67951 25.0256H0.624468C0.624468 25.6242 0.973946 25.9235 1.6729 25.9235C2.00565 25.9235 2.30122 25.8863 2.55961 25.8119V26.2302C2.30122 26.3046 1.98706 26.3417 1.61714 26.3417C0.611455 26.3417 0.108615 25.8426 0.108615 24.8444C0.108615 23.8907 0.557546 23.4139 1.45541 23.4139ZM0.624468 24.5962H2.20828C2.19712 24.0831 1.94617 23.8266 1.45541 23.8266C0.934909 23.8266 0.657928 24.0831 0.624468 24.5962Z" fill="#1F3048"/>
<path d="M2.98066 23.4139H3.53834L4.37765 25.7088L5.21138 23.4139H5.76906L4.57841 26.3417H4.09881L2.98066 23.4139Z" fill="#1F3048"/>
<path d="M7.39469 23.4139C8.22749 23.4139 8.64389 23.8257 8.64389 24.6492C8.64389 24.7663 8.63553 24.8918 8.6188 25.0256H6.56375C6.56375 25.6242 6.91323 25.9235 7.61218 25.9235C7.94493 25.9235 8.2405 25.8863 8.49889 25.8119V26.2302C8.2405 26.3046 7.92634 26.3417 7.55642 26.3417C6.55074 26.3417 6.0479 25.8426 6.0479 24.8444C6.0479 23.8907 6.49683 23.4139 7.39469 23.4139ZM6.56375 24.5962H8.14756C8.1364 24.0831 7.88545 23.8266 7.39469 23.8266C6.87419 23.8266 6.59721 24.0831 6.56375 24.5962Z" fill="#1F3048"/>
<path d="M9.3382 26.3417V23.4139H9.68675L9.77877 23.7876C10.0353 23.5385 10.3439 23.4139 10.7045 23.4139V23.8433C10.355 23.8433 10.0715 23.9669 9.85405 24.2142V26.3417H9.3382Z" fill="#1F3048"/>
<path d="M10.8746 23.4139H11.4351L12.2632 25.7004L13.1193 23.4139H13.6658L12.45 26.4282C12.2344 26.9598 11.911 27.2916 11.4797 27.4236L11.2817 27.0583C11.6089 26.9152 11.8468 26.6819 11.9955 26.3585L10.8746 23.4139Z" fill="#1F3048"/>
<path d="M16.061 25.8314C16.2302 25.8854 16.4356 25.9123 16.6773 25.9123C17.3279 25.9123 17.6532 25.5415 17.6532 24.7997C17.6532 24.1733 17.3586 23.8601 16.7693 23.8601C16.5016 23.8601 16.2655 23.9102 16.061 24.0106V25.8314ZM15.5452 22.3543H16.061V23.5533C16.2822 23.4604 16.5192 23.4139 16.7721 23.4139C17.6978 23.4139 18.1607 23.8824 18.1607 24.8193C18.1607 25.8342 17.6746 26.3417 16.7024 26.3417C16.2822 26.3417 15.8965 26.3018 15.5452 26.2218V22.3543Z" fill="#1F3048"/>
<path d="M19.4294 23.4139V26.3417H18.9135V23.4139H19.4294ZM19.4294 22.3543V22.8423H18.9135V22.3543H19.4294Z" fill="#1F3048"/>
<path d="M20.8682 22.3543V26.3417H20.3524V22.3543H20.8682Z" fill="#1F3048"/>
<path d="M22.2791 22.3543V26.3417H21.7633V22.3543H22.2791Z" fill="#1F3048"/>
<path d="M25.0564 25.745C25.259 25.8454 25.4849 25.8956 25.734 25.8956C26.3418 25.8956 26.6458 25.5303 26.6458 24.7997C26.6458 24.1621 26.3437 23.8433 25.7395 23.8433C25.4793 23.8433 25.2516 23.8656 25.0564 23.9102V25.745ZM24.5405 23.5338C24.929 23.4539 25.3306 23.4139 25.7451 23.4139C26.6839 23.4139 27.1533 23.8777 27.1533 24.8053C27.1533 25.8296 26.6811 26.3417 25.7367 26.3417C25.5025 26.3417 25.2757 26.2953 25.0564 26.2023V27.4013H24.5405V23.5338Z" fill="#1F3048"/>
<path d="M28.2296 24.8667C28.2296 25.5712 28.5224 25.9235 29.1079 25.9235C29.6935 25.9235 29.9863 25.5712 29.9863 24.8667C29.9863 24.177 29.6935 23.8322 29.1079 23.8322C28.5224 23.8322 28.2296 24.177 28.2296 24.8667ZM27.7137 24.8778C27.7137 23.9019 28.1785 23.4139 29.1079 23.4139C30.0374 23.4139 30.5021 23.9019 30.5021 24.8778C30.5021 25.8519 30.0374 26.3389 29.1079 26.3389C28.1822 26.3389 27.7174 25.8519 27.7137 24.8778Z" fill="#1F3048"/>
<path d="M31.1713 26.2023V25.7562C31.5152 25.8677 31.8629 25.9235 32.2142 25.9235C32.6808 25.9235 32.9141 25.784 32.9141 25.5052C32.9141 25.245 32.7514 25.1148 32.4261 25.1148H32.0079C31.3758 25.1148 31.0598 24.8267 31.0598 24.2504C31.0598 23.6928 31.466 23.4139 32.2783 23.4139C32.6278 23.4139 32.9745 23.4604 33.3184 23.5533V23.9995C32.9745 23.8879 32.6278 23.8322 32.2783 23.8322C31.7913 23.8322 31.5478 23.9716 31.5478 24.2504C31.5478 24.5107 31.7011 24.6408 32.0079 24.6408H32.4261C33.0953 24.6408 33.4299 24.9289 33.4299 25.5052C33.4299 26.0629 33.0247 26.3417 32.2142 26.3417C31.8629 26.3417 31.5152 26.2953 31.1713 26.2023Z" fill="#1F3048"/>
<path d="M34.0991 26.2023V25.7562C34.4431 25.8677 34.7907 25.9235 35.142 25.9235C35.6086 25.9235 35.8419 25.784 35.8419 25.5052C35.8419 25.245 35.6792 25.1148 35.3539 25.1148H34.9357C34.3036 25.1148 33.9876 24.8267 33.9876 24.2504C33.9876 23.6928 34.3938 23.4139 35.2061 23.4139C35.5556 23.4139 35.9023 23.4604 36.2462 23.5533V23.9995C35.9023 23.8879 35.5556 23.8322 35.2061 23.8322C34.7191 23.8322 34.4756 23.9716 34.4756 24.2504C34.4756 24.5107 34.6289 24.6408 34.9357 24.6408H35.3539C36.0231 24.6408 36.3577 24.9289 36.3577 25.5052C36.3577 26.0629 35.9525 26.3417 35.142 26.3417C34.7907 26.3417 34.4431 26.2953 34.0991 26.2023Z" fill="#1F3048"/>
<path d="M37.6265 23.4139V26.3417H37.1106V23.4139H37.6265ZM37.6265 22.3543V22.8423H37.1106V22.3543H37.6265Z" fill="#1F3048"/>
<path d="M39.0374 25.8314C39.2066 25.8854 39.412 25.9123 39.6536 25.9123C40.3043 25.9123 40.6296 25.5415 40.6296 24.7997C40.6296 24.1733 40.3349 23.8601 39.7456 23.8601C39.478 23.8601 39.2419 23.9102 39.0374 24.0106V25.8314ZM38.5215 22.3543H39.0374V23.5533C39.2586 23.4604 39.4956 23.4139 39.7484 23.4139C40.6742 23.4139 41.1371 23.8824 41.1371 24.8193C41.1371 25.8342 40.6509 26.3417 39.6787 26.3417C39.2586 26.3417 38.8729 26.3018 38.5215 26.2218V22.3543Z" fill="#1F3048"/>
<path d="M42.3779 22.3543V26.3417H41.862V22.3543H42.3779Z" fill="#1F3048"/>
<path d="M44.4524 23.4139C45.2853 23.4139 45.7017 23.8257 45.7017 24.6492C45.7017 24.7663 45.6933 24.8918 45.6766 25.0256H43.6215C43.6215 25.6242 43.971 25.9235 44.6699 25.9235C45.0027 25.9235 45.2983 25.8863 45.5567 25.8119V26.2302C45.2983 26.3046 44.9841 26.3417 44.6142 26.3417C43.6085 26.3417 43.1057 25.8426 43.1057 24.8444C43.1057 23.8907 43.5546 23.4139 44.4524 23.4139ZM43.6215 24.5962H45.2053C45.1942 24.0831 44.9432 23.8266 44.4524 23.8266C43.9319 23.8266 43.655 24.0831 43.6215 24.5962Z" fill="#1F3048"/>
<path d="M0 18.4914V2.89219H6.32695C9.51224 2.89219 11.1049 4.28484 11.1049 7.07015C11.1049 10.1027 8.92681 11.9535 4.57067 12.6226L4.15615 10.9209C7.35598 10.4482 8.9559 9.19368 8.9559 7.15742C8.9559 5.4266 8.01777 4.56119 6.1415 4.56119H2.01808V18.4914H0Z" fill="#1F3048"/>
<path d="M15.0429 12.7208C15.0429 15.477 16.1883 16.8551 18.479 16.8551C20.7698 16.8551 21.9152 15.477 21.9152 12.7208C21.9152 10.0227 20.7698 8.67371 18.479 8.67371C16.1883 8.67371 15.0429 10.0227 15.0429 12.7208ZM13.0248 12.7644C13.0248 8.94642 14.8429 7.03743 18.479 7.03743C22.1152 7.03743 23.9333 8.94642 23.9333 12.7644C23.9333 16.5751 22.1152 18.4805 18.479 18.4805C14.8574 18.4805 13.0393 16.5751 13.0248 12.7644Z" fill="#1F3048"/>
<path d="M26.5514 17.946V16.2006C27.8967 16.6369 29.2567 16.8551 30.6311 16.8551C32.4565 16.8551 33.3692 16.3097 33.3692 15.2188C33.3692 14.2007 32.7329 13.6916 31.4602 13.6916H29.8239C27.3513 13.6916 26.115 12.5644 26.115 10.31C26.115 8.12828 27.704 7.03743 30.882 7.03743C32.2492 7.03743 33.6055 7.21924 34.9509 7.58286V9.32822C33.6055 8.89188 32.2492 8.67371 30.882 8.67371C28.9767 8.67371 28.024 9.21913 28.024 10.31C28.024 11.3281 28.624 11.8372 29.8239 11.8372H31.4602C34.0782 11.8372 35.3873 12.9644 35.3873 15.2188C35.3873 17.4005 33.8019 18.4914 30.6311 18.4914C29.2567 18.4914 27.8967 18.3096 26.5514 17.946Z" fill="#1F3048"/>
<path d="M38.0053 17.946V16.2006C39.3507 16.6369 40.7106 16.8551 42.0851 16.8551C43.9105 16.8551 44.8231 16.3097 44.8231 15.2188C44.8231 14.2007 44.1868 13.6916 42.9142 13.6916H41.2779C38.8053 13.6916 37.569 12.5644 37.569 10.31C37.569 8.12828 39.158 7.03743 42.336 7.03743C43.7032 7.03743 45.0595 7.21924 46.4049 7.58286V9.32822C45.0595 8.89188 43.7032 8.67371 42.336 8.67371C40.4306 8.67371 39.478 9.21913 39.478 10.31C39.478 11.3281 40.0779 11.8372 41.2779 11.8372H42.9142C45.5322 11.8372 46.8412 12.9644 46.8412 15.2188C46.8412 17.4005 45.2558 18.4914 42.0851 18.4914C40.7106 18.4914 39.3507 18.3096 38.0053 17.946Z" fill="#1F3048"/>
<path d="M51.8046 7.03743V18.4914H49.7865V7.03743H51.8046ZM51.8046 2.89219V4.80118H49.7865V2.89219H51.8046Z" fill="#1F3048"/>
<path d="M57.2528 16.3612C57.9146 16.5721 58.7182 16.6776 59.6636 16.6776C62.2089 16.6776 63.4816 15.2267 63.4816 12.3251C63.4816 9.87428 62.3289 8.64889 60.0236 8.64889C58.9763 8.64889 58.0527 8.84524 57.2528 9.23795V16.3612ZM55.2347 2.75828H57.2528V7.44895C58.1182 7.08533 59.0454 6.90352 60.0345 6.90352C63.6561 6.90352 65.4669 8.73615 65.4669 12.4014C65.4669 16.3721 63.5652 18.3575 59.7617 18.3575C58.1182 18.3575 56.6092 18.2011 55.2347 17.8884V2.75828Z" fill="white"/>
<path d="M70.4303 6.90352V18.3575H68.4122V6.90352H70.4303ZM70.4303 2.75828V4.66727H68.4122V2.75828H70.4303Z" fill="white"/>
<path d="M76.0591 2.75828V18.3575H74.041V2.75828H76.0591Z" fill="white"/>
<path d="M81.5788 2.75828V18.3575H79.5607V2.75828H81.5788Z" fill="white"/>
</svg>
