<svg width="80" height="80" viewBox="0 0 80 80" fill="none" xmlns="http://www.w3.org/2000/svg">
<rect width="80" height="80" rx="15" fill="white"/>
<path d="M41.0813 35.6882V31.4322H30.7026L29.9188 28.3336C29.732 27.6242 29.0974 27.1016 28.3508 27.1016H23.8708C22.9748 27.1016 22.2656 27.811 22.2656 28.7068C22.2656 29.6028 22.975 30.312 23.8708 30.312H27.0815L27.8281 33.3734C27.8281 33.4107 27.8281 33.4482 27.8653 33.4854L31.076 46.2907C31.2627 47.0001 31.8973 47.5227 32.644 47.5227H49.1827C49.9293 47.5227 50.5639 47.0001 50.7507 46.2907L52.4306 39.3841L44.8146 39.3846C42.7615 39.3846 41.0813 37.7419 41.0813 35.6885L41.0813 35.6882Z" fill="#F7B103"/>
<path d="M37.7983 52.1404C37.7983 53.7281 36.5113 55.0151 34.9235 55.0151C33.3361 55.0151 32.0488 53.7281 32.0488 52.1404C32.0488 50.5526 33.3361 49.2656 34.9235 49.2656C36.5113 49.2656 37.7983 50.5526 37.7983 52.1404Z" fill="#F7B103"/>
<path d="M49.0695 52.1404C49.0695 53.7281 47.7825 55.0151 46.195 55.0151C44.6073 55.0151 43.3203 53.7281 43.3203 52.1404C43.3203 50.5526 44.6073 49.2656 46.195 49.2656C47.7825 49.2656 49.0695 50.5526 49.0695 52.1404Z" fill="#F7B103"/>
<path d="M56.687 25H52.431V28.0615C52.431 28.1362 52.3938 28.1734 52.319 28.1734H49.1831C49.1084 28.1734 49.0711 28.1362 49.0711 28.0615L49.0709 25H44.8149C44.2175 25 43.7695 25.4854 43.7695 26.0453V35.6773C43.7695 36.2747 44.2549 36.7227 44.8149 36.7227H56.6869C57.2843 36.7227 57.7322 36.2373 57.7322 35.6773L57.7325 26.0453C57.7325 25.4854 57.247 25 56.6871 25H56.687Z" fill="#F7B103"/>
</svg>
