<svg width="48" height="48" viewBox="0 0 48 48" fill="none" xmlns="http://www.w3.org/2000/svg">
<rect width="48" height="48" rx="8" fill="#FFFBF2"/>
<path d="M21.9094 13.7531L21.75 13.9125V16.8V19.6875H23.9766H26.2031V16.8V13.9125L26.0438 13.7531L25.8844 13.5937H23.9766H22.0688L21.9094 13.7531Z" fill="#F7B103"/>
<path d="M12.7644 17.8781C12.4785 17.9719 12.2957 18.1172 12.141 18.3891L12.0004 18.6328V26.1C12.0004 34.3453 11.9769 33.7359 12.2957 34.0734C12.3801 34.1578 12.5301 34.2703 12.6332 34.3172C12.816 34.4016 13.2098 34.4062 24.0004 34.4062C34.716 34.4062 35.1894 34.4016 35.3676 34.3172C35.6066 34.2094 35.8879 33.9 35.9535 33.6703C35.991 33.5437 36.0004 31.3641 35.991 26.0156L35.9769 18.5344L35.8129 18.3047C35.7051 18.1594 35.5598 18.0328 35.4144 17.9531L35.1848 17.8359L31.2332 17.8219L27.2816 17.8125V18.75V19.6875H27.6144C27.9285 19.6875 27.9566 19.6969 28.1066 19.8469C28.3504 20.0906 28.3129 20.4469 28.0223 20.625C27.8723 20.7141 27.7832 20.7187 24.0098 20.7187C19.7769 20.7187 19.9551 20.7328 19.8051 20.4375C19.6879 20.2078 19.716 20.025 19.8941 19.8469C20.0441 19.6969 20.0723 19.6875 20.3863 19.6875H20.7191V18.75V17.8125L16.8426 17.8172C13.7957 17.8172 12.9191 17.8312 12.7644 17.8781ZM19.416 23.5453C20.0488 23.8547 20.4707 24.4219 20.5879 25.1109C20.766 26.1656 20.0957 27.2109 19.0598 27.4922C17.8457 27.8203 16.6223 27.0281 16.4066 25.7672C16.2707 24.9891 16.6644 24.1078 17.3441 23.6719C17.7332 23.4234 18.0473 23.3438 18.591 23.3578C19.0316 23.3672 19.0879 23.3812 19.416 23.5453ZM28.7769 25.0594C29.0441 25.2797 29.0113 25.7016 28.716 25.8797C28.5801 25.9641 28.4488 25.9688 26.6816 25.9688C24.6098 25.9688 24.591 25.9641 24.4457 25.6875C24.3566 25.5141 24.3566 25.3922 24.4457 25.2188C24.5957 24.9281 24.5394 24.9375 26.6769 24.9375H28.6316L28.7769 25.0594ZM19.5238 28.3594C20.4754 28.6031 21.3801 29.2172 21.9754 30.0234C22.3644 30.5484 22.6504 31.2469 22.6504 31.6547C22.6457 32.0953 22.2988 32.5547 21.8769 32.6672C21.7363 32.7094 20.7707 32.7187 18.3707 32.7094L15.0613 32.6953L14.8316 32.5547C14.6582 32.4469 14.5691 32.3484 14.4707 32.1562C14.3535 31.9266 14.3394 31.8609 14.3582 31.5703C14.3863 31.0406 14.8129 30.2156 15.366 29.6156C15.9848 28.95 16.866 28.4625 17.7894 28.2844C18.2301 28.2 19.041 28.2328 19.5238 28.3594ZM33.4879 29.4C33.8582 29.5641 33.8394 30.1219 33.4644 30.3141C33.3754 30.3609 32.3769 30.375 29.0723 30.375C24.3754 30.375 24.6004 30.3891 24.4457 30.0938C24.3566 29.9203 24.3566 29.7984 24.4457 29.625C24.6004 29.325 24.2957 29.3438 29.0488 29.3438C32.2129 29.3438 33.4035 29.3578 33.4879 29.4Z" fill="#F7B103"/>
<path d="M18.1878 24.414C17.5221 24.6156 17.2362 25.3375 17.569 25.9703C17.7612 26.3406 18.0378 26.5 18.4878 26.5C19.1581 26.5046 19.5565 26.1015 19.5565 25.4265C19.5612 25.0843 19.4393 24.8218 19.1956 24.6156C18.9284 24.4 18.5159 24.3156 18.1878 24.414Z" fill="#F7B103"/>
<path d="M17.6264 29.4022C16.6842 29.6928 16.0045 30.2506 15.5827 31.0897C15.2498 31.76 14.8889 31.685 18.4748 31.685H21.578L21.5452 31.5303C21.5264 31.4506 21.428 31.2022 21.3202 30.9912C20.978 30.2975 20.2748 29.6975 19.5014 29.4303C19.267 29.3506 19.0608 29.3225 18.5873 29.3131C18.053 29.2944 17.9358 29.3084 17.6264 29.4022Z" fill="#F7B103"/>
</svg>
