<svg width="81" height="80" viewBox="0 0 81 80" fill="none" xmlns="http://www.w3.org/2000/svg">
<rect x="0.666992" width="80" height="80" rx="15" fill="white"/>
<path d="M57.3969 26.2579H50.7888C49.6315 26.2579 48.7354 27.1913 48.7354 28.3113V51.6447C48.7354 52.8019 49.6687 53.6981 50.7888 53.6981H57.3969C57.6209 53.6981 57.8076 53.5113 57.8076 53.2874V51.5699C57.8076 51.346 57.6209 51.1592 57.3969 51.1592H52.8794C52.6927 51.1592 52.5435 51.01 52.5435 50.8233V49.778C52.5435 49.5912 52.6927 49.442 52.8794 49.442H57.3594C57.5833 49.442 57.8073 49.2553 57.8073 48.9941V48.1355C57.8073 47.9115 57.6206 47.6876 57.3594 47.6876H52.8794C52.6927 47.6876 52.5435 47.5384 52.5435 47.3516V46.343C52.5435 46.1563 52.6927 46.0071 52.8794 46.0071H57.3594C57.6208 46.0071 57.8073 45.8204 57.8073 45.5592V44.7006C57.8073 44.4766 57.6206 44.2527 57.3594 44.2527H52.8794C52.6927 44.2527 52.5435 44.1034 52.5435 43.9167V42.8714C52.5435 42.6847 52.6927 42.5355 52.8794 42.5355H57.3594C57.5833 42.5355 57.8073 42.3487 57.8073 42.0875V41.2289C57.8073 41.005 57.6206 40.781 57.3594 40.781H52.8794C52.6927 40.781 52.5435 40.6318 52.5435 40.4451V39.3997C52.5435 39.213 52.6927 39.0638 52.8794 39.0638H57.3594C57.5833 39.0638 57.8073 38.8771 57.8073 38.6159V37.7573C57.8073 37.5333 57.6206 37.3094 57.3594 37.3094H52.8794C52.6927 37.3094 52.5435 37.1601 52.5435 36.9734V35.8896C52.5435 35.7028 52.6927 35.5536 52.8794 35.5536H57.3594C57.5833 35.5536 57.8073 35.3669 57.8073 35.1057V34.2471C57.8073 34.0231 57.6206 33.7992 57.3594 33.7992H52.8794C52.6927 33.7992 52.5435 33.65 52.5435 33.4632V32.3807C52.5435 32.194 52.6927 32.0448 52.8794 32.0448H57.3594C57.5833 32.0448 57.8073 31.858 57.8073 31.5968V30.7382C57.8073 30.5143 57.6206 30.2903 57.3594 30.2903H52.8794C52.6927 30.2903 52.5435 30.1411 52.5435 29.9544V28.8719C52.5435 28.6851 52.6927 28.5359 52.8794 28.5359H57.3969C57.6209 28.5359 57.8076 28.3492 57.8076 28.1252V26.632C57.8076 26.4443 57.6209 26.2578 57.3969 26.2578V26.2579Z" fill="#F7B103"/>
<path d="M29.4349 25.6217C28.8375 26.8165 27.3067 30.7363 29.6216 34.619L33.019 40.331L36.1549 36.2242L29.8455 25.5842C29.7335 25.435 29.5096 25.435 29.4348 25.6215L29.4349 25.6217Z" fill="#F7B103"/>
<path d="M42.2753 46.5294L39.9233 42.6094L39.4006 43.3188C38.9152 43.9534 38.3553 44.476 37.7207 44.8868C38.6913 45.1107 39.5874 45.6334 40.0728 46.5295L40.6327 47.5001C39.2514 48.7694 38.878 50.8975 39.8861 52.5774C41.0433 54.5188 43.5446 55.1535 45.486 53.9962C47.4274 52.8389 48.0621 50.3376 46.9048 48.3962C45.9714 46.7162 44.03 46.0068 42.2754 46.5295L42.2753 46.5294ZM44.4779 52.2042C43.5073 52.764 42.2378 52.4656 41.6779 51.4948C41.1181 50.5242 41.4165 49.2546 42.3873 48.6948C43.3579 48.1349 44.6275 48.4333 45.1873 49.4042C45.7475 50.3748 45.4488 51.6068 44.4779 52.2042Z" fill="#F7B103"/>
<path d="M38.5811 42.642L39.3653 41.6339L44.0692 35.474C46.7945 31.8899 45.7491 27.858 45.3012 26.5887C45.2265 26.402 45.0025 26.3647 44.8905 26.514L36.7145 37.1913L33.5786 41.2981L30.1067 45.8528C28.4268 45.1434 26.4107 45.5913 25.2533 47.122C23.8721 48.914 24.2453 51.4528 26.0375 52.834C27.8294 54.2153 30.4054 53.8421 31.7494 52.0874C32.9443 50.5194 32.832 48.3914 31.6002 46.9728L32.2721 46.0768C32.9067 45.2554 33.8773 44.8075 34.9229 44.7328C35.1096 44.7328 35.2963 44.6955 35.4455 44.658C35.7442 44.6208 36.0429 44.5088 36.3041 44.3966C37.2372 44.0234 37.9838 43.426 38.5812 42.6422L38.5811 42.642ZM30.1438 50.8553C29.4719 51.7514 28.1651 51.9006 27.2691 51.2287C26.373 50.5569 26.1865 49.2501 26.8956 48.354C27.5675 47.4579 28.8743 47.2715 29.7704 47.9806C30.6292 48.6527 30.816 49.9592 30.1438 50.8553ZM37.0505 41.7833C36.565 42.082 35.9304 41.9325 35.6317 41.4099C35.333 40.9244 35.5197 40.2898 36.0052 39.9911C36.4906 39.6924 37.1252 39.8791 37.4239 40.3646C37.6851 40.8875 37.5356 41.5221 37.0505 41.7833Z" fill="#F7B103"/>
</svg>
