<svg width="48" height="48" viewBox="0 0 48 48" fill="none" xmlns="http://www.w3.org/2000/svg">
<rect width="48" height="48" rx="8" fill="#FFFBF2"/>
<path d="M22.6164 12.0703C21.918 12.1641 21.1914 12.3375 21.032 12.4406C20.8445 12.5625 20.718 12.8109 20.718 13.0453C20.718 13.1719 21.0508 13.9641 21.9836 16.05C23.3242 19.0453 23.3477 19.1109 23.1742 19.3969C23.0383 19.6266 22.8742 19.7109 22.5836 19.7109C22.1336 19.7109 22.1477 19.7297 20.8961 16.9266C20.2961 15.5766 19.7805 14.4609 19.7477 14.4516C19.6773 14.4234 19.0352 14.8078 18.5148 15.1922C18.018 15.5625 17.1742 16.4016 16.7852 16.9125C16.218 17.6625 15.7633 18.4828 15.4492 19.3266C15.2805 19.7719 15.0367 20.6625 14.9852 21.0094L14.957 21.1875H23.9992H33.0414L33.0133 21.0094C32.9617 20.6625 32.718 19.7719 32.5492 19.3266C31.9726 17.7797 30.9555 16.3687 29.6898 15.3562C29.1555 14.9297 28.3398 14.4187 28.2508 14.4516C28.2227 14.4609 27.6976 15.5812 27.093 16.9406C25.8461 19.7437 25.8648 19.7109 25.4148 19.7109C25.1242 19.7109 24.9555 19.6219 24.8242 19.3969C24.6555 19.1156 24.6789 19.0453 26.0148 16.0547C26.9477 13.9641 27.2805 13.1766 27.2805 13.0453C27.2805 12.8109 27.1539 12.5672 26.9664 12.4406C26.8023 12.3328 26.1039 12.1687 25.3586 12.0703C24.7539 11.9859 23.207 11.9859 22.6164 12.0703Z" fill="#F7B103"/>
<path d="M13.8278 22.6473C13.6732 22.727 13.5888 22.8114 13.5091 22.966C13.4107 23.1535 13.4013 23.2285 13.4153 23.6926C13.4341 24.2832 13.5185 24.4895 13.7997 24.6254C14.0013 24.7192 15.6044 25.1129 16.6872 25.3285C21.52 26.2989 25.4435 26.3598 30.1872 25.5395C31.6591 25.2864 33.8716 24.7801 34.2044 24.6207C34.481 24.4895 34.5654 24.2785 34.5841 23.6926C34.5982 23.2285 34.5888 23.1535 34.4904 22.966C34.4107 22.8114 34.3263 22.727 34.1716 22.6473L33.9654 22.5442H23.9997H14.0341L13.8278 22.6473Z" fill="#F7B103"/>
<path d="M14.819 27.3844C14.833 28.3734 14.8377 28.439 14.9409 28.5984C15.1049 28.8703 15.2737 28.9219 15.944 28.9219H16.5205L16.6518 29.3109C16.7268 29.5219 16.8768 29.8922 16.994 30.1359L17.2002 30.5766L16.783 31.0031C16.333 31.4625 16.2674 31.6031 16.333 31.9547C16.3565 32.1094 16.5252 32.2969 17.519 33.2906C18.5127 34.2844 18.7002 34.4531 18.8502 34.4766C19.2065 34.5422 19.3471 34.4766 19.8065 34.0266L20.233 33.6047L20.6221 33.7922C20.833 33.8953 21.194 34.0453 21.419 34.1297L21.8315 34.275L21.8502 34.8937C21.8643 35.4234 21.8784 35.5312 21.9674 35.6719C22.1737 36.0047 22.1549 36 23.9971 36C25.5487 36 25.6612 35.9953 25.7971 35.9109C26.069 35.7422 26.1252 35.5781 26.144 34.8891L26.1627 34.275L26.5752 34.1297C26.8002 34.0453 27.1612 33.8953 27.3721 33.7922L27.7612 33.6094L28.1924 34.0266C28.6565 34.4766 28.7924 34.5422 29.144 34.4766C29.294 34.4531 29.4815 34.2844 30.4752 33.2906C31.469 32.2969 31.6377 32.1094 31.6612 31.9547C31.7268 31.6031 31.6612 31.4625 31.2112 31.0031L30.7893 30.5766L31.0002 30.1406C31.1174 29.9015 31.2721 29.5265 31.3424 29.3109L31.469 28.9219H32.0502C32.7205 28.9219 32.8893 28.8703 33.0534 28.5984C33.1565 28.439 33.1612 28.3734 33.1752 27.3844C33.194 26.1844 33.2502 26.2875 32.6455 26.4328C31.8252 26.6297 29.8659 26.9906 29.1862 27.0703C28.8768 27.1078 28.858 27.1312 28.8065 27.5719C28.7643 27.9469 28.5674 28.5469 28.333 29.0156C27.719 30.239 26.6737 31.1016 25.2815 31.5328C24.8924 31.65 24.808 31.6594 23.9971 31.6594C23.1862 31.6594 23.1018 31.65 22.7127 31.5328C21.3205 31.1016 20.2752 30.239 19.6612 29.0156C19.4127 28.5234 19.2393 27.9797 19.1737 27.4922C19.1455 27.2906 19.1174 27.1219 19.108 27.1172C19.1034 27.1125 18.8455 27.075 18.5362 27.0281C17.819 26.925 16.3705 26.6578 15.5737 26.4797C15.2315 26.4047 14.9174 26.3437 14.8752 26.3437C14.8096 26.3437 14.8049 26.4609 14.819 27.3844Z" fill="#F7B103"/>
</svg>
