<svg width="40" height="40" viewBox="0 0 40 40" fill="none" xmlns="http://www.w3.org/2000/svg">
<rect width="40" height="40" rx="4" fill="#FFFBF2"/>
<path d="M27.8075 17.0336C27.8075 17.0336 27.8075 17.015 27.7889 17.015L25.8289 12.4043C25.6236 11.9376 25.1383 11.6017 24.6716 11.6017L15.6743 11.6016C15.2076 11.6016 14.7036 11.9375 14.4796 12.3856L12.1463 16.9962C12.1277 17.0336 12.1089 17.0708 12.1089 17.0896C11.9596 17.2016 11.8662 17.3883 11.8662 17.5749V18.4149C11.8662 18.7136 12.0902 18.9749 12.3702 19.0123C12.3516 19.087 12.333 19.1616 12.333 19.2363V27.599C12.333 28.0283 12.6689 28.383 13.0984 28.383H13.5464C13.9757 28.383 14.3118 28.0283 14.3118 27.599L14.3116 19.2363C14.3116 19.1617 14.293 19.1056 14.2743 19.031H25.5862C25.5676 19.087 25.5489 19.1617 25.5489 19.2363V27.599C25.5489 28.0283 25.8848 28.383 26.3142 28.383H26.7623C27.1916 28.383 27.5276 28.0283 27.5276 27.599V19.2363C27.5276 19.1617 27.509 19.1056 27.4903 19.031C27.8262 19.031 28.0877 18.7511 28.0877 18.415V17.575C28.1437 17.3509 28.0129 17.1456 27.8076 17.0336L27.8075 17.0336Z" fill="#F7B103"/>
<path d="M14.9463 24.9841C14.9463 25.5067 15.2822 25.9174 15.7117 25.9174H16.1597C16.589 25.9174 16.9251 25.5067 16.9251 24.9841V19.6641H14.9463V24.9841Z" fill="#F7B103"/>
<path d="M22.9727 24.9841C22.9727 25.5067 23.3086 25.9174 23.738 25.9174H24.1861C24.6154 25.9174 24.9514 25.5067 24.9514 24.9841L24.9513 19.6641H22.9727L22.9727 24.9841Z" fill="#F7B103"/>
</svg>
