<svg width="40" height="40" viewBox="0 0 40 40" fill="none" xmlns="http://www.w3.org/2000/svg">
<rect width="40" height="40" rx="6" fill="#FFFBF2"/>
<path d="M16.3121 10.0703C15.8973 10.2215 15.5844 10.5027 15.384 10.9105L15.2715 11.1426L15.2609 14.3137L15.2539 17.4848H15.7883C16.7375 17.4848 17.5426 17.6781 18.3828 18.107C18.9629 18.4023 19.4023 18.7223 19.8664 19.1828L20.2461 19.559L23.1746 19.5695L26.0996 19.5801L26.2227 19.6574C26.5566 19.8648 26.5531 20.3254 26.2156 20.5293C26.1031 20.5961 26.0293 20.5996 23.5262 20.6102C22.1094 20.6137 20.9492 20.6313 20.9492 20.6488C20.9492 20.6629 21.002 20.793 21.0687 20.9371C21.2375 21.3063 21.3957 21.8266 21.4625 22.2273C21.4941 22.4137 21.5258 22.6035 21.5328 22.6457L21.5469 22.723L23.825 22.7336C26.0293 22.7441 26.1031 22.7477 26.2156 22.8145C26.5531 23.0184 26.5531 23.4895 26.2156 23.6934C26.1031 23.7602 26.0293 23.7637 23.825 23.7742L21.5469 23.7848L21.5328 23.8621C21.5258 23.9043 21.4906 24.0977 21.4625 24.291C21.3887 24.7305 21.1812 25.3563 20.9668 25.7887C20.5484 26.6219 20.0211 27.2617 19.2652 27.8523L19.0789 28L23.4488 27.993L27.8223 27.9824L28.0684 27.8629C28.3918 27.7047 28.6695 27.427 28.8277 27.1035L28.9473 26.8574L28.9578 20.7156L28.9648 14.5738L26.8836 14.5633C24.8094 14.5527 24.7988 14.5527 24.6758 14.4754C24.609 14.4332 24.5211 14.3453 24.4824 14.282C24.4156 14.1695 24.4121 14.0957 24.4016 12.0813L24.391 10H20.4465C16.6426 10.0035 16.4949 10.0035 16.3121 10.0703ZM26.2227 16.4934C26.3844 16.5918 26.4688 16.743 26.4688 16.9258C26.4688 17.1086 26.3844 17.2598 26.2227 17.3582L26.0996 17.4355H22.1094C18.1824 17.4355 18.1156 17.4355 18.0031 17.3652C17.8449 17.2703 17.75 17.1086 17.75 16.9293C17.75 16.6727 17.8977 16.4934 18.1543 16.4301C18.2105 16.416 20.0246 16.409 22.1797 16.409L26.0996 16.416L26.2227 16.4934Z" fill="#F7B103"/>
<path d="M25.4492 11.8984V13.5156H27.0734H28.7012L27.084 11.8984C26.1945 11.009 25.4633 10.2812 25.4598 10.2812C25.4527 10.2812 25.4492 11.009 25.4492 11.8984Z" fill="#F7B103"/>
<path d="M14.9412 18.5667C13.0217 18.8901 11.4256 20.4897 11.0916 22.4304C11.0213 22.8382 11.0178 23.6327 11.0881 24.0651C11.4045 26.0163 13.0217 27.6335 14.9729 27.9499C15.4018 28.0167 16.1612 28.0167 16.5901 27.9499C18.5412 27.6335 20.1584 26.0163 20.4748 24.0651C20.5416 23.6362 20.5416 22.8768 20.4748 22.4479C20.1584 20.4968 18.5412 18.8796 16.5901 18.5632C16.1787 18.4964 15.3455 18.4999 14.9412 18.5667ZM17.7748 21.8854C17.8381 21.9206 17.9119 22.0015 17.9436 22.0577C18.0069 22.1807 18.0139 22.4198 17.9576 22.5288C17.9014 22.6378 15.3983 25.1479 15.2823 25.2112C15.1698 25.271 14.9272 25.2745 14.8217 25.2218C14.7127 25.1655 13.6053 24.0651 13.5455 23.9526C13.4823 23.8296 13.4823 23.5975 13.5491 23.464C13.658 23.2565 13.9991 23.1511 14.21 23.26C14.2522 23.2811 14.4561 23.4675 14.667 23.6714L15.0432 24.0475L16.126 22.9718C16.7201 22.3776 17.2369 21.8749 17.2756 21.8538C17.3916 21.794 17.6518 21.8081 17.7748 21.8854Z" fill="#F7B103"/>
</svg>
