<svg width="263" height="7" viewBox="0 0 263 7" fill="none" xmlns="http://www.w3.org/2000/svg">
<path fill-rule="evenodd" clip-rule="evenodd" d="M44.9666 4.77673C38.517 4.99564 31.8487 5.22187 25.2861 5.39495C22.9091 5.45736 11.9255 5.67384 10.3957 5.6831C9.50763 5.68895 8.33957 5.76647 7.10421 5.84887C5.57322 5.95077 2.72636 6.14042 2.31057 5.94393C2.30167 5.93955 2.28173 5.90395 2.35142 5.81814C2.65065 5.45052 6.46969 5.1424 13.7028 4.90252C14.7976 4.86595 15.5871 4.83961 16.0053 4.81231C17.91 4.68652 19.8304 4.57437 21.7591 4.47344C38.1926 4.2321 54.6981 3.56807 70.7878 2.91961C74.1562 2.78407 77.5523 2.64753 80.9664 2.51345C124.799 1.26237 166.258 1.28677 204.455 2.58807C204.584 2.59294 204.713 2.59683 204.841 2.60171C163.606 2.6373 116.029 2.89521 66.8703 4.10143C59.5602 4.28086 52.1409 4.53295 44.9666 4.77673ZM229.761 2.21752C231.444 2.29407 233.137 2.3594 234.834 2.42474C237.324 2.5203 239.898 2.61879 242.396 2.7553C243.2 2.79918 245.143 2.87573 247.392 2.96349C247.697 2.97568 248.019 2.98836 248.354 3.00152C247.506 2.98982 246.654 2.96981 245.819 2.9508C244.92 2.92983 244.021 2.90937 243.127 2.89767C231.766 2.75091 220.168 2.29601 208.951 1.85671C206.052 1.74262 203.155 1.6295 200.265 1.52078C196.74 1.38914 193.208 1.27212 189.666 1.16973C195.353 1.25408 200.934 1.38769 206.521 1.57247C209.681 1.67681 212.925 1.74652 216.062 1.81429C220.577 1.91181 225.245 2.01226 229.761 2.21752ZM251.997 2.11416C249.288 1.8972 246.069 1.64999 242.739 1.46325C240.026 1.31162 237.232 1.21314 234.531 1.11855C233.022 1.0659 231.516 1.01324 230.023 0.951318C225.295 0.755319 220.448 0.652922 215.76 0.55346C212.79 0.491052 209.718 0.425737 206.722 0.337976C197.846 0.0776188 188.696 -0.0272095 177.917 0.00594453L171.588 0.024957C152.032 0.081514 131.812 0.14049 111.914 0.611474C106.533 0.738727 101.12 0.899644 95.7114 1.08004C83.9863 1.31797 72.5916 1.61538 61.6993 1.92693C58.2456 2.02591 54.763 2.11221 51.2684 2.199C39.464 2.49153 27.2594 2.7948 15.5859 3.60317C15.1605 3.63243 14.3373 3.66216 13.2942 3.70019C12.2608 3.73773 11.2309 3.77722 10.2263 3.82208C8.71811 3.8367 7.21116 3.84839 5.70541 3.85571C5.33408 3.85766 5.03485 3.98151 5.03965 4.13265C5.03965 4.13753 5.04086 4.1424 5.04086 4.14678C2.32138 4.39446 0.373405 4.75917 0.0549503 5.34911C-0.0988691 5.63434 0.0717733 5.90199 0.547652 6.12286C2.04619 6.81909 6.83743 6.99999 11.416 6.99999C14.2881 6.99999 17.0772 6.9288 18.9158 6.86932C35.6774 6.72354 52.7333 6.2116 69.2268 5.71673C76.8433 5.48806 84.7193 5.25208 92.4475 5.0556C99.4968 4.87617 106.813 4.65483 113.89 4.44079C140.693 3.62998 168.41 2.79187 194.671 3.72457C214.873 4.44226 238.197 4.72699 262.121 4.54757C262.342 4.54611 262.548 4.50028 262.67 4.4252L262.888 4.29159C263.059 4.18676 263.032 4.04829 262.824 3.95565C261.964 3.57487 260.714 3.37256 259.278 3.2731C259.324 2.94887 258.693 2.65145 251.997 2.11416Z" fill="url(#paint0_linear_2314_12479)"/>
<defs>
<linearGradient id="paint0_linear_2314_12479" x1="98.7328" y1="1.7619" x2="180.651" y2="1.7619" gradientUnits="userSpaceOnUse">
<stop stop-color="#FFCB4A"/>
<stop offset="1" stop-color="#F7B103"/>
</linearGradient>
</defs>
</svg>
