<svg width="40" height="40" viewBox="0 0 40 40" fill="none" xmlns="http://www.w3.org/2000/svg">
<rect width="40" height="40" rx="4" fill="#FFFBF2"/>
<path d="M28.5081 20.2118C27.8828 16.9603 25.1316 14.4799 21.9217 14.0214C21.8592 13.4585 21.3798 13 20.7962 13C20.2126 13 19.7333 13.4378 19.6708 14.0214C16.4608 14.4799 13.7096 16.9601 13.0843 20.2118H12.459V20.8371H29.1335V20.2118H28.5081ZM26.132 17.2937C26.1945 17.377 26.1945 17.5229 26.1112 17.5854C26.0695 17.6272 26.0279 17.6272 25.9862 17.6272C25.9237 17.6272 25.8611 17.6064 25.8194 17.5439C24.9648 16.5017 23.8393 15.7514 22.5262 15.397C22.4219 15.3762 22.3594 15.251 22.3802 15.1469C22.401 15.0427 22.5262 14.9802 22.6303 15.001C24.006 15.3969 25.2357 16.189 26.132 17.2936L26.132 17.2937ZM27.1116 19.503C27.0908 19.503 27.0699 19.5238 27.0491 19.5238C26.9658 19.5238 26.8824 19.4821 26.8616 19.3778C26.7365 19.0652 26.5906 18.7525 26.4238 18.4607C26.3613 18.3564 26.403 18.2314 26.5071 18.1689C26.6113 18.1064 26.7364 18.1481 26.7989 18.2522C26.9864 18.5648 27.1324 18.8983 27.2574 19.2318C27.2784 19.3362 27.2159 19.4614 27.1116 19.503L27.1116 19.503ZM20.7961 13.4168C21.1297 13.4168 21.4215 13.6461 21.484 13.9587C21.2547 13.9379 21.0254 13.9379 20.7961 13.9379C20.5669 13.9379 20.3376 13.9379 20.1083 13.9587C20.1708 13.6461 20.4626 13.4168 20.7961 13.4168Z" fill="#F7B103"/>
<path d="M23.381 21.4405C23.3392 21.3362 23.2767 21.2529 23.1934 21.2112C23.0474 21.1279 22.8183 21.1069 22.4013 21.2112C22.0887 21.2945 21.7343 21.4405 21.4634 21.649L19.7544 23.0245C19.6084 23.1287 19.4418 23.1913 19.2541 23.1913L17.4198 23.2538L17.3156 23.1913L19.0664 22.2324C19.2124 22.1491 19.3165 22.0239 19.3582 21.8573C19.3999 21.6905 19.3582 21.5238 19.2749 21.3987C19.2124 21.3154 19.1498 21.2528 19.0664 21.2112C18.8163 21.1069 18.3993 21.2112 18.3993 21.2112C18.0867 21.2737 17.6907 21.378 17.2112 21.5238C16.7109 21.6905 16.0857 21.7739 15.6688 21.8781C14.8142 22.0866 14.2098 22.4617 13.918 22.6493V25.7549C14.2306 25.7341 14.6058 25.6924 15.0434 25.7341C15.6062 25.7759 17.7114 25.5256 18.8369 25.3798L19.2537 25.3381C19.483 25.3173 19.6705 25.2131 19.8373 25.0671L23.2764 21.9198C23.4018 21.8156 23.4644 21.6072 23.3809 21.4404L23.381 21.4405ZM13.5013 22.2951C13.5013 22.17 13.418 22.0866 13.2928 22.0866H11.2085C11.0835 22.0866 11 22.1699 11 22.2951V26.6721C11 26.7972 11.0833 26.8806 11.2085 26.8806H13.2928C13.4178 26.8806 13.5013 26.7973 13.5013 26.6721V22.2951Z" fill="#F7B103"/>
</svg>
